<svg width="335" height="267" viewBox="0 0 335 267" fill="none" xmlns="http://www.w3.org/2000/svg">
<path d="M1.71961 99.6002C10.4296 102.81 19.0396 106.3 27.5696 109.98C35.9396 113.59 44.3396 117.24 52.4596 121.39C60.2096 125.35 67.8096 129.64 75.9096 132.86C83.1696 135.75 90.8796 137.57 98.5696 138.91C106.15 140.23 113.98 141.11 121.67 140.42C122.52 140.34 123.37 140.24 124.22 140.12C124.98 140.01 124.65 138.87 123.9 138.97C116.39 140.04 108.61 139.3 101.16 138.13C93.5996 136.94 85.9596 135.29 78.7596 132.67C70.5996 129.71 62.9696 125.49 55.2796 121.49C47.2596 117.32 38.9896 113.65 30.7096 110.04C22.2996 106.37 13.8096 102.86 5.21961 99.6202C4.15961 99.2202 3.1096 98.8302 2.04961 98.4402C1.3196 98.1802 1.00961 99.3302 1.71961 99.6002Z" fill="#D67993"/>
<path d="M46.2696 117.71C40.3896 121.01 33.5096 119.97 27.5396 117.46C20.9596 114.69 15.0796 110.33 9.72961 105.66C7.14961 103.41 4.67961 101.05 2.29961 98.6002C2.20961 98.9302 2.11961 99.2602 2.03961 99.5902C4.72961 98.9102 7.58961 98.9102 10.3496 99.0802C13.9496 99.2902 17.5296 99.8902 21.0396 100.74C24.7596 101.64 28.4296 102.83 31.9296 104.39C35.1596 105.83 38.3096 107.59 41.0096 109.9C43.5596 112.09 45.7396 114.84 46.4396 118.2C46.5996 118.95 47.7396 118.63 47.5896 117.88C46.1896 111.2 39.6996 106.8 33.9596 104.02C27.0296 100.65 19.2996 98.6302 11.6196 97.9802C8.35961 97.7002 4.92961 97.6302 1.72961 98.4402C1.28961 98.5502 1.15961 99.1202 1.46961 99.4302C6.15961 104.25 11.1996 108.78 16.7096 112.64C22.4696 116.68 29.1196 120.34 36.2596 120.93C39.9496 121.24 43.6396 120.54 46.8796 118.72C47.5396 118.36 46.9396 117.34 46.2696 117.71Z" fill="#D67993"/>
<path d="M27.3796 117.96C30.4096 116.69 33.1696 114.83 36.2796 113.76C36.9996 113.51 36.6896 112.36 35.9596 112.61C32.8396 113.68 30.0896 115.54 27.0596 116.81C26.7596 116.93 26.5496 117.2 26.6396 117.54C26.7196 117.83 27.0796 118.09 27.3796 117.96Z" fill="#D67993"/>
<path d="M19.7396 114.8C22.9196 113.72 26.0196 112.45 29.1196 111.16C29.4196 111.04 29.6196 110.77 29.5396 110.43C29.4696 110.15 29.0996 109.89 28.8096 110.01C25.7096 111.3 22.5996 112.57 19.4296 113.65C18.6996 113.9 19.0096 115.05 19.7396 114.8Z" fill="#D67993"/>
<path d="M13.4596 110.05C15.8496 109.06 18.3196 108.25 20.8596 107.74C21.6096 107.59 21.2896 106.44 20.5396 106.59C17.9996 107.1 15.5296 107.91 13.1396 108.9C12.8396 109.02 12.6296 109.29 12.7196 109.63C12.8096 109.92 13.1596 110.17 13.4596 110.05Z" fill="#D67993"/>
<path d="M21.4796 106.26C20.1996 103.93 19.2796 101.42 17.9996 99.0902C17.6296 98.4202 16.5996 99.0202 16.9696 99.6902C18.2496 102.02 19.1696 104.53 20.4496 106.86C20.8196 107.53 21.8496 106.93 21.4796 106.26Z" fill="#D67993"/>
<path d="M28.5896 109.47C28.5396 106.85 27.7696 104.34 26.9996 101.86C26.7696 101.13 25.6196 101.44 25.8496 102.18C26.5896 104.56 27.3496 106.97 27.3996 109.48C27.4096 110.23 28.5996 110.23 28.5896 109.47Z" fill="#D67993"/>
<path d="M36.6996 113.03C36.1396 110.23 35.5796 107.41 34.7896 104.67C34.5796 103.94 33.4296 104.25 33.6396 104.99C34.4296 107.73 34.9996 110.55 35.5496 113.35C35.6996 114.1 36.8496 113.78 36.6996 113.03Z" fill="#D67993"/>
<path d="M0.459611 144.19C8.57961 146.55 16.4296 150.06 24.8596 151.22C32.2196 152.24 40.3296 151.13 46.4296 146.62C49.4296 144.4 51.8496 141.56 54.1196 138.63C54.2996 138.4 54.3996 138 54.1196 137.79C48.3796 133.35 40.6596 132.25 33.5896 132.37C25.6096 132.51 17.5396 134.21 10.1796 137.32C6.60961 138.82 3.15961 140.69 0.199612 143.2C-0.390388 143.7 0.459613 144.53 1.03961 144.04C3.54961 141.92 6.45961 140.29 9.43961 138.93C12.8796 137.37 16.4996 136.19 20.1796 135.31C27.5896 133.53 35.5796 132.82 43.1096 134.33C46.7296 135.06 50.3496 136.34 53.2896 138.62C53.2896 138.34 53.2896 138.06 53.2896 137.78C51.3096 140.34 49.2096 142.85 46.6996 144.91C44.1696 146.99 41.2196 148.45 38.0496 149.29C34.1096 150.32 30.1496 150.64 26.0996 150.19C21.9896 149.73 17.9796 148.62 14.0496 147.38C9.60961 145.97 5.24961 144.34 0.769612 143.04C0.039612 142.83 -0.280389 143.97 0.459611 144.19Z" fill="#D67993"/>
<path d="M1.65961 144.29C12.1996 143.12 22.7996 142.89 33.3496 141.88C38.4596 141.39 43.4996 140.62 48.5496 139.69C52.9596 138.88 57.4096 138.27 61.8096 137.33C66.7396 136.28 71.6496 134.81 76.0296 132.23C76.6896 131.84 76.0896 130.81 75.4296 131.2C67.6896 135.76 58.4996 136.75 49.8096 138.26C47.4696 138.67 45.1396 139.14 42.7896 139.52C40.2196 139.93 37.6296 140.25 35.0396 140.52C29.8096 141.07 24.5696 141.4 19.3196 141.72C13.4296 142.09 7.52961 142.45 1.65961 143.1C0.909609 143.18 0.89961 144.37 1.65961 144.29Z" fill="#D67993"/>
<path d="M21.5896 141.6C18.1096 139.95 14.6296 138.28 11.0696 136.8C10.3596 136.51 10.0496 137.66 10.7496 137.95C14.2096 139.39 17.5996 141.02 20.9796 142.63C21.6796 142.95 22.2796 141.93 21.5896 141.6Z" fill="#D67993"/>
<path d="M35.4196 140.19C31.0196 138.01 26.7496 135.54 22.1996 133.64C21.4896 133.35 21.1896 134.5 21.8796 134.79C26.3296 136.64 30.4996 139.08 34.8096 141.22C35.5096 141.56 36.1096 140.53 35.4196 140.19Z" fill="#D67993"/>
<path d="M21.0596 142.85C20.1696 144.99 19.2896 147.13 18.3996 149.27C18.2796 149.57 18.5296 149.92 18.8196 150C19.1596 150.09 19.4296 149.88 19.5496 149.58C20.4296 147.44 21.3196 145.3 22.2096 143.16C22.3296 142.86 22.0796 142.51 21.7896 142.43C21.4496 142.34 21.1896 142.55 21.0596 142.85Z" fill="#D67993"/>
<path d="M33.8596 141.34C32.8496 144.53 30.7396 147.19 29.4496 150.26C29.3196 150.56 29.5896 150.91 29.8696 150.99C30.2096 151.09 30.4796 150.87 30.5996 150.57C31.2296 149.08 32.0796 147.69 32.8796 146.29C33.7296 144.81 34.4896 143.28 34.9996 141.65C35.2396 140.92 34.0896 140.61 33.8596 141.34Z" fill="#D67993"/>
<path d="M78.9396 132.41C77.4396 131.92 76.4196 130.61 75.6896 129.28C74.6796 127.46 74.0696 125.42 73.5596 123.41C72.4096 118.9 71.8496 114.26 70.8396 109.72C70.4096 107.79 69.9296 105.78 68.9396 104.05C68.5596 103.39 67.5296 103.98 67.9096 104.65C68.7896 106.18 69.2096 107.96 69.5996 109.67C70.1196 111.95 70.5096 114.25 70.9196 116.55C71.7196 120.97 72.4196 125.73 74.5696 129.74C75.4696 131.41 76.7596 132.96 78.6096 133.57C79.3496 133.8 79.6596 132.65 78.9396 132.41Z" fill="#D67993"/>
<path d="M68.3296 104.39C63.2996 102.92 58.9196 99.8901 55.9096 95.5801C52.9696 91.3801 51.3796 86.3601 50.7196 81.3101C50.3296 78.3301 50.2496 75.3001 50.4096 72.3001C50.1596 72.4901 49.9096 72.6801 49.6596 72.8701C54.4796 74.8801 58.8096 78.2201 62.2796 82.0901C65.7496 85.9601 68.6496 90.8001 69.1796 96.0601C69.4796 99.0201 68.9696 101.98 67.6596 104.65C67.3196 105.34 68.3496 105.94 68.6896 105.25C73.9896 94.4201 66.2596 82.8401 57.7796 76.3001C55.3796 74.4501 52.7796 72.8801 49.9796 71.7101C49.5996 71.5501 49.2496 71.9401 49.2296 72.2801C48.6596 82.7201 51.0996 94.5701 59.7596 101.34C62.2196 103.26 65.0296 104.64 68.0196 105.51C68.7496 105.75 69.0596 104.6 68.3296 104.39Z" fill="#D67993"/>
<path d="M68.3796 104.54C62.5596 96.7302 60.3196 87.0202 55.3196 78.7502C53.9196 76.4402 52.2996 74.2602 50.4096 72.3202C49.8796 71.7702 49.0296 72.6102 49.5696 73.1602C56.3396 80.1402 58.9196 89.7402 63.1696 98.2302C64.3796 100.64 65.7396 102.98 67.3496 105.14C67.7996 105.74 68.8396 105.15 68.3796 104.54Z" fill="#D67993"/>
<path d="M64.3396 97.5701C65.4396 94.9501 67.1196 92.6201 68.4896 90.1401C68.8596 89.4701 67.8296 88.8702 67.4596 89.5402C66.0396 92.1202 64.3296 94.5302 63.1896 97.2602C63.0696 97.5602 63.3196 97.9101 63.6096 97.9901C63.9596 98.0801 64.2196 97.8701 64.3396 97.5701Z" fill="#D67993"/>
<path d="M59.7796 88.6901C60.7096 86.5001 62.7296 84.9601 63.6596 82.7701C63.7796 82.4701 63.7496 82.1301 63.4496 81.9601C63.1996 81.8101 62.7596 81.8801 62.6396 82.1701C61.7096 84.3601 59.6896 85.9001 58.7596 88.0901C58.6396 88.3901 58.6696 88.7301 58.9696 88.9001C59.2196 89.0501 59.6596 88.9901 59.7796 88.6901Z" fill="#D67993"/>
<path d="M59.4296 87.8202C56.9796 86.8102 54.4196 86.0902 51.9696 85.0902C51.6696 84.9702 51.3196 85.2202 51.2396 85.5102C51.1496 85.8502 51.3596 86.1202 51.6596 86.2402C54.1096 87.2502 56.6696 87.9602 59.1196 88.9702C59.4196 89.0902 59.7696 88.8402 59.8496 88.5502C59.9396 88.2102 59.7296 87.9402 59.4296 87.8202Z" fill="#D67993"/>
<path d="M63.9296 96.8401C61.0896 95.6701 58.0996 94.9301 55.2596 93.7601C54.9596 93.6401 54.6096 93.8901 54.5296 94.1801C54.4296 94.5201 54.6496 94.7901 54.9496 94.9101C57.7896 96.0801 60.7796 96.8301 63.6196 97.9901C63.9196 98.1101 64.2696 97.8601 64.3496 97.5701C64.4396 97.2301 64.2196 96.9601 63.9296 96.8401Z" fill="#D67993"/>
<path d="M113.83 139.73C107.39 131.93 101.51 123.63 96.6496 114.74C91.6096 105.52 87.7696 95.7601 85.7596 85.4301C85.1996 82.5801 84.5896 79.6301 84.7396 76.7101C84.8796 74.0801 85.3796 71.4001 84.7096 68.8001C84.5196 68.0601 83.3696 68.3701 83.5596 69.1201C84.1696 71.4601 83.7296 73.9201 83.5796 76.2901C83.4096 78.8701 83.8296 81.4201 84.2796 83.9601C85.2096 89.2501 86.5496 94.4401 88.3796 99.4901C91.8996 109.17 96.8796 118.31 102.65 126.83C105.86 131.58 109.34 136.15 112.99 140.58C113.48 141.16 114.32 140.32 113.83 139.73Z" fill="#D67993"/>
<path d="M92.7396 108.84C95.2896 108.2 97.5196 106.73 98.5396 104.23C99.4996 101.9 99.3196 99.2502 98.8296 96.8402C98.2996 94.2302 97.3396 91.7102 96.2296 89.3002C95.7196 88.2002 95.1296 87.1402 94.6196 86.0402C93.7496 84.1802 92.8096 82.3602 91.8296 80.5602C89.6196 76.4902 87.2196 72.5102 84.6396 68.6602C84.3796 68.2702 83.8796 68.2902 83.6096 68.6602C81.9896 70.9602 80.9996 73.7102 80.2996 76.4202C79.4596 79.6902 79.0496 83.0902 78.9896 86.4602C78.8796 92.8102 79.9296 100.01 84.0996 105.06C86.2596 107.67 89.2496 109.25 92.6096 109.6C93.3696 109.68 93.3696 108.49 92.6096 108.41C89.8096 108.13 87.2996 106.82 85.4096 104.76C83.4496 102.62 82.2296 99.8802 81.4396 97.1202C79.6696 90.8902 79.7696 83.9802 81.2096 77.6902C81.8796 74.7402 82.8696 71.7602 84.6296 69.2602C84.2896 69.2602 83.9396 69.2602 83.5996 69.2602C85.7596 72.4902 87.7896 75.8002 89.6896 79.1802C91.4096 82.2202 92.9396 85.3502 94.4996 88.4802C95.6096 90.6902 96.5596 92.9902 97.2296 95.3702C97.8696 97.6602 98.3196 100.17 97.7996 102.53C97.1896 105.33 95.1096 107 92.3996 107.68C91.6896 107.87 91.9996 109.02 92.7396 108.84Z" fill="#D67993"/>
<path d="M80.7896 98.9601C83.6396 101.25 87.2996 102.02 90.3096 104.02C90.9496 104.44 91.5496 103.41 90.9096 102.99C87.9896 101.06 84.3796 100.33 81.6296 98.1201C81.0396 97.6401 80.1896 98.4801 80.7896 98.9601Z" fill="#D67993"/>
<path d="M91.1296 103.81C93.0296 100.05 95.7896 96.8302 97.4196 92.9302C97.7196 92.2202 96.5596 91.9202 96.2696 92.6102C94.6796 96.4102 91.9396 99.5502 90.0996 103.21C89.7596 103.89 90.7796 104.49 91.1296 103.81Z" fill="#D67993"/>
<path d="M79.8996 91.1201C82.2196 92.4301 84.6996 93.4901 86.8596 95.0801C87.1196 95.2701 87.5196 95.1201 87.6696 94.8701C87.8496 94.5701 87.7196 94.2501 87.4596 94.0601C85.2996 92.4701 82.8196 91.4201 80.4996 90.1001C79.8296 89.7101 79.2296 90.7401 79.8996 91.1201Z" fill="#D67993"/>
<path d="M87.7296 94.7201C89.2896 90.9501 90.8496 87.1801 92.4096 83.4101C92.6996 82.7001 91.5496 82.3901 91.2596 83.0901C89.6996 86.8601 88.1396 90.6301 86.5796 94.4001C86.2896 95.1101 87.4396 95.4101 87.7296 94.7201Z" fill="#D67993"/>
<path d="M79.2996 81.4402C80.7396 83.3502 83.0696 84.3102 84.7496 85.9202C85.2996 86.4502 86.1396 85.6102 85.5896 85.0802C84.7596 84.2802 83.7696 83.6602 82.8396 82.9902C82.3596 82.6502 81.8796 82.3002 81.4296 81.9302C81.2096 81.7502 80.9996 81.5602 80.7996 81.3602C80.6996 81.2602 80.6096 81.1702 80.5196 81.0602C80.4796 81.0202 80.4496 80.9802 80.4096 80.9402C80.3996 80.9202 80.2796 80.7802 80.3296 80.8402C80.1396 80.5802 79.8196 80.4502 79.5196 80.6302C79.2696 80.7702 79.1096 81.1802 79.2996 81.4402Z" fill="#D67993"/>
<path d="M85.7496 85.6602C86.3496 82.3102 87.7396 79.1202 89.0396 75.9902C89.1596 75.6902 88.9096 75.3402 88.6196 75.2602C88.2796 75.1602 88.0096 75.3802 87.8896 75.6802C86.5996 78.8102 85.2096 82.0002 84.5996 85.3502C84.4596 86.0902 85.6096 86.4102 85.7496 85.6602Z" fill="#D67993"/>
<path d="M35.4896 167.23C40.6896 167.8 45.8896 166.28 50.7196 164.51C55.6896 162.69 60.5096 160.31 65.6296 158.89C71.5796 157.24 77.4896 155.42 83.2696 153.22C85.8996 152.22 88.4696 151.12 90.9396 149.77C93.1696 148.55 95.3196 147.21 97.4996 145.92C102.33 143.06 107.36 140.64 113.1 140.61C113.87 140.61 113.87 139.42 113.1 139.42C108.07 139.44 103.45 141.2 99.1096 143.62C94.5396 146.16 90.2296 149.16 85.3596 151.13C79.6296 153.44 73.7496 155.34 67.8196 157.04C65.2196 157.78 62.6696 158.55 60.1496 159.52C57.6496 160.49 55.1696 161.53 52.6696 162.5C47.2496 164.61 41.3996 166.68 35.4896 166.04C34.7296 165.96 34.7396 167.15 35.4896 167.23Z" fill="#D67993"/>
<path d="M35.1896 167.15C41.6996 170.09 48.8796 171.28 55.9696 170.26C62.6096 169.3 68.8896 166.4 73.9696 162.04C76.9196 159.51 79.4396 156.48 81.4496 153.16C81.8496 152.5 80.8196 151.9 80.4196 152.56C77.0096 158.18 72.1196 162.82 66.2396 165.79C60.3796 168.76 53.7096 169.94 47.1796 169.26C43.2396 168.85 39.3796 167.76 35.7796 166.13C35.0996 165.81 34.4896 166.84 35.1896 167.15Z" fill="#D67993"/>
<path d="M35.7896 167.15C41.3396 163.99 46.6196 160.37 52.2296 157.32C57.7896 154.3 63.8896 151.59 70.3096 151.31C73.8796 151.15 77.4096 151.83 80.6296 153.37C81.3196 153.7 81.9196 152.67 81.2296 152.34C75.3196 149.52 68.7996 149.63 62.6196 151.5C56.1296 153.47 50.1996 156.95 44.4596 160.48C41.3796 162.38 38.3196 164.33 35.1796 166.12C34.5296 166.5 35.1296 167.53 35.7896 167.15Z" fill="#D67993"/>
<path d="M72.3996 155.13C69.5396 153.95 66.6896 152.77 63.8296 151.59C63.5296 151.47 63.1796 151.72 63.0996 152.01C62.9996 152.35 63.2196 152.62 63.5196 152.74C66.3796 153.92 69.2296 155.1 72.0896 156.28C72.3896 156.4 72.7396 156.15 72.8196 155.86C72.9196 155.52 72.6996 155.25 72.3996 155.13Z" fill="#D67993"/>
<path d="M67.2896 165.75C68.7096 162.34 70.6396 159.03 72.7596 156C73.1996 155.37 72.1696 154.77 71.7296 155.4C69.5496 158.52 67.6096 161.92 66.1396 165.43C66.0196 165.73 66.2696 166.08 66.5596 166.16C66.8996 166.27 67.1696 166.05 67.2896 165.75Z" fill="#D67993"/>
<path d="M60.4996 158.8C57.9496 157.75 55.3996 156.69 52.8596 155.64C52.5596 155.52 52.2096 155.77 52.1296 156.06C52.0396 156.4 52.2496 156.67 52.5496 156.79C55.0996 157.85 57.6496 158.9 60.1896 159.95C60.4896 160.07 60.8396 159.82 60.9196 159.53C61.0096 159.19 60.7996 158.92 60.4996 158.8Z" fill="#D67993"/>
<path d="M56.9896 169.01C58.1996 166.13 60.2396 163.71 61.4496 160.83C61.5796 160.53 61.3096 160.18 61.0296 160.1C60.6896 160 60.4196 160.22 60.2996 160.52C59.7196 161.91 58.8996 163.19 58.1096 164.47C57.2696 165.84 56.4696 167.22 55.8396 168.7C55.7096 169 55.9796 169.35 56.2596 169.43C56.5996 169.52 56.8696 169.3 56.9896 169.01Z" fill="#D67993"/>
<path d="M47.0396 168.83C47.9096 166.74 49.7996 163.23 47.0196 161.72C46.1096 161.23 45.0496 161.07 44.0296 160.98C43.7096 160.95 43.4296 161.28 43.4296 161.58C43.4296 161.93 43.6996 162.15 44.0296 162.18C44.7596 162.25 45.5896 162.37 46.2396 162.67C46.4996 162.79 46.6996 162.91 46.8496 163.05C47.0396 163.22 47.0696 163.26 47.1896 163.52C47.1396 163.42 47.2396 163.68 47.2596 163.74C47.2696 163.79 47.2796 163.84 47.2896 163.89C47.2996 163.96 47.2896 163.87 47.2896 163.86C47.2896 163.9 47.2996 163.93 47.2996 163.97C47.3096 164.09 47.3096 164.21 47.2996 164.33C47.2996 164.39 47.2896 164.44 47.2896 164.5C47.2896 164.53 47.2596 164.7 47.2796 164.61C47.1896 165.2 46.9996 165.78 46.7896 166.34C46.5096 167.08 46.1996 167.8 45.8996 168.53C45.7796 168.83 46.0296 169.18 46.3196 169.26C46.6496 169.34 46.9196 169.13 47.0396 168.83Z" fill="#D67993"/>
<path d="M122.74 112.56C118.27 106.25 114.67 99.3502 111.99 92.1002C109.35 84.9702 107.57 77.5302 106.51 70.0002C105.43 62.3402 105.09 54.5802 105.29 46.8602C105.49 39.1202 106.24 31.4102 107.41 23.7602C108.56 16.2402 110.1 8.78019 111.96 1.40019C112.18 0.510193 112.41 -0.379811 112.64 -1.25981C112.83 -1.99981 111.69 -2.31981 111.49 -1.57981C109.56 5.81019 107.92 13.2802 106.68 20.8202C105.41 28.5202 104.53 36.2902 104.2 44.0902C103.86 51.8802 104.07 59.7002 104.99 67.4402C105.9 75.0802 107.5 82.6502 109.97 89.9402C112.45 97.2402 115.79 104.24 120.03 110.68C120.58 111.52 121.15 112.34 121.72 113.16C122.15 113.78 123.18 113.18 122.74 112.56Z" fill="#D67993"/>
<path d="M114.23 5.18014C111.9 7.59014 109.75 10.1801 108.12 13.1201C108.49 13.2201 108.86 13.3201 109.23 13.4201C109.05 10.1001 107.64 7.06014 106.64 3.93014C106.41 3.20014 105.26 3.51014 105.49 4.25014C106.45 7.26014 107.86 10.2301 108.03 13.4201C108.06 13.9901 108.84 14.2601 109.14 13.7201C110.73 10.8701 112.81 8.36014 115.07 6.02014C115.61 5.47014 114.76 4.63014 114.23 5.18014Z" fill="#D67993"/>
<path d="M112.91 16.0802C110.51 19.1002 108.18 22.1802 106.09 25.4302C106.45 25.4802 106.82 25.5202 107.18 25.5702C105.15 20.7302 103.48 15.7502 101.46 10.9202C101.17 10.2202 100.02 10.5302 100.31 11.2402C102.34 16.0802 104.01 21.0602 106.03 25.8902C106.22 26.3502 106.82 26.5002 107.12 26.0302C109.16 22.8702 111.42 19.8702 113.76 16.9202C114.22 16.3202 113.38 15.4802 112.91 16.0802Z" fill="#D67993"/>
<path d="M112.35 27.1302C109.76 31.0602 107.07 34.9202 104.56 38.9102C104.87 38.8702 105.18 38.8302 105.49 38.7902C102.1 34.7402 100.8 29.4002 97.8996 25.0402C97.4796 24.4002 96.4496 25.0002 96.8696 25.6402C99.8296 30.1002 101.18 35.4902 104.65 39.6302C104.91 39.9402 105.4 39.8102 105.58 39.5102C108.09 35.5302 110.78 31.6602 113.37 27.7302C113.8 27.0902 112.77 26.4902 112.35 27.1302Z" fill="#D67993"/>
<path d="M111.55 39.2002C109.48 43.7802 107.11 48.4202 103.88 52.3002C104.19 52.3402 104.5 52.3802 104.81 52.4202C101.58 48.2302 99.4596 43.3202 96.7396 38.8202C96.3396 38.1702 95.3096 38.7602 95.7096 39.4202C98.4296 43.9302 100.56 48.8302 103.78 53.0202C103.99 53.2902 104.44 53.4702 104.71 53.1402C108.01 49.1702 110.45 44.4902 112.57 39.8002C112.89 39.1102 111.87 38.5002 111.55 39.2002Z" fill="#D67993"/>
<path d="M111.33 51.3002C108.78 55.6402 106.38 60.1702 104.93 65.0102C105.26 64.9202 105.59 64.8302 105.92 64.7502C102.73 60.9402 100.12 56.6702 96.6096 53.1202C96.0696 52.5702 95.2296 53.4202 95.7696 53.9602C99.2796 57.5102 101.88 61.7802 105.08 65.5902C105.38 65.9502 105.96 65.7202 106.07 65.3302C107.49 60.5802 109.85 56.1602 112.35 51.9002C112.75 51.2402 111.72 50.6402 111.33 51.3002Z" fill="#D67993"/>
<path d="M110.48 64.5201C109.25 66.9301 108.61 69.6101 108.19 72.2801C107.76 75.0201 107.55 77.7801 107.43 80.5501C107.77 80.4101 108.11 80.2701 108.45 80.1301C105.44 76.2901 100.93 74.0101 97.9196 70.1702C97.4496 69.5702 96.6096 70.4201 97.0796 71.0101C100.09 74.8501 104.6 77.1301 107.61 80.9701C107.95 81.4001 108.61 81.0101 108.63 80.5501C108.74 77.8901 108.93 75.2301 109.35 72.6001C109.75 70.0501 110.34 67.4401 111.52 65.1301C111.86 64.4401 110.83 63.8401 110.48 64.5201Z" fill="#D67993"/>
<path d="M123.23 112.17C119.86 108.27 118.17 103.23 117.28 98.2302C116.31 92.7502 116.26 87.1202 116.55 81.5802C116.81 76.4402 117.41 71.3202 118.06 66.2102C118.97 59.0602 120.57 52.0602 122.67 45.1702C123.87 41.2202 125.22 37.3102 126.61 33.4302C127.33 31.4402 128.05 29.4502 128.79 27.4702C129.54 25.4802 130.3 23.5002 130.69 21.4002C130.33 21.4502 129.96 21.4902 129.6 21.5402C131.13 23.6502 132.12 26.1002 132.89 28.5702C133.75 31.2902 134.36 34.0902 134.89 36.8902C135.99 42.6602 137.13 48.4802 137.49 54.3502C137.91 61.2802 137.53 68.2902 136.3 75.1202C135.75 78.1802 135.02 81.2102 134.27 84.2302C133.53 87.2202 132.71 90.1902 131.73 93.1102C129.55 99.5902 126.56 105.97 121.84 111.01C122.17 111.1 122.5 111.19 122.83 111.27C122.14 107.25 123.12 103.13 124.02 99.2202C124.97 95.1002 125.74 90.9602 126.43 86.7902C127.5 80.3202 128.41 73.8202 128.87 67.2802C129.22 62.3202 129.54 57.3602 129.83 52.4002C130.17 46.7002 130.47 40.9902 130.67 35.2802C130.82 30.9602 131 26.6002 130.76 22.2802C130.74 21.9402 130.72 21.5902 130.69 21.2502C130.63 20.4902 129.43 20.4902 129.5 21.2502C129.84 25.2702 129.66 29.3602 129.54 33.3902C129.37 39.0502 129.08 44.7002 128.76 50.3502C128.46 55.5302 128.13 60.7002 127.77 65.8702C127.65 67.6402 127.54 69.4102 127.39 71.1702C127.03 75.4902 126.32 79.8102 125.65 84.0902C124.98 88.3402 124.3 92.6102 123.34 96.8102C122.45 100.74 121.35 104.73 121.41 108.79C121.42 109.73 121.51 110.66 121.67 111.58C121.75 112.02 122.38 112.15 122.66 111.84C126.92 107.29 129.82 101.69 131.98 95.8902C134.17 90.0102 135.68 83.8702 136.97 77.7402C138.41 70.9202 138.98 63.8902 138.77 56.9202C138.58 50.7102 137.47 44.6602 136.38 38.5702C135.8 35.3302 135.16 32.1002 134.22 28.9502C133.39 26.1502 132.32 23.3202 130.59 20.9402C130.32 20.5702 129.61 20.5302 129.5 21.0802C129.14 23.0202 128.46 24.8702 127.76 26.7102C127.1 28.4702 126.45 30.2402 125.81 32.0002C124.54 35.5202 123.3 39.0602 122.16 42.6202C119.87 49.8102 118.01 57.1402 117.01 64.6202C115.59 75.3002 114.26 86.2802 115.82 97.0202C116.66 102.76 118.47 108.55 122.32 113.01C122.89 113.59 123.73 112.75 123.23 112.17Z" fill="#D67993"/>
<path d="M122.49 112.28C128.84 100.21 137.34 89.2602 147.11 79.7702C149.8 77.1602 152.6 74.6602 155.51 72.2902C155.18 72.2002 154.85 72.1102 154.52 72.0302C155.36 76.4302 154.99 81.0102 153.95 85.3402C152.86 89.9402 151.01 94.3702 148.53 98.4002C146.39 101.88 143.7 105.33 140.37 107.75C137.79 109.62 135.01 111.33 132.06 112.57C129.3 113.73 124.8 115.14 123.06 111.71C123.03 111.95 123 112.19 122.97 112.43C127.64 107.54 132.81 103.14 137.69 98.4602C142.76 93.5902 147.71 88.4102 151.37 82.3702C153.31 79.1702 154.85 75.7002 155.66 72.0302C155.83 71.2802 154.68 70.9702 154.51 71.7102C153.04 78.3202 149.22 84.1102 144.89 89.2002C140.33 94.5502 135.1 99.2802 129.94 104.04C127.28 106.49 124.62 108.95 122.13 111.57C121.94 111.77 121.91 112.05 122.04 112.29C123.67 115.51 127.43 115.34 130.42 114.42C133.83 113.36 137.02 111.49 139.95 109.48C147.31 104.44 152.19 95.9602 154.61 87.5102C156.07 82.4002 156.66 76.9502 155.67 71.7002C155.58 71.2202 154.99 71.1802 154.68 71.4402C144.09 80.0702 134.79 90.4102 127.29 101.83C125.2 105.01 123.25 108.29 121.48 111.67C121.1 112.36 122.13 112.96 122.49 112.28Z" fill="#D67993"/>
<path d="M154.79 78.8502C153.25 79.5502 151.96 80.5602 150.61 81.5602C150.9 81.6802 151.19 81.8002 151.48 81.9202C151.03 80.0102 151.02 78.0302 150.57 76.1202C150.39 75.3702 149.25 75.6902 149.42 76.4402C149.87 78.3502 149.88 80.3302 150.33 82.2402C150.41 82.5902 150.9 82.8202 151.2 82.6002C152.55 81.6102 153.84 80.5902 155.38 79.8902C155.67 79.7602 155.74 79.3302 155.59 79.0802C155.43 78.7702 155.08 78.7202 154.79 78.8502Z" fill="#D67993"/>
<path d="M154.52 84.8002C152.3 84.7102 150.08 84.9202 147.98 85.7002C147.68 85.8102 147.47 86.1002 147.56 86.4302C147.64 86.7202 147.99 86.9602 148.29 86.8502C150.3 86.1002 152.38 85.9002 154.51 85.9902C155.28 86.0202 155.28 84.8302 154.52 84.8002Z" fill="#D67993"/>
<path d="M153.4 88.7902C152.03 88.7302 150.66 88.5202 149.29 88.4702C148 88.4202 146.73 88.5902 145.53 89.0602C145.23 89.1802 145.02 89.4602 145.11 89.7902C145.19 90.0802 145.54 90.3202 145.84 90.2102C147 89.7602 148.16 89.6102 149.4 89.6702C150.74 89.7302 152.06 89.9202 153.4 89.9802C154.17 90.0102 154.17 88.8202 153.4 88.7902Z" fill="#D67993"/>
<path d="M151.73 93.0302C148.6 92.8902 145.52 92.2202 142.39 92.0702C141.62 92.0302 141.63 93.2302 142.39 93.2602C145.52 93.4002 148.6 94.0702 151.73 94.2202C152.5 94.2502 152.5 93.0602 151.73 93.0302Z" fill="#D67993"/>
<path d="M149.1 96.9702C145.9 96.8202 142.68 96.2102 139.51 95.7102C139.65 95.8502 139.79 95.9902 139.93 96.1302C139.4 93.6902 138.8 91.2202 138.54 88.7402C138.46 87.9902 137.27 87.9802 137.35 88.7402C137.62 91.3302 138.23 93.9102 138.78 96.4502C138.82 96.6302 139.01 96.8402 139.2 96.8702C140.56 97.0802 141.91 97.2902 143.27 97.4802C145.2 97.7602 147.15 98.0802 149.1 98.1702C149.87 98.1902 149.86 97.0002 149.1 96.9702Z" fill="#D67993"/>
<path d="M142.98 92.6702C143.08 89.9702 142.64 87.2902 142.75 84.5902C142.78 83.8202 141.59 83.8302 141.56 84.5902C141.46 87.2902 141.9 89.9702 141.79 92.6702C141.77 93.4302 142.96 93.4302 142.98 92.6702Z" fill="#D67993"/>
<path d="M146.28 89.6302C146.42 86.5102 146.83 83.3702 146.36 80.2502C146.31 79.9302 145.91 79.7602 145.63 79.8302C145.29 79.9202 145.17 80.2502 145.21 80.5602C145.66 83.5602 145.22 86.6202 145.09 89.6202C145.06 90.4002 146.25 90.4002 146.28 89.6302Z" fill="#D67993"/>
<path d="M149.04 85.8502C149.14 83.3602 149.04 80.7602 148.47 78.3302C148.29 77.5802 147.15 77.9002 147.32 78.6502C147.87 80.9802 147.95 83.4702 147.85 85.8602C147.82 86.6202 149.01 86.6102 149.04 85.8502Z" fill="#D67993"/>
<path d="M137.22 98.9001C136.79 96.9701 136.36 95.0301 135.95 93.0901C135.91 92.8901 135.86 92.6801 135.82 92.4801C135.81 92.4201 135.8 92.3501 135.78 92.2901C135.75 92.1501 135.79 92.3001 135.79 92.3601C135.76 92.4601 135.74 92.5601 135.71 92.6601C135.4 92.7001 135.09 92.7401 134.78 92.7801C134.73 92.7001 134.68 92.6101 134.63 92.5301C134.74 92.8301 135.04 93.0401 135.36 92.9501C135.65 92.8701 135.88 92.5201 135.78 92.2201C135.74 92.1001 135.7 92.0501 135.62 91.9501C135.37 91.6501 134.86 91.7701 134.69 92.0701C134.52 92.3601 134.68 92.7901 134.74 93.0901C134.85 93.6201 134.97 94.1501 135.08 94.6801C135.35 95.9001 135.61 97.1301 135.88 98.3501C135.94 98.6401 136.01 98.9301 136.07 99.2201C136.24 99.9601 137.38 99.6401 137.22 98.9001Z" fill="#D67993"/>
<path d="M134.22 101.65C133.83 99.8702 133.44 98.0902 133.05 96.3002C132.99 96.0502 132.94 95.7902 132.88 95.5402C132.72 94.7902 131.57 95.1102 131.73 95.8602C132.12 97.6402 132.51 99.4202 132.9 101.21C132.96 101.46 133.01 101.72 133.07 101.97C133.23 102.71 134.38 102.4 134.22 101.65Z" fill="#D67993"/>
<path d="M131.56 103.39C131.35 102.78 131.15 102.17 130.96 101.55C130.81 101.07 130.67 100.59 130.55 100.1C130.5 99.8902 130.45 99.6902 130.42 99.4802C130.42 99.4702 130.39 99.3502 130.4 99.3502C130.4 99.3502 130.41 99.5202 130.4 99.3602C130.4 99.3002 130.39 99.2302 130.39 99.1702C130.4 98.8502 130.11 98.5702 129.79 98.5702C129.46 98.5702 129.2 98.8402 129.19 99.1702C129.17 99.8202 129.41 100.52 129.58 101.14C129.78 101.85 130 102.55 130.24 103.25C130.29 103.4 130.34 103.55 130.39 103.7C130.5 104 130.8 104.2 131.12 104.12C131.44 104.04 131.67 103.69 131.56 103.39Z" fill="#D67993"/>
<path d="M146.94 100.33C143.53 99.9202 140.16 99.2302 136.8 98.4802C136.05 98.3102 135.74 99.4602 136.48 99.6302C139.94 100.41 143.41 101.1 146.93 101.53C147.7 101.62 147.69 100.42 146.94 100.33Z" fill="#D67993"/>
<path d="M144.47 104.19C140.76 104.02 137.28 102.85 133.94 101.29C133.25 100.97 132.64 101.99 133.34 102.32C136.88 103.97 140.54 105.2 144.47 105.38C145.24 105.42 145.24 104.23 144.47 104.19Z" fill="#D67993"/>
<path d="M141.18 107.01C139.47 106.81 137.85 106.32 136.31 105.55C134.81 104.81 133.37 103.95 131.84 103.28C131.15 102.98 130.54 104 131.24 104.31C132.85 105.02 134.36 105.93 135.94 106.69C137.61 107.5 139.34 107.98 141.18 108.2C141.94 108.29 141.93 107.1 141.18 107.01Z" fill="#D67993"/>
<path d="M137.91 109.46C134.67 109.03 132.06 106.81 129.01 105.82C128.28 105.58 127.97 106.73 128.69 106.97C130.26 107.48 131.68 108.31 133.15 109.05C134.67 109.81 136.21 110.43 137.9 110.65C138.22 110.69 138.49 110.35 138.5 110.05C138.51 109.7 138.23 109.51 137.91 109.46Z" fill="#D67993"/>
<path d="M132.83 112.49C130.71 110.95 128.51 109.52 126.4 107.98C126.14 107.79 125.74 107.94 125.59 108.19C125.41 108.49 125.54 108.81 125.8 109C127.92 110.54 130.12 111.97 132.23 113.51C132.49 113.7 132.89 113.55 133.04 113.3C133.22 113 133.09 112.68 132.83 112.49Z" fill="#D67993"/>
<path opacity="0.1" d="M232.208 240.208C267.777 204.639 267.777 146.971 232.208 111.403C196.639 75.834 138.971 75.834 103.403 111.403C67.8341 146.971 67.8341 204.639 103.403 240.208C138.971 275.777 196.639 275.777 232.208 240.208Z" fill="#65537A"/>
<path opacity="0.1" d="M259.73 198.46C301.002 198.46 334.46 165.002 334.46 123.73C334.46 82.4578 301.002 49 259.73 49C218.458 49 185 82.4578 185 123.73C185 165.002 218.458 198.46 259.73 198.46Z" fill="#65537A"/>
</svg>
