<svg width="119" height="122" viewBox="0 0 119 122" fill="none" xmlns="http://www.w3.org/2000/svg">
<path d="M62.4565 55.6252C58.9355 49.7796 58.6278 41.6437 58.5937 35.012C58.5253 26.9102 59.2775 18.0564 62.7643 10.6384C64.0291 7.97204 65.7724 5.16891 68.473 3.80153C71.2078 2.39997 74.2845 3.0153 76.9167 4.3485C81.1214 6.46793 85.3602 9.92053 86.7276 14.5696C88.1633 19.4922 86.5567 24.7908 84.3689 29.2348C78.7968 40.6182 69.2251 50.1214 59.7902 58.3599C58.3203 59.6247 60.4739 61.7441 61.9097 60.4793C71.1053 52.446 80.1983 43.3187 86.0439 32.5164C88.6419 27.6964 90.7614 22.1586 90.146 16.5865C89.5307 10.9119 86.0096 6.8097 81.4973 3.63055C78.2839 1.34019 74.3187 -0.471581 70.2849 0.109555C66.969 0.588137 64.3368 2.67346 62.3883 5.30566C57.2606 12.2451 56.0641 22.0218 55.6538 30.3628C55.4146 35.5588 55.6198 40.7891 56.406 45.9509C56.9871 49.7454 57.8416 53.7792 59.8585 57.1293C60.8498 58.7701 63.4479 57.266 62.4565 55.6252Z" fill="#D67993"/>
<path d="M60.9523 60.24C67.3106 47.5233 71.1393 33.8838 75.5149 20.4151C76.1303 18.5691 73.2247 17.783 72.6093 19.6289C68.3021 32.8241 64.576 46.2585 58.3203 58.7358C57.4998 60.4451 60.0977 61.9834 60.9523 60.24Z" fill="#D67993"/>
<path d="M57.8759 63.761C58.628 59.693 57.9444 55.4542 57.0556 51.4888C55.8249 46.1902 53.9447 41.0625 51.6544 36.1058C47.4839 27.0469 41.5015 16.8258 32.5794 11.6981C29.0926 9.71543 24.9563 8.75824 21.0592 9.95469C16.3076 11.4246 12.6157 15.5268 10.2228 19.7315C4.06963 30.4996 10.633 41.1651 19.1449 48.2071C29.0584 56.4114 41.8091 62.4962 54.3206 65.5044C56.2008 65.9488 56.9872 63.0773 55.107 62.5987C44.9201 60.1374 34.904 55.5226 26.2211 49.7112C18.4613 44.5152 8.34264 35.764 11.1458 25.2351C13.231 17.3044 21.2643 9.64703 29.6737 13.4757C38.0489 17.3043 43.6893 26.7051 47.6888 34.5675C50.2185 39.5927 52.3038 44.8912 53.7396 50.3607C54.7651 54.3261 55.7565 58.8042 55.0386 62.9064C54.6284 64.8549 57.4999 65.6411 57.8759 63.761Z" fill="#D67993"/>
<path d="M57.1579 63.2482C49.8083 52.822 42.4929 42.2932 33.981 32.7557C32.682 31.32 30.5965 33.4394 31.8613 34.8752C40.2023 44.2075 47.3811 54.5312 54.5599 64.7865C55.6879 66.3249 58.286 64.8207 57.1579 63.2482Z" fill="#D67993"/>
<path d="M57.705 62.9406C53.8422 62.633 49.8767 63.385 46.1165 64.2054C40.9546 65.3335 35.8611 66.9061 30.9043 68.752C21.6062 72.2388 11.4534 76.717 4.54815 84.1008C2.12106 86.6988 -0.066808 90.0147 0.00156089 93.7066C0.0699298 97.7404 2.80472 100.954 5.91551 103.244C10.2227 106.457 15.8974 109.363 21.4011 108.885C27.2808 108.372 32.4768 105.022 36.8524 101.261C42.903 96.0653 47.8598 89.5361 52.0303 82.8018C55.6538 76.9562 58.9356 70.7005 60.8842 64.0688C61.4311 62.2228 58.5253 61.4365 57.9784 63.2825C54.6283 74.7001 47.5522 85.81 39.5189 94.4929C35.5877 98.766 30.9043 103.005 25.3323 104.953C19.8969 106.868 15.2479 105.364 10.4279 102.595C7.38546 100.851 3.69346 98.2873 3.07814 94.5612C2.59956 91.5872 4.34304 88.784 6.25737 86.6304C12.4106 79.7593 21.7429 75.5205 30.1523 72.2046C35.2116 70.2219 40.4077 68.5469 45.7063 67.3162C49.6033 66.4274 53.7054 65.5729 57.705 65.8805C59.6194 66.0856 59.6194 63.0774 57.705 62.9406Z" fill="#D67993"/>
<path d="M56.5427 62.1885C48.1675 69.7091 39.724 77.1613 30.7335 83.964C29.2293 85.1263 30.6993 87.7243 32.2376 86.5621C41.4332 79.6226 50.0818 72.0337 58.6621 64.3422C60.0978 63.0431 57.9784 60.9237 56.5427 62.1885Z" fill="#D67993"/>
<path d="M60.679 60.8894C63.653 68.8544 69.4985 75.5546 74.2843 82.494C78.9676 89.2967 84.7107 97.7745 83.5484 106.491C83.0014 110.799 80.2665 116.063 76.096 117.841C72.1306 119.516 68.2337 116.781 65.7382 113.875C62.1147 109.636 60.5423 104.03 59.4142 98.6974C58.2177 93.057 57.2946 86.562 58.0467 80.7848C58.5937 76.5801 60.2346 72.478 61.3285 68.4101C62.0464 65.7437 63.7214 61.2996 62.1489 58.6333C61.1575 56.9924 58.5595 58.4965 59.5508 60.1374C60.0978 61.0262 59.5508 62.838 59.3457 63.7951C58.9355 65.8804 58.3543 67.9657 57.739 70.0167C56.6792 73.6745 55.2435 77.4348 54.97 81.2635C54.4573 87.8952 55.3803 94.9371 56.9186 101.364C58.2176 106.697 60.0977 111.995 63.7897 116.2C66.4561 119.242 70.2847 121.738 74.4894 121.328C79.2752 120.815 82.7963 116.678 84.779 112.576C88.9153 103.996 85.36 94.7663 80.8477 87.1432C77.9762 82.289 74.592 77.7766 71.3445 73.1959C68.4388 69.0937 65.3622 64.8548 63.5846 60.1374C62.9009 58.2914 59.9953 59.0777 60.679 60.8894Z" fill="#D67993"/>
<path d="M58.9015 59.6246C64.6786 72.2387 65.3282 86.4594 70.0456 99.4495C70.6951 101.261 73.6007 100.475 72.9512 98.6633C68.1312 85.4339 67.4134 71.008 61.4995 58.1205C60.6791 56.3429 58.1152 57.8812 58.9015 59.6246Z" fill="#D67993"/>
<path d="M62.7642 60.5818C69.9771 55.2832 76.6773 49.3352 84.1295 44.3784C91.3082 39.6268 101.051 33.747 109.392 39.3191C117.459 44.7202 117.083 56.9241 110.349 63.2482C104.332 68.8886 94.7608 67.9657 87.2744 66.7692C78.0446 65.2993 68.7807 62.0859 59.3458 62.1885C57.4315 62.1885 57.3973 65.1967 59.3458 65.1967C68.5756 65.1284 77.6687 68.3076 86.7276 69.7091C95.0686 71.0081 104.914 71.7602 111.819 65.9488C119.271 59.6589 120.741 47.6602 114.52 40.037C111.34 36.14 106.418 33.9864 101.427 34.0205C96.9829 34.0547 92.6756 35.969 88.8128 38.0543C78.7283 43.4554 70.3873 51.3178 61.1917 58.018C59.7217 59.1119 61.2259 61.7099 62.7642 60.5818Z" fill="#D67993"/>
<path d="M58.5255 64.0687C69.8405 62.4279 80.7452 58.5992 92.1628 57.5395C94.0772 57.3686 94.0772 54.3603 92.1628 54.5313C80.4718 55.6252 69.3276 59.488 57.7391 61.163C55.8247 61.4365 56.6453 64.3422 58.5255 64.0687Z" fill="#D67993"/>
</svg>
