<svg width="265" height="120" viewBox="0 0 265 120" fill="none" xmlns="http://www.w3.org/2000/svg">
<path d="M124.61 47.1011C129.22 45.4711 133.43 43.0011 137.7 40.6811C139.82 39.5311 141.97 38.4211 144.2 37.5111C146.65 36.5211 149.23 35.7711 151.77 35.0611C156.78 33.6511 161.88 32.6011 167.01 31.7611C172.31 30.8911 177.65 30.1311 182.98 29.5611C189.05 28.9011 195.2 28.7811 201.15 30.3611C201.77 30.5211 202.03 29.5711 201.41 29.4011C196.17 28.0111 190.73 27.8911 185.36 28.3411C179.99 28.7911 174.62 29.6011 169.3 30.4111C164.08 31.2011 158.88 32.1811 153.76 33.5111C148.8 34.8011 143.94 36.3411 139.38 38.6811C134.4 41.2411 129.65 44.2811 124.34 46.1611C123.75 46.3611 124.01 47.3211 124.61 47.1011Z" fill="#E3B9BF"/>
<path d="M201.3 30.3712C207.31 30.0312 213.36 30.7012 219.25 31.9012C225.44 33.1712 231.51 35.0412 237.36 37.4312C240.16 38.5712 242.91 39.8412 245.59 41.2512C247.72 42.3712 249.94 43.5112 251.86 44.9612C254.56 47.0012 256.9 49.6411 259.01 52.2611C260.11 53.6311 261.15 55.0512 262.02 56.5812C262.56 57.5212 263.21 58.6912 263.2 59.7712C263.2 60.1112 263.1 60.3412 262.89 60.4811C262.57 60.7011 262.08 60.7012 261.63 60.6612C259.46 60.4912 257.31 59.3612 255.34 58.5512C250.09 56.4012 244.94 54.0312 240 51.2412C234.52 48.1512 229.2 44.7612 223.89 41.3912C219.77 38.7812 215.71 36.0612 211.51 33.5812C208.96 32.0812 206.32 30.7312 203.47 29.9112C202.79 29.7112 202.11 29.5412 201.42 29.3912C201.33 29.7112 201.24 30.0312 201.16 30.3512C214.49 33.2412 227.33 37.9611 239.66 43.7611C243.17 45.4111 246.64 47.1512 250.08 48.9412C250.65 49.2312 251.15 48.3812 250.58 48.0812C238.44 41.7612 225.87 36.1811 212.72 32.2911C208.99 31.1911 205.22 30.2212 201.42 29.4012C200.8 29.2612 200.53 30.2212 201.16 30.3612C204.05 30.9912 206.74 32.0611 209.33 33.4811C213.28 35.6511 217.04 38.2012 220.83 40.6212C226.41 44.1812 232 47.7512 237.72 51.0812C242.53 53.8712 247.5 56.3212 252.62 58.4912C254.18 59.1512 255.76 59.7812 257.33 60.4212C258.33 60.8312 259.34 61.2111 260.39 61.4511C261.43 61.6912 262.91 61.9412 263.73 61.0512C264.44 60.2712 264.18 59.0712 263.86 58.1812C263.34 56.7212 262.49 55.3812 261.61 54.1112C259.5 51.0712 257 48.2212 254.28 45.7212C253.03 44.5812 251.71 43.6212 250.27 42.7512C247.69 41.1912 245.01 39.7911 242.28 38.5111C236.43 35.7811 230.32 33.6012 224.06 32.0012C217.99 30.4512 211.73 29.4112 205.46 29.3012C204.07 29.2812 202.68 29.3012 201.29 29.3812C200.66 29.4112 200.66 30.4012 201.3 30.3712Z" fill="#E3B9BF"/>
<path d="M178.79 30.0612C188.56 31.5812 197.51 36.6312 205.17 42.7012C211.11 47.4112 216.63 52.8712 221.06 59.0512C222.06 60.4412 223 61.8812 223.78 63.4112C224.39 64.6112 224.99 65.9612 225.05 67.3312C225.1 68.5712 224.41 70.1012 222.98 70.0212C221.31 69.9312 219.74 68.5312 218.45 67.6012C215.12 65.2012 212.26 62.0512 209.51 59.0212C206.52 55.7312 203.68 52.3112 200.8 48.9212C195.13 42.2712 189.23 35.5612 181.85 30.7512C180.98 30.1812 180.09 29.6512 179.19 29.1512C179.11 29.4612 179.02 29.7712 178.94 30.0712C181.03 30.0412 183.05 30.9612 184.85 31.9612C187.04 33.1712 189.07 34.6612 191.03 36.2012C192.84 37.6312 194.6 39.1312 196.38 40.5912C198.47 42.3012 200.7 43.8312 202.81 45.5212C205.51 47.6812 208.08 50.0312 210.14 52.8212C210.52 53.3312 211.38 52.8312 211 52.3212C209.12 49.7812 206.86 47.5712 204.43 45.5612C202.19 43.7012 199.77 42.0712 197.51 40.2412C193.71 37.1512 190.05 33.8212 185.79 31.3512C183.73 30.1612 181.38 29.0512 178.95 29.0812C178.47 29.0912 178.26 29.7612 178.7 30.0012C186.68 34.4412 192.95 41.3012 198.84 48.1412C201.85 51.6412 204.79 55.2012 207.86 58.6512C209.37 60.3412 210.91 62.0112 212.51 63.6112C213.29 64.4012 214.09 65.1712 214.91 65.9212C215.67 66.6212 216.42 67.3812 217.27 67.9612C219.49 69.5112 223.78 73.1312 225.69 69.2212C226.93 66.6712 225.05 63.4112 223.75 61.2712C222.06 58.4712 220 55.8812 217.87 53.4112C215.1 50.2012 212.06 47.2112 208.86 44.4412C201.31 37.9012 192.48 32.2412 182.69 29.8112C181.5 29.5112 180.3 29.2712 179.08 29.0812C178.43 29.0112 178.16 29.9712 178.79 30.0612Z" fill="#E3B9BF"/>
<path d="M160.83 33.1611C169.15 30.1511 177.02 35.8211 182.78 41.3111C185.67 44.0611 188.32 47.0611 191 50.0111C193.39 52.6411 195.86 55.1911 198.08 57.9811C200.49 61.0111 202.93 64.4111 203.97 68.2011C204.43 69.8611 204.47 71.5411 204.03 73.2111C203.89 73.7511 203.65 74.5311 203.07 74.7411C202.58 74.9211 202.03 74.6411 201.61 74.3911C200.21 73.5711 199.08 72.2611 198.01 71.0611C196.71 69.6111 195.38 68.2111 194.04 66.8011C190.59 63.1811 187.32 59.3811 184.05 55.6011C177.55 48.0811 170.97 40.4911 163.02 34.4511C162.04 33.7111 161.04 32.9911 160.03 32.3011C159.95 32.6111 159.86 32.9211 159.78 33.2211C165.52 33.9611 170.72 36.8211 175.2 40.3611C179.8 44.0011 183.8 48.3411 187.66 52.7411C189.69 55.0611 191.68 57.4111 193.74 59.7011C194.17 60.1811 194.87 59.4711 194.44 59.0011C190.55 54.6611 186.87 50.1511 182.81 45.9811C178.72 41.7811 174.2 37.7911 168.94 35.1211C166.06 33.6611 162.99 32.6511 159.78 32.2311C159.25 32.1611 159.17 32.9111 159.53 33.1511C168.21 39.0311 175.24 46.9211 182.06 54.7911C185.46 58.7111 188.82 62.6611 192.36 66.4511C193.84 68.0311 195.37 69.5511 196.8 71.1711C197.95 72.4811 199.12 73.8111 200.54 74.8511C201.52 75.5711 202.93 76.2411 204 75.3211C205.18 74.3111 205.38 72.1711 205.36 70.7211C205.32 66.9211 203.13 63.2811 201.03 60.2611C198.74 56.9611 196.07 53.9411 193.32 51.0211C190.7 48.2311 188.19 45.3311 185.51 42.6011C179.88 36.8611 172.28 30.2411 163.6 31.4511C162.56 31.5911 161.55 31.8511 160.57 32.2111C159.97 32.4211 160.23 33.3811 160.83 33.1611Z" fill="#E3B9BF"/>
<path d="M138.74 39.9711C142.49 38.4111 146.51 38.3611 150.38 39.4811C154.21 40.5911 157.72 42.6311 160.95 44.9311C162.56 46.0711 164.1 47.2911 165.62 48.5511C166.45 49.2411 167.29 49.9211 168.04 50.7111C169.49 52.2511 170.75 53.9811 171.89 55.7611C172.89 57.3211 174.02 59.0711 174.39 60.9211C174.43 61.1411 174.46 61.5111 174.44 61.6311C174.42 61.7411 174.37 61.8611 174.37 61.8611C174.33 61.9311 174.29 61.9611 174.27 61.9711C174.11 62.0511 173.94 62.0811 173.66 62.0511C173.26 62.0111 172.86 61.8711 172.49 61.7311C171.11 61.2111 169.84 60.4011 168.61 59.6011C167.15 58.6511 165.75 57.6011 164.39 56.5011C161.83 54.4211 159.43 52.1411 156.97 49.9411C152.08 45.5611 146.79 41.5911 140.25 40.1511C139.38 39.9611 138.5 39.8211 137.62 39.7011C137.66 40.0211 137.71 40.3511 137.75 40.6711C140.93 39.5811 144.34 40.2011 147.43 41.2911C150.83 42.5011 153.99 44.3311 157.01 46.2811C158.52 47.2611 160.01 48.2811 161.49 49.3111C162.02 49.6811 162.51 48.8211 161.99 48.4511C159.12 46.4611 156.23 44.4811 153.16 42.8211C149.99 41.1011 146.56 39.6111 142.95 39.1911C141.12 38.9811 139.24 39.1111 137.49 39.7111C136.93 39.9011 137.08 40.6111 137.62 40.6811C141.22 41.1411 144.66 42.3411 147.79 44.1611C150.71 45.8511 153.32 48.0011 155.83 50.2311C158.42 52.5311 160.93 54.9311 163.62 57.1311C166.16 59.2011 168.91 61.3211 171.97 62.5711C173.17 63.0611 175.25 63.5111 175.42 61.6511C175.49 60.9311 175.25 60.1811 175 59.5111C174.63 58.5411 174.15 57.6211 173.64 56.7211C172.49 54.7311 171.15 52.8311 169.67 51.0611C167.95 49.0111 165.82 47.3711 163.72 45.7511C157.5 40.9411 149.64 36.3111 141.46 38.0711C140.44 38.2911 139.44 38.6111 138.47 39.0211C137.9 39.2611 138.15 40.2211 138.74 39.9711Z" fill="#E3B9BF"/>
<path d="M138.06 40.4511C142.14 33.2411 146.5 26.1511 151.6 19.6111C154.12 16.3911 156.81 13.3011 159.74 10.4511C161.09 9.1311 162.55 7.94111 163.93 6.65111C164.89 5.75111 165.88 4.88112 166.92 4.07112C168.13 3.13112 169.44 2.24112 170.85 1.63112C172.01 1.13112 173.42 0.741114 174.65 1.25111C175.97 1.80111 176.87 2.9711 176.84 4.4211C176.81 5.8111 176.14 7.16112 175.42 8.32112C173.62 11.2411 170.99 13.6811 168.38 15.8711C165.35 18.4211 162.09 20.6611 158.9 23.0011C157.37 24.1311 155.85 25.2811 154.38 26.4911C152.85 27.7511 151.44 29.1111 150 30.4711C146.96 33.3611 143.78 36.1611 140.16 38.3011C139.26 38.8311 138.33 39.3211 137.37 39.7611C137.57 40.0211 137.77 40.2811 137.97 40.5411C146.18 31.7911 153.68 22.2611 162.77 14.3711C165.11 12.3411 167.57 10.4511 170.17 8.7711C170.71 8.4311 170.21 7.57112 169.67 7.91112C159.84 14.2111 152.16 23.3311 144.45 31.9511C142.08 34.6011 139.7 37.2411 137.27 39.8311C136.87 40.2611 137.37 40.8411 137.87 40.6111C141.85 38.7811 145.34 36.0511 148.58 33.1311C150.13 31.7311 151.59 30.2311 153.15 28.8311C154.7 27.4311 156.34 26.1311 158.01 24.8711C161.24 22.4411 164.59 20.1711 167.74 17.6411C170.65 15.3211 173.53 12.7511 175.68 9.68111C177.16 7.57111 178.84 4.3111 177.06 1.8911C176.24 0.771098 174.88 0.0311143 173.49 0.0011143C172.04 -0.0288857 170.62 0.551095 169.37 1.23109C166.7 2.67109 164.57 4.79111 162.29 6.75111C159.08 9.51111 156.13 12.5711 153.4 15.8011C147.82 22.4111 143.1 29.7111 138.77 37.1811C138.24 38.0911 137.72 39.0111 137.2 39.9211C136.89 40.5011 137.74 41.0011 138.06 40.4511Z" fill="#E3B9BF"/>
<path d="M160.26 32.8611C161.76 28.5611 165.43 25.1512 168.85 22.3212C172.44 19.3612 176.35 16.7812 180.3 14.3212C184.96 11.4212 189.69 8.60114 194.7 6.33114C197.21 5.19114 199.79 4.20114 202.47 3.51114C204.48 2.99114 206.58 2.84115 208.65 2.81115C210.95 2.78115 213.27 2.93115 215.54 3.34115C217.6 3.71115 219.68 4.27116 221.5 5.32116C222.38 5.83116 223.22 6.55114 223.85 7.36114C224.17 7.76114 224.54 8.33115 224.43 8.87115C224.22 9.94115 222.55 10.3412 221.69 10.5612C220.13 10.9612 218.51 11.1211 216.91 11.2411C214.63 11.4111 212.35 11.5311 210.08 11.7911C204.66 12.4211 199.29 13.5312 194.06 15.0912C183.55 18.2212 173.59 23.1012 164.54 29.2812C163.43 30.0412 162.33 30.8211 161.25 31.6111C161.45 31.8711 161.65 32.1311 161.85 32.3911C166 28.3711 170.69 24.9312 175.55 21.8212C180.68 18.5312 186.03 15.6011 191.53 12.9811C194.41 11.6011 197.34 10.3212 200.31 9.15115C200.9 8.92115 200.64 7.96116 200.05 8.19116C188.89 12.5912 178.04 18.3411 168.43 25.5411C165.89 27.4511 163.43 29.4812 161.15 31.6912C160.76 32.0712 161.29 32.8112 161.75 32.4712C170.97 25.7012 181.19 20.2611 192.09 16.7411C197.53 14.9811 203.13 13.6812 208.8 12.9412C211.3 12.6112 213.8 12.4311 216.32 12.2711C218.01 12.1611 219.71 12.0112 221.37 11.6512C222.63 11.3812 224.21 10.9811 225.03 9.89114C225.88 8.76114 225.24 7.45116 224.44 6.50116C221.57 3.13116 216.57 2.28116 212.4 1.94116C210.11 1.75116 207.8 1.76116 205.52 2.00116C203.17 2.24116 200.93 2.85114 198.7 3.64114C193.22 5.60114 188.09 8.45116 183.12 11.4412C178.93 13.9712 174.76 16.5811 170.84 19.5211C167.02 22.3911 163.13 25.6411 160.64 29.7911C160.11 30.6811 159.66 31.6112 159.32 32.5912C159.09 33.2012 160.05 33.4611 160.26 32.8611Z" fill="#E3B9BF"/>
<path d="M181.73 29.7611C192.26 25.6211 202.91 21.5212 214.07 19.3812C223.59 17.5512 233.87 16.9911 243.24 19.9211C246.53 20.9511 250.43 22.5911 251.89 25.9811C252.47 27.3211 252.75 28.8812 251.31 29.7512C249.98 30.5612 248.21 30.5912 246.7 30.5312C244.59 30.4512 242.51 29.9812 240.44 29.6212C237.88 29.1812 235.32 28.7312 232.75 28.3012C227.48 27.4212 222.19 26.6311 216.88 26.1111C206.37 25.0811 195.5 25.0712 185.29 28.0912C184.07 28.4512 182.87 28.8612 181.68 29.3012C181.09 29.5212 181.31 30.4211 181.94 30.2611C195.64 26.7611 209.58 24.0412 223.74 23.4412C227.78 23.2712 231.82 23.2711 235.86 23.4211C236.5 23.4511 236.5 22.4512 235.86 22.4312C221.65 21.8712 207.5 23.5211 193.62 26.4811C189.62 27.3311 185.64 28.2912 181.68 29.3012C181.77 29.6212 181.86 29.9411 181.94 30.2611C192.3 26.3811 203.56 26.0011 214.48 26.8911C220.02 27.3411 225.53 28.1211 231.01 29.0111C233.66 29.4411 236.31 29.9011 238.96 30.3611C241.22 30.7511 243.5 31.2612 245.8 31.4612C248.34 31.6812 253.15 31.6112 253.39 28.1212C253.5 26.4612 252.53 24.6712 251.47 23.4612C250.26 22.0712 248.64 21.0712 246.99 20.3012C243.67 18.7412 240.02 17.9312 236.4 17.4012C230.7 16.5612 224.75 16.8311 219.05 17.5811C207.45 19.1111 196.35 23.0211 185.49 27.2311C184.15 27.7511 182.81 28.2812 181.47 28.8012C180.88 29.0312 181.13 29.9911 181.73 29.7611Z" fill="#E3B9BF"/>
<path d="M102.96 56.0111C99.0598 50.8311 96.6498 44.8312 94.7498 38.6812C93.7698 35.5112 92.7298 32.3011 92.0798 29.0411C91.3898 25.5711 91.2398 22.0411 91.2198 18.5111C91.1898 14.5811 91.2698 10.6611 90.8598 6.74115C90.7898 6.11115 89.7998 6.10115 89.8698 6.74115C90.6098 13.7712 89.7498 20.8812 90.8698 27.8812C91.4098 31.2912 92.4898 34.6212 93.4798 37.9112C94.3898 40.9312 95.3898 43.9312 96.6198 46.8412C98.0698 50.2612 99.8598 53.5311 102.1 56.5111C102.49 57.0111 103.35 56.5211 102.96 56.0111Z" fill="#E3B9BF"/>
<path d="M96.0099 43.6412C94.0099 41.8312 91.3899 41.2012 89.0299 40.0412C88.4599 39.7612 87.9599 40.6212 88.5299 40.9012C90.7999 42.0112 93.3999 42.6112 95.3099 44.3512C95.7799 44.7712 96.4899 44.0712 96.0099 43.6412Z" fill="#E3B9BF"/>
<path d="M88.6898 40.2611C86.1398 43.8711 81.6898 41.5212 79.0198 39.3512C75.3298 36.3512 72.1299 32.1811 70.3899 27.7311C69.7699 26.1411 69.0198 23.9211 69.8298 22.2611C69.6398 22.3411 69.4598 22.4111 69.2698 22.4911C73.0998 23.6011 76.6398 25.5112 79.6298 28.1612C81.0398 29.4112 82.2398 30.8311 83.4998 32.2311C84.6098 33.4611 85.7198 34.7012 86.6598 36.0712C87.5998 37.4512 88.6998 39.2711 88.2198 41.0111C88.0498 41.6311 88.9998 41.8911 89.1798 41.2711C89.6298 39.6711 88.9898 38.0311 88.2098 36.6511C87.3098 35.0811 86.1298 33.6712 84.9298 32.3212C83.6598 30.8912 82.4398 29.4211 81.0498 28.1111C79.5398 26.6811 77.8798 25.4012 76.0898 24.3412C74.0398 23.1212 71.8298 22.1912 69.5398 21.5312C69.3398 21.4712 69.0698 21.5611 68.9798 21.7611C68.1798 23.4311 68.5698 25.4411 69.1298 27.1211C69.9198 29.5211 71.1899 31.7612 72.6399 33.8212C74.1799 36.0112 75.9598 38.0711 78.0098 39.8011C79.7098 41.2311 81.7098 42.6111 83.9298 43.0411C86.1998 43.4811 88.2198 42.6611 89.5598 40.7711C89.9098 40.2411 89.0498 39.7411 88.6898 40.2611Z" fill="#E3B9BF"/>
<path d="M68.9199 22.5912C70.3599 25.7412 72.3999 28.6012 74.6399 31.2312C77.0799 34.0912 79.8498 36.7012 82.9298 38.8612C84.5298 39.9812 86.2299 40.9612 88.0299 41.7212C88.6199 41.9712 88.8699 41.0112 88.2899 40.7612C85.0799 39.4212 82.2098 37.2912 79.6498 34.9712C76.9698 32.5412 74.5298 29.8012 72.4898 26.8112C71.4598 25.3112 70.5399 23.7412 69.7799 22.0912C69.5099 21.5112 68.6499 22.0212 68.9199 22.5912Z" fill="#E3B9BF"/>
<path d="M92.0198 30.4012C87.8598 25.4612 86.3299 18.2411 88.1699 12.0511C88.6999 10.2811 89.5099 8.63114 90.5999 7.14114C90.3399 7.17114 90.0799 7.21115 89.8199 7.24115C92.4299 9.47115 94.0198 12.8011 94.9598 16.0411C95.9598 19.5111 96.3298 23.3911 95.2498 26.8911C94.6898 28.7111 93.6799 30.3411 92.1899 31.5511C91.6899 31.9511 92.3999 32.6512 92.8899 32.2512C95.7799 29.9012 96.8499 26.1112 96.8799 22.5012C96.9199 18.5812 95.8798 14.5812 94.0498 11.1212C93.1498 9.42115 91.9998 7.79116 90.5298 6.53116C90.2698 6.31116 89.9498 6.36116 89.7498 6.63116C85.6598 12.2312 85.5698 19.9812 88.2698 26.1912C89.0398 27.9712 90.0699 29.6212 91.3199 31.1012C91.7299 31.5912 92.4298 30.8912 92.0198 30.4012Z" fill="#E3B9BF"/>
<path d="M114.74 70.1312C120.72 64.5312 127.59 59.9711 134.73 56.0111C138.26 54.0511 141.87 52.2311 145.53 50.5211C147.28 49.7011 149.03 48.8812 150.85 48.2212C152.58 47.5912 154.35 47.0511 156.11 46.4811C160.04 45.2111 163.97 43.7611 167.13 41.0211C167.61 40.6011 166.91 39.9012 166.43 40.3212C163.58 42.7912 160.04 44.1511 156.51 45.3111C154.72 45.9011 152.92 46.4411 151.15 47.0611C149.42 47.6711 147.75 48.4011 146.08 49.1811C138.71 52.5911 131.48 56.4011 124.75 60.9611C120.98 63.5211 117.37 66.3211 114.04 69.4311C113.57 69.8611 114.27 70.5612 114.74 70.1312Z" fill="#E3B9BF"/>
<path d="M115.7 70.4611C124.29 67.9311 133.18 70.3011 141.91 70.2311C144.3 70.2111 146.69 69.9911 149.03 69.4611C149.65 69.3211 149.39 68.3611 148.77 68.5011C140.16 70.4611 131.36 67.9211 122.68 68.3311C120.23 68.4511 117.8 68.8011 115.44 69.4911C114.83 69.6811 115.09 70.6411 115.7 70.4611Z" fill="#E3B9BF"/>
<path d="M115.24 70.3112C119.1 66.7312 124.3 65.1412 129.48 64.9012C132.04 64.7812 134.52 65.0912 137.05 65.3912C139.14 65.6412 141.23 65.9112 143.29 66.3812C145.49 66.8812 148.05 67.5812 149.57 69.3712C149.54 69.1712 149.52 68.9712 149.49 68.7712C146.79 72.8412 141.96 74.6312 137.27 75.0812C132.08 75.5712 126.74 74.7112 121.86 72.9312C119.43 72.0512 117.07 70.9012 114.98 69.3712C114.46 68.9912 113.97 69.8512 114.48 70.2312C118.55 73.2212 123.64 74.9012 128.58 75.7112C133.72 76.5512 139.28 76.5112 144.13 74.4012C146.65 73.3012 148.83 71.5812 150.35 69.2812C150.48 69.0912 150.41 68.8412 150.27 68.6812C148.89 67.0612 146.7 66.2712 144.71 65.7312C142.47 65.1212 140.16 64.8012 137.85 64.5212C135.31 64.2112 132.81 63.8512 130.24 63.9012C127.57 63.9612 124.88 64.3412 122.34 65.1512C119.45 66.0712 116.77 67.5612 114.54 69.6312C114.07 70.0512 114.78 70.7512 115.24 70.3112Z" fill="#E3B9BF"/>
<path d="M166.6 40.3311C160.23 39.8711 153.76 40.8412 147.73 42.9112C141.61 45.0112 135.85 48.2511 131.06 52.6211C128.42 55.0311 126.11 57.7912 124.25 60.8512C123.92 61.4012 124.78 61.9012 125.11 61.3512C128.37 55.9812 133.07 51.6111 138.42 48.3611C143.85 45.0511 149.95 42.8212 156.22 41.8112C159.65 41.2512 163.14 41.0812 166.6 41.3412C167.24 41.3712 167.24 40.3711 166.6 40.3311Z" fill="#E3B9BF"/>
<path d="M166.86 40.2511C165.2 43.1611 163.1 45.7611 160.54 47.9211C158.2 49.8911 155.54 51.4511 152.75 52.7011C147.03 55.2711 140.85 56.5811 134.82 58.1911C131.39 59.1011 127.98 60.1111 124.69 61.4611C124.11 61.7011 124.36 62.6611 124.95 62.4211C130.92 59.9711 137.27 58.6711 143.47 56.9511C149.46 55.2911 155.46 53.1811 160.41 49.3011C163.39 46.9611 165.84 44.0411 167.71 40.7611C168.04 40.2011 167.18 39.7011 166.86 40.2511Z" fill="#E3B9BF"/>
<path d="M162.34 40.5212C161.24 41.5612 160.5 42.9012 159.51 44.0012C159.33 44.2012 159.31 44.5012 159.51 44.7012C159.69 44.8812 160.03 44.9012 160.21 44.7012C161.22 43.5712 161.94 42.2612 163.04 41.2212C163.23 41.0412 163.23 40.7012 163.04 40.5212C162.85 40.3312 162.54 40.3312 162.34 40.5212Z" fill="#E3B9BF"/>
<path d="M159.11 40.5911C157.67 42.1211 156.48 43.8711 155.13 45.4811C154.96 45.6911 154.93 45.9811 155.13 46.1811C155.31 46.3611 155.66 46.3911 155.83 46.1811C157.18 44.5711 158.36 42.8211 159.81 41.2911C160.25 40.8311 159.55 40.1211 159.11 40.5911Z" fill="#E3B9BF"/>
<path d="M153.59 41.5011C152.11 43.3911 151.19 45.6111 149.9 47.6311C149.55 48.1711 150.41 48.6711 150.76 48.1311C152 46.1911 152.87 44.0211 154.3 42.2111C154.46 42.0011 154.51 41.7111 154.3 41.5111C154.12 41.3311 153.75 41.2811 153.59 41.5011Z" fill="#E3B9BF"/>
<path d="M149.9 42.3611C148.45 44.4011 147.29 46.6211 146.04 48.7811C145.72 49.3311 146.58 49.8311 146.9 49.2811C148.15 47.1211 149.31 44.9011 150.76 42.8611C151.12 42.3411 150.26 41.8411 149.9 42.3611Z" fill="#E3B9BF"/>
<path d="M145.68 44.1811C144.47 46.0211 143.61 48.0811 142.9 50.1611C142.69 50.7711 143.65 51.0311 143.86 50.4211C144.54 48.4211 145.38 46.4511 146.54 44.6811C146.88 44.1511 146.03 43.6511 145.68 44.1811Z" fill="#E3B9BF"/>
<path d="M140.89 46.2711C140.15 48.2711 139.32 50.2311 138.58 52.2311C138.36 52.8311 139.32 53.0911 139.54 52.4911C140.28 50.4911 141.11 48.5311 141.85 46.5311C142.07 45.9411 141.11 45.6811 140.89 46.2711Z" fill="#E3B9BF"/>
<path d="M137.16 48.7911C136.55 50.4711 136.23 52.2511 135.52 53.8911C135.41 54.1411 135.45 54.4211 135.7 54.5711C135.91 54.6911 136.27 54.6411 136.38 54.3911C137.12 52.6611 137.48 50.8111 138.12 49.0511C138.21 48.8011 138.02 48.5111 137.77 48.4411C137.49 48.3711 137.25 48.5411 137.16 48.7911Z" fill="#E3B9BF"/>
<path d="M133.88 50.3911C133.16 52.2211 132.77 54.1411 132.26 56.0311C132.09 56.6511 133.05 56.9111 133.22 56.2911C133.73 54.4011 134.12 52.4711 134.84 50.6511C134.94 50.4011 134.73 50.1111 134.49 50.0411C134.21 49.9611 133.98 50.1411 133.88 50.3911Z" fill="#E3B9BF"/>
<path d="M130.39 53.3412C130.17 54.9212 129.61 56.4212 129.31 57.9812C129.26 58.2412 129.38 58.5212 129.66 58.5912C129.9 58.6612 130.22 58.5112 130.27 58.2412C130.57 56.6812 131.13 55.1812 131.35 53.6012C131.39 53.3312 131.29 53.0712 131 52.9912C130.77 52.9312 130.43 53.0712 130.39 53.3412Z" fill="#E3B9BF"/>
<path d="M146.31 66.9511C145.46 67.7411 144.62 68.5411 143.77 69.3311C143.58 69.5111 143.58 69.8511 143.77 70.0311C143.97 70.2211 144.27 70.2211 144.47 70.0311C145.32 69.2311 146.16 68.4411 147.01 67.6511C147.2 67.4711 147.2 67.1311 147.01 66.9511C146.81 66.7611 146.51 66.7611 146.31 66.9511Z" fill="#E3B9BF"/>
<path d="M144.29 66.3811C143.36 67.2611 142.42 68.1311 141.49 69.0111C141.3 69.1911 141.3 69.5311 141.49 69.7111C141.69 69.9011 141.99 69.9011 142.19 69.7111C143.12 68.8311 144.06 67.9611 144.99 67.0811C145.18 66.9011 145.18 66.5611 144.99 66.3811C144.79 66.1911 144.49 66.1911 144.29 66.3811Z" fill="#E3B9BF"/>
<path d="M142.46 65.4711C140.91 66.4111 139.58 67.6711 138.26 68.9011C137.79 69.3411 138.5 70.0411 138.96 69.6011C140.22 68.4211 141.48 67.2211 142.96 66.3211C143.51 66.0011 143.01 65.1411 142.46 65.4711Z" fill="#E3B9BF"/>
<path d="M139 64.9412C137.37 65.9912 135.88 67.2311 134.31 68.3611C134.09 68.5211 133.99 68.7911 134.13 69.0411C134.26 69.2511 134.59 69.3812 134.81 69.2212C136.38 68.0912 137.87 66.8411 139.5 65.8011C140.03 65.4511 139.54 64.5912 139 64.9412Z" fill="#E3B9BF"/>
<path d="M134.76 64.3011C133.36 65.6111 131.86 66.8411 130.64 68.3311C130.47 68.5411 130.44 68.8311 130.64 69.0311C130.82 69.2111 131.17 69.2411 131.34 69.0311C132.56 67.5411 134.06 66.3111 135.46 65.0011C135.93 64.5611 135.22 63.8611 134.76 64.3011Z" fill="#E3B9BF"/>
<path d="M130.77 64.4312C129.34 65.4412 128.33 66.8611 127.16 68.1411C126.98 68.3411 126.96 68.6512 127.16 68.8412C127.34 69.0212 127.68 69.0412 127.86 68.8412C128.97 67.6412 129.93 66.2411 131.27 65.2911C131.49 65.1411 131.59 64.8611 131.45 64.6111C131.33 64.3911 130.99 64.2712 130.77 64.4312Z" fill="#E3B9BF"/>
<path d="M126.68 64.4711C125.39 65.6811 124.27 67.0511 123.08 68.3511C122.9 68.5511 122.89 68.8611 123.08 69.0511C123.26 69.2311 123.6 69.2511 123.78 69.0511C124.98 67.7511 126.1 66.3811 127.38 65.1711C127.85 64.7311 127.15 64.0311 126.68 64.4711Z" fill="#E3B9BF"/>
<path d="M121.76 65.8011C121.3 66.2311 120.83 66.6611 120.41 67.1311C119.98 67.6111 119.6 68.1311 119.26 68.6711C119.12 68.8911 119.21 69.2311 119.44 69.3511C119.69 69.4811 119.97 69.4111 120.12 69.1711C120.3 68.8911 120.48 68.6211 120.68 68.3611C120.7 68.3311 120.72 68.3111 120.74 68.2811C120.76 68.2511 120.76 68.2611 120.72 68.3111C120.73 68.3011 120.74 68.2811 120.75 68.2711C120.79 68.2211 120.83 68.1711 120.88 68.1111C120.97 68.0011 121.06 67.9011 121.15 67.8011C121.57 67.3411 122.02 66.9211 122.48 66.4911C122.67 66.3111 122.67 65.9711 122.48 65.7911C122.26 65.6111 121.96 65.6111 121.76 65.8011Z" fill="#E3B9BF"/>
<path d="M0.489807 86.4212C7.22981 85.6812 13.9898 85.1612 20.7598 84.7912C27.4898 84.4212 34.2498 84.0712 40.9898 84.1512C47.6998 84.2312 54.4298 84.5912 61.1098 83.8612C66.4998 83.2712 71.8598 81.9512 77.0398 80.3612C82.6598 78.6412 88.3498 76.4912 93.2198 73.1412C93.7398 72.7812 93.2498 71.9212 92.7198 72.2812C88.4098 75.2512 83.4498 77.2312 78.4998 78.8512C73.4698 80.5012 68.2498 81.8612 62.9998 82.6212C56.4398 83.5712 49.7698 83.3112 43.1598 83.1912C36.4998 83.0712 29.8498 83.3412 23.1998 83.6712C15.6198 84.0512 8.03981 84.6012 0.489807 85.4312C-0.140193 85.5012 -0.150193 86.4912 0.489807 86.4212Z" fill="#E3B9BF"/>
<path d="M35.3098 83.6912C32.5598 87.7212 27.7398 89.2612 23.0698 89.5412C17.8998 89.8512 12.6898 88.9312 7.70981 87.6312C5.31981 87.0112 2.95981 86.2712 0.629809 85.4612C0.699809 85.7412 0.77981 86.0112 0.84981 86.2912C2.35981 84.9912 4.2098 84.0812 6.0298 83.3012C8.4398 82.2712 10.9598 81.5112 13.4998 80.9212C18.6098 79.7412 24.2398 79.1212 29.3898 80.4112C31.7698 81.0012 34.0598 82.0912 35.6198 84.0512C36.0198 84.5512 36.7098 83.8412 36.3198 83.3512C33.2398 79.4712 27.6098 78.7112 22.9898 78.7512C17.3998 78.8012 11.6898 79.9812 6.4998 82.0512C4.2598 82.9412 1.99981 84.0112 0.149813 85.5912C-0.150187 85.8512 0.0397991 86.3112 0.369799 86.4212C4.9898 88.0412 9.7398 89.3612 14.5898 90.0712C19.6298 90.8112 25.1498 91.0612 29.9598 89.1112C32.4798 88.0912 34.6398 86.4512 36.1798 84.2012C36.5198 83.6612 35.6598 83.1612 35.3098 83.6912Z" fill="#E3B9BF"/>
<path d="M23.2498 90.0012C24.8098 88.2012 25.9898 86.1012 27.6698 84.3912C28.1198 83.9312 27.4198 83.2312 26.9698 83.6912C25.2898 85.3912 24.1098 87.4912 22.5498 89.3012C22.1298 89.7812 22.8298 90.4912 23.2498 90.0012Z" fill="#E3B9BF"/>
<path d="M17.2598 90.4212C18.9698 88.6912 20.5798 86.8612 22.1798 85.0212C22.5998 84.5412 21.8998 83.8412 21.4798 84.3212C19.8798 86.1612 18.2798 87.9912 16.5598 89.7212C16.1098 90.1712 16.8098 90.8812 17.2598 90.4212Z" fill="#E3B9BF"/>
<path d="M11.6498 89.3712C12.8798 87.9512 14.2298 86.6312 15.7098 85.4812C15.9198 85.3212 15.8798 84.9512 15.7098 84.7812C15.4998 84.5712 15.2198 84.6212 15.0098 84.7812C13.5198 85.9312 12.1798 87.2612 10.9498 88.6712C10.7698 88.8712 10.7498 89.1712 10.9498 89.3712C11.1198 89.5512 11.4698 89.5712 11.6498 89.3712Z" fill="#E3B9BF"/>
<path d="M15.5698 84.2212C13.9798 83.1212 12.5698 81.7912 10.9898 80.6912C10.7698 80.5412 10.4398 80.6512 10.3098 80.8712C10.1698 81.1212 10.2698 81.4012 10.4898 81.5512C12.0698 82.6512 13.4798 83.9812 15.0698 85.0812C15.2898 85.2312 15.6198 85.1212 15.7498 84.9012C15.8898 84.6512 15.7898 84.3712 15.5698 84.2212Z" fill="#E3B9BF"/>
<path d="M21.2598 84.0112C20.3798 82.3212 19.0498 80.9412 17.7498 79.5812C17.3098 79.1212 16.6098 79.8212 17.0498 80.2812C18.2998 81.5812 19.5698 82.9012 20.4098 84.5112C20.6998 85.0812 21.5498 84.5712 21.2598 84.0112Z" fill="#E3B9BF"/>
<path d="M27.6698 83.6911C26.3998 82.0511 25.1198 80.4012 23.7198 78.8812C23.2898 78.4112 22.5898 79.1111 23.0198 79.5811C24.4198 81.1111 25.6998 82.7611 26.9698 84.3911C27.1298 84.6011 27.4998 84.5611 27.6698 84.3911C27.8798 84.1911 27.8298 83.9111 27.6698 83.6911Z" fill="#E3B9BF"/>
<path d="M14.2298 115.781C19.9398 114.751 25.7998 114.451 31.3698 112.771C36.6198 111.191 41.7398 108.011 44.5198 103.151C45.9998 100.561 46.7298 97.6412 47.3098 94.7412C47.3598 94.4912 47.2398 94.1812 46.9598 94.1312C41.7898 93.1112 36.4298 94.8912 31.8798 97.2512C26.7498 99.9112 22.0498 103.621 18.2798 107.991C16.4398 110.121 14.7798 112.461 13.6598 115.051C13.4098 115.631 14.2598 116.141 14.5198 115.551C16.5498 110.851 20.2498 106.891 24.1298 103.641C28.3498 100.091 33.2998 97.0712 38.6498 95.6012C41.2598 94.8912 44.0198 94.5612 46.6998 95.0812C46.5798 94.8812 46.4698 94.6712 46.3498 94.4712C45.8398 97.0112 45.2398 99.5712 44.0598 101.891C42.8298 104.321 41.0298 106.171 38.9398 107.871C34.5498 111.441 28.7698 112.621 23.3098 113.441C20.1898 113.911 17.0598 114.261 13.9598 114.821C13.3398 114.941 13.6098 115.901 14.2298 115.781Z" fill="#E3B9BF"/>
<path d="M15.0498 115.451C21.4498 111.331 28.1898 107.771 34.6498 103.751C37.8298 101.771 40.8698 99.6411 43.8598 97.3911C46.4698 95.4311 49.1698 93.5812 51.7298 91.5512C54.6498 89.2312 57.4098 86.6611 59.4598 83.5111C59.8098 82.9711 58.9498 82.4811 58.5998 83.0111C54.9798 88.5711 49.1998 92.2012 43.9698 96.0712C41.0298 98.2512 38.1098 100.391 35.0098 102.341C31.8698 104.321 28.6598 106.181 25.4498 108.031C21.7798 110.151 18.0998 112.281 14.5398 114.581C14.0198 114.931 14.5098 115.791 15.0498 115.451Z" fill="#E3B9BF"/>
<path d="M27.0398 107.141C24.2798 107.191 21.5198 107.231 18.7698 107.421C18.1398 107.461 18.1298 108.461 18.7698 108.411C21.5198 108.221 24.2898 108.181 27.0398 108.131C27.6798 108.121 27.6798 107.131 27.0398 107.141Z" fill="#E3B9BF"/>
<path d="M35.5698 101.751C32.0398 101.761 28.4998 101.531 24.9798 101.771C24.3498 101.811 24.3398 102.811 24.9798 102.761C28.5098 102.521 32.0398 102.751 35.5698 102.741C36.2098 102.741 36.2098 101.751 35.5698 101.751Z" fill="#E3B9BF"/>
<path d="M27.0598 108.101C27.1798 109.781 27.2998 111.451 27.4098 113.131C27.4298 113.401 27.6198 113.631 27.9098 113.631C28.1598 113.631 28.4198 113.401 28.4098 113.131C28.2898 111.451 28.1798 109.781 28.0598 108.101C28.0398 107.831 27.8498 107.601 27.5598 107.601C27.3098 107.611 27.0398 107.831 27.0598 108.101Z" fill="#E3B9BF"/>
<path d="M34.9098 103.111C35.2798 105.471 34.7598 107.831 34.9198 110.201C34.9598 110.831 35.9498 110.841 35.9098 110.201C35.7498 107.741 36.2498 105.311 35.8698 102.851C35.8298 102.581 35.4998 102.441 35.2598 102.501C34.9698 102.581 34.8698 102.851 34.9098 103.111Z" fill="#E3B9BF"/>
<path d="M61.3098 82.6211C60.1798 82.7811 59.0798 82.2111 58.1798 81.5811C56.9398 80.7111 55.8898 79.5711 54.9098 78.4311C52.7198 75.8811 50.8698 73.0712 48.7498 70.4712C47.8498 69.3612 46.8898 68.2311 45.6898 67.4211C45.1598 67.0611 44.6598 67.9212 45.1898 68.2812C46.2598 69.0012 47.1198 70.0311 47.9198 71.0211C48.9998 72.3411 49.9998 73.7211 51.0198 75.0911C52.9698 77.7011 54.9698 80.5512 57.6698 82.4412C58.8198 83.2512 60.1398 83.7811 61.5598 83.5811C62.1998 83.4911 61.9298 82.5311 61.3098 82.6211Z" fill="#E3B9BF"/>
<path d="M45.3498 67.8512C41.5898 68.5212 37.7598 67.9412 34.4098 66.0912C31.1698 64.3012 28.5398 61.5612 26.4998 58.5112C25.2898 56.7112 24.2798 54.7912 23.4198 52.8112C23.2798 53.0612 23.1298 53.3112 22.9898 53.5612C26.7698 53.3112 30.6198 54.0412 34.1298 55.4112C37.6798 56.8012 41.1698 59.0312 43.2298 62.3212C44.3698 64.1412 44.9698 66.2012 44.9898 68.3412C44.9998 68.9812 45.9898 68.9812 45.9798 68.3412C45.9098 59.6112 37.1498 54.5412 29.5298 53.0412C27.3798 52.6212 25.1798 52.4212 22.9898 52.5612C22.5898 52.5912 22.4098 52.9512 22.5598 53.3112C25.5798 60.2812 30.9998 67.2012 38.8298 68.7812C41.0798 69.2412 43.3698 69.2112 45.6198 68.8112C46.2398 68.6912 45.9698 67.7412 45.3498 67.8512Z" fill="#E3B9BF"/>
<path d="M45.4898 67.9212C39.1898 64.7212 34.5898 59.1512 28.6598 55.3912C26.9898 54.3412 25.2298 53.4512 23.3698 52.7912C22.7698 52.5812 22.5098 53.5412 23.1098 53.7512C29.7698 56.1012 34.5598 61.5212 40.0798 65.6612C41.6398 66.8312 43.2598 67.8912 44.9998 68.7712C45.5498 69.0612 46.0598 68.2112 45.4898 67.9212Z" fill="#E3B9BF"/>
<path d="M40.6698 64.8512C40.5298 62.7512 40.8598 60.6712 40.9498 58.5712C40.9798 57.9312 39.9898 57.9312 39.9598 58.5712C39.8698 60.6612 39.5398 62.7512 39.6798 64.8512C39.7198 65.4812 40.7098 65.4812 40.6698 64.8512Z" fill="#E3B9BF"/>
<path d="M34.8198 60.4412C34.7198 58.7212 35.5298 57.0712 35.4298 55.3412C35.3898 54.7112 34.3998 54.7012 34.4398 55.3412C34.5398 57.0612 33.7298 58.7112 33.8298 60.4412C33.8698 61.0812 34.8598 61.0812 34.8198 60.4412Z" fill="#E3B9BF"/>
<path d="M34.3298 59.9512C32.4098 60.0912 30.5198 60.4512 28.5998 60.5912C27.9698 60.6412 27.9598 61.6312 28.5998 61.5812C30.5198 61.4412 32.4098 61.0812 34.3298 60.9412C34.9598 60.8912 34.9698 59.9012 34.3298 59.9512Z" fill="#E3B9BF"/>
<path d="M40.1698 64.3512C37.9498 64.5112 35.7598 65.0012 33.5398 65.1612C32.9098 65.2112 32.8998 66.2012 33.5398 66.1512C35.7598 65.9912 37.9498 65.5012 40.1698 65.3412C40.8098 65.3012 40.8098 64.3012 40.1698 64.3512Z" fill="#E3B9BF"/>
<path d="M86.4998 76.1112C79.5898 73.0412 72.8998 69.4412 66.7198 65.0812C60.4098 60.6312 54.7298 55.4112 50.0998 49.2112C48.8798 47.5712 47.6898 45.9212 46.9198 44.0212C46.2698 42.4112 45.6998 40.7412 44.5398 39.4112C44.1198 38.9312 43.4198 39.6312 43.8398 40.1112C44.9098 41.3512 45.4198 42.9712 46.0298 44.4612C46.6898 46.0612 47.5998 47.4512 48.6098 48.8512C50.8798 52.0012 53.3898 54.9712 56.1598 57.6712C61.5798 62.9612 67.8398 67.3812 74.4098 71.1312C78.1698 73.2812 82.0398 75.2012 85.9998 76.9612C86.5798 77.2312 87.0898 76.3712 86.4998 76.1112Z" fill="#E3B9BF"/>
<path d="M62.7598 62.9212C64.2798 61.6112 65.2698 59.8112 65.0198 57.7612C64.7898 55.8512 63.7198 54.1612 62.5198 52.7112C61.1998 51.1112 59.6298 49.7412 57.9898 48.4812C56.0898 47.0312 54.1898 45.5812 52.2198 44.2312C49.6998 42.5012 47.0998 40.8612 44.4498 39.3412C44.1998 39.2012 43.7698 39.3112 43.7198 39.6412C43.0498 44.0612 44.5698 48.8112 46.4398 52.7612C48.4098 56.9312 51.4498 61.3512 55.8098 63.2712C58.0498 64.2512 60.5098 64.3712 62.8098 63.5112C63.3998 63.2912 63.1498 62.3312 62.5498 62.5512C58.3598 64.1212 54.4298 61.9512 51.6198 58.8712C48.4898 55.4412 46.3498 50.9712 45.2398 46.4812C44.7098 44.3612 44.3598 42.0812 44.6898 39.9012C44.4498 40.0012 44.1998 40.1012 43.9598 40.2012C46.1198 41.4412 48.2398 42.7512 50.3098 44.1312C52.4198 45.5312 54.3998 47.0612 56.4398 48.5612C57.8998 49.6312 59.3098 50.7512 60.5898 52.0412C61.8998 53.3612 63.1698 54.9012 63.7798 56.6912C64.5098 58.8512 63.7698 60.7612 62.0798 62.2212C61.5698 62.6312 62.2698 63.3312 62.7598 62.9212Z" fill="#E3B9BF"/>
<path d="M51.7398 60.4212C54.3398 60.9812 56.9798 60.3012 59.5898 60.6212C59.8598 60.6512 60.0798 60.3712 60.0898 60.1212C60.0898 59.8312 59.8598 59.6612 59.5898 59.6212C57.0698 59.3212 54.4998 60.0012 51.9998 59.4612C51.3798 59.3212 51.1098 60.2812 51.7398 60.4212Z" fill="#E3B9BF"/>
<path d="M60.0798 60.1212C60.0998 57.1012 60.8498 54.1512 60.6598 51.1312C60.6198 50.5012 59.6298 50.4912 59.6698 51.1312C59.8698 54.1512 59.1098 57.1112 59.0898 60.1212C59.0898 60.7512 60.0798 60.7612 60.0798 60.1212Z" fill="#E3B9BF"/>
<path d="M48.6398 55.6012C50.5298 55.7012 52.4398 55.5812 54.3098 55.9012C54.5698 55.9512 54.8398 55.8311 54.9198 55.5511C54.9898 55.3111 54.8398 54.9912 54.5698 54.9412C52.6098 54.6012 50.6198 54.7111 48.6398 54.6111C47.9998 54.5811 47.9998 55.5712 48.6398 55.6012Z" fill="#E3B9BF"/>
<path d="M54.9398 55.4212C54.7298 52.4612 54.5298 49.5112 54.3198 46.5512C54.2798 45.9212 53.2798 45.9112 53.3298 46.5512C53.5398 49.5112 53.7398 52.4612 53.9498 55.4212C53.9898 56.0612 54.9798 56.0612 54.9398 55.4212Z" fill="#E3B9BF"/>
<path d="M45.0798 49.5112C46.6398 50.2912 48.4498 50.1512 50.0898 50.6612C50.6998 50.8512 50.9598 49.8912 50.3498 49.7012C49.5698 49.4612 48.7498 49.3712 47.9498 49.2412C47.1598 49.1112 46.2598 48.9812 45.5798 48.6412C45.3398 48.5212 45.0398 48.5812 44.8998 48.8212C44.7698 49.0512 44.8398 49.3912 45.0798 49.5112Z" fill="#E3B9BF"/>
<path d="M50.6998 50.0512C50.0198 47.7212 49.8898 45.2412 49.7198 42.8312C49.6798 42.2012 48.6798 42.1912 48.7298 42.8312C48.9098 45.3312 49.0398 47.9012 49.7498 50.3112C49.9198 50.9212 50.8798 50.6612 50.6998 50.0512Z" fill="#E3B9BF"/>
<path d="M44.3398 119.451C47.7198 118.201 50.4898 115.781 52.9698 113.221C55.5498 110.561 57.8498 107.631 60.4898 105.021C62.0898 103.441 63.8098 101.981 65.4398 100.431C67.1498 98.7912 68.8298 97.1212 70.4498 95.3912C71.9098 93.8312 73.3198 92.2312 74.5598 90.4912C75.6498 88.9612 76.6498 87.3512 77.6698 85.7712C79.9398 82.2412 82.4498 78.9212 86.2798 76.9912C86.8498 76.7012 86.3498 75.8512 85.7798 76.1312C78.8498 79.6312 76.3198 87.3512 71.4098 92.8712C68.2898 96.3712 64.9198 99.6412 61.4498 102.791C58.6798 105.311 56.2998 108.161 53.7798 110.921C51.0398 113.931 47.9898 117.051 44.0898 118.491C43.4798 118.721 43.7398 119.681 44.3398 119.451Z" fill="#E3B9BF"/>
<path d="M44.2098 119.471C49.3998 119.271 54.5098 117.701 58.7798 114.711C62.7698 111.911 65.9098 108.011 67.7898 103.521C68.8898 100.901 69.5298 98.1312 69.7698 95.3112C69.8198 94.6712 68.8298 94.6812 68.7798 95.3112C67.9798 104.931 61.7198 113.451 52.6398 116.831C49.9398 117.831 47.0898 118.371 44.2098 118.481C43.5698 118.501 43.5698 119.501 44.2098 119.471Z" fill="#E3B9BF"/>
<path d="M44.6398 119.231C47.2098 115.391 49.4698 111.341 52.1198 107.551C54.7498 103.791 57.8398 100.071 61.9098 97.8112C64.1798 96.5512 66.6898 95.8612 69.2798 95.8112C69.9198 95.8012 69.9198 94.8112 69.2798 94.8212C59.0998 95.0012 52.8398 104.281 47.9998 112.041C46.5998 114.281 45.2498 116.541 43.7798 118.731C43.4198 119.261 44.2798 119.751 44.6398 119.231Z" fill="#E3B9BF"/>
<path d="M64.5398 99.4812C62.2998 99.6412 60.0698 99.7912 57.8298 99.9512C57.1998 99.9912 57.1898 100.991 57.8298 100.941C60.0698 100.781 62.2998 100.631 64.5398 100.471C65.1798 100.421 65.1798 99.4312 64.5398 99.4812Z" fill="#E3B9BF"/>
<path d="M64.6498 108.191C64.4698 105.521 64.6298 102.761 65.0198 100.111C65.1098 99.4911 64.1598 99.2212 64.0598 99.8512C63.6598 102.591 63.4698 105.431 63.6598 108.201C63.6998 108.821 64.6998 108.821 64.6498 108.191Z" fill="#E3B9BF"/>
<path d="M57.9998 105.711C55.9998 105.851 54.0098 105.991 52.0098 106.131C51.3798 106.171 51.3698 107.171 52.0098 107.121C54.0098 106.981 55.9998 106.841 57.9998 106.701C58.6398 106.661 58.6398 105.671 57.9998 105.711Z" fill="#E3B9BF"/>
<path d="M59.0198 113.641C58.8698 111.381 59.4098 109.141 59.2698 106.881C59.2298 106.251 58.2398 106.241 58.2798 106.881C58.4298 109.141 57.8898 111.381 58.0298 113.641C58.0698 114.271 59.0598 114.281 59.0198 113.641Z" fill="#E3B9BF"/>
<path d="M52.4898 116.741C52.4198 115.711 52.4198 114.601 52.0998 113.611C51.9698 113.201 51.7598 112.781 51.4298 112.491C51.0598 112.161 50.5998 112.011 50.0998 111.991C49.3798 111.961 48.6398 112.191 47.9798 112.451C47.7298 112.551 47.5598 112.781 47.6298 113.061C47.6998 113.301 47.9898 113.501 48.2398 113.411C48.5498 113.291 48.8698 113.181 49.1898 113.101C49.3198 113.071 49.4598 113.041 49.5998 113.021C49.6098 113.021 49.7098 113.001 49.6498 113.011C49.5898 113.021 49.6798 113.011 49.6898 113.011C49.7598 113.001 49.8298 113.001 49.8998 113.001C49.9998 113.001 50.0998 113.001 50.1998 113.011C50.3198 113.021 50.1198 112.991 50.2598 113.021C50.3098 113.031 50.3598 113.041 50.3998 113.051C50.4398 113.061 50.4798 113.081 50.5198 113.091C50.6298 113.121 50.4398 113.041 50.5498 113.101C50.5798 113.121 50.6198 113.141 50.6498 113.161C50.6898 113.181 50.7998 113.281 50.6898 113.181C50.7498 113.231 50.7998 113.281 50.8598 113.341C50.8898 113.371 50.9398 113.471 50.8698 113.351C50.8998 113.391 50.9298 113.431 50.9498 113.471C50.9898 113.541 51.0298 113.611 51.0698 113.691C51.1298 113.811 51.0598 113.641 51.0798 113.721C51.0998 113.771 51.1198 113.821 51.1398 113.871C51.1998 114.061 51.2498 114.261 51.2898 114.461C51.3098 114.561 51.3298 114.661 51.3398 114.761C51.3398 114.791 51.3498 114.811 51.3498 114.841C51.3298 114.731 51.3498 114.821 51.3498 114.851C51.3598 114.911 51.3598 114.971 51.3698 115.031C51.4298 115.611 51.4598 116.191 51.4998 116.771C51.5198 117.041 51.7098 117.271 51.9998 117.271C52.2498 117.241 52.5098 117.011 52.4898 116.741Z" fill="#E3B9BF"/>
<path d="M81.1398 80.7512C80.2798 80.7612 79.4098 80.4812 78.6098 80.1812C77.5098 79.7612 76.4498 79.2212 75.4498 78.6112C73.5798 77.4712 71.4798 75.9712 70.4998 73.9512C70.1698 73.2812 70.0298 72.5012 70.3898 71.8112C70.8998 70.8512 72.1098 70.3112 73.0998 70.0112C75.6498 69.2412 77.4698 71.4112 78.5598 73.4212C79.9698 76.0212 80.7498 78.9812 81.3098 81.8712C81.4298 82.5012 82.3897 82.2312 82.2697 81.6112C81.7297 78.7812 80.9498 75.9212 79.6398 73.3412C78.4798 71.0412 76.4798 68.4912 73.5998 68.8912C71.4098 69.1912 68.7798 70.8212 69.2598 73.3412C69.6998 75.6612 72.0198 77.4812 73.8398 78.7412C75.0698 79.5912 76.3897 80.3312 77.7697 80.9112C78.8297 81.3512 79.9898 81.7712 81.1498 81.7612C81.7798 81.7312 81.7798 80.7412 81.1398 80.7512Z" fill="#E3B9BF"/>
<path d="M82.0798 81.7512C80.0098 78.5912 77.3897 75.8912 74.8997 73.0812C74.4797 72.6012 73.7798 73.3112 74.1998 73.7812C76.6398 76.5312 79.2098 79.1712 81.2298 82.2512C81.5798 82.7912 82.4398 82.2912 82.0798 81.7512Z" fill="#E3B9BF"/>
<path d="M82.4598 82.9112C80.6898 81.4012 77.9998 80.9412 75.7698 80.6712C73.1398 80.3512 70.1898 80.3312 67.7098 81.4112C66.7598 81.8212 65.8398 82.4612 65.3598 83.4112C64.8298 84.4612 64.8998 85.6612 65.2798 86.7412C65.7798 88.2012 66.6998 89.5312 68.1598 90.1412C69.6398 90.7712 71.3298 90.5912 72.8298 90.1512C74.7698 89.5912 76.5898 88.5912 78.2598 87.4812C79.7298 86.4912 81.1598 85.3912 82.3898 84.1012C82.8298 83.6412 82.1298 82.9412 81.6898 83.4012C79.5998 85.5712 76.9498 87.4112 74.1898 88.6112C72.8198 89.2012 71.2798 89.6812 69.7698 89.5412C68.3098 89.4012 67.2098 88.5412 66.5698 87.2512C66.1098 86.3312 65.7598 85.2012 66.1098 84.1812C66.3998 83.3512 67.1198 82.7912 67.8898 82.4112C69.9998 81.3712 72.6298 81.3812 74.9198 81.5712C76.2998 81.6912 77.6698 81.9212 78.9898 82.3112C79.9498 82.5912 80.9898 82.9412 81.7598 83.6012C82.2398 84.0312 82.9398 83.3312 82.4598 82.9112Z" fill="#E3B9BF"/>
<path d="M82.1798 82.9812C78.7998 83.2612 75.3998 83.5412 72.0698 84.2212C71.4398 84.3512 71.7098 85.3012 72.3298 85.1812C75.5698 84.5212 78.8798 84.2612 82.1698 83.9812C82.8098 83.9212 82.8198 82.9212 82.1798 82.9812Z" fill="#E3B9BF"/>
<path d="M82.0998 82.8612C80.8098 84.7312 80.2998 87.2712 79.8998 89.4612C79.4298 92.0612 79.1098 94.9212 79.7198 97.5312C79.9398 98.4612 80.3298 99.4212 81.0798 100.041C81.8598 100.681 82.8798 100.751 83.8198 100.491C85.1398 100.121 86.6498 99.2212 87.4798 98.1312C88.4698 96.8112 88.5698 95.0612 88.3598 93.4912C88.0698 91.2812 87.2298 89.1512 86.2198 87.1712C85.3298 85.4312 84.2698 83.7112 82.9198 82.2812C82.4798 81.8212 81.7798 82.5212 82.2198 82.9812C83.2998 84.1212 84.1698 85.4812 84.9298 86.8512C85.8298 88.4712 86.5798 90.1812 87.0498 91.9712C87.4398 93.4612 87.7098 95.1612 87.1698 96.6512C86.6898 97.9512 85.3598 98.8112 84.1298 99.3412C79.3598 101.371 80.3798 92.5612 80.7698 90.2212C80.9998 88.8412 81.3098 87.4812 81.7298 86.1512C82.0298 85.1912 82.3798 84.2012 82.9498 83.3712C83.3198 82.8412 82.4598 82.3412 82.0998 82.8612Z" fill="#E3B9BF"/>
<path d="M81.7698 83.1112C82.3698 86.0212 82.9398 88.9412 83.2998 91.8912C83.3798 92.5212 84.3698 92.5212 84.2898 91.8912C83.9198 88.8512 83.3398 85.8512 82.7298 82.8512C82.5898 82.2212 81.6398 82.4812 81.7698 83.1112Z" fill="#E3B9BF"/>
<path d="M82.0798 82.0512C84.2498 82.4312 86.4997 82.0112 88.6597 81.8412C90.8097 81.6712 93.3797 81.4712 95.2797 82.7112C96.2197 83.3212 97.0098 84.4512 97.0998 85.5912C97.1998 86.7112 96.3297 87.3912 95.3397 87.6712C93.9897 88.0512 92.5798 87.7812 91.2598 87.4012C89.6198 86.9312 87.9197 86.2212 86.5197 85.2512C85.6197 84.6312 84.9097 83.6912 84.1497 82.9212C83.5797 82.3412 82.6998 81.2312 81.7898 81.2412C81.1498 81.2512 81.1498 82.2412 81.7898 82.2312C82.0298 82.2312 82.4497 82.6612 82.6497 82.8412C83.0897 83.2412 83.4998 83.6812 83.9198 84.1112C84.6898 84.9212 85.4298 85.7612 86.3898 86.3412C87.9898 87.2912 89.7297 88.0612 91.5297 88.5112C92.8797 88.8512 94.3098 89.0212 95.6698 88.6212C96.6998 88.3212 97.6697 87.6512 97.9897 86.5812C98.3497 85.3512 97.7597 83.9812 97.0197 83.0112C95.5097 81.0612 92.8997 80.7212 90.5897 80.7612C89.1197 80.7812 87.6598 80.9512 86.1998 81.0812C84.9298 81.1912 83.5997 81.3212 82.3397 81.1012C81.7197 80.9812 81.4498 81.9412 82.0798 82.0512Z" fill="#E3B9BF"/>
<path d="M81.5798 82.2911C85.2298 82.6511 88.5597 84.4011 92.1497 85.0511C92.7697 85.1611 93.0398 84.2112 92.4098 84.0912C88.7298 83.4212 85.3198 81.6611 81.5798 81.2911C80.9398 81.2411 80.9498 82.2311 81.5798 82.2911Z" fill="#E3B9BF"/>
<path d="M82.4198 81.4412C82.1798 79.1612 81.7298 76.9112 81.5798 74.6212C81.4398 72.4812 81.2898 69.5812 83.3398 68.2412C85.4698 66.8512 88.2598 68.2212 89.0698 70.4812C89.8298 72.6112 88.4198 74.7512 87.1398 76.3512C85.5298 78.3712 83.4598 80.1212 82.1598 82.3712C81.8398 82.9212 82.6998 83.4312 83.0198 82.8712C84.3098 80.6212 86.3998 78.8912 87.9898 76.8612C89.4198 75.0312 90.8498 72.6812 90.0498 70.2812C89.2298 67.8312 86.5998 66.1312 84.0298 66.8512C81.3898 67.5912 80.6098 70.1912 80.5498 72.6412C80.4798 75.6112 81.1298 78.5012 81.4398 81.4412C81.4898 82.0612 82.4798 82.0712 82.4198 81.4412Z" fill="#E3B9BF"/>
<path d="M82.6398 82.9012C83.7698 80.1012 84.3498 77.1012 85.6298 74.3512C85.8998 73.7712 85.0398 73.2712 84.7698 73.8512C83.4498 76.6812 82.8498 79.7512 81.6798 82.6312C81.4498 83.2312 82.4098 83.4912 82.6398 82.9012Z" fill="#E3B9BF"/>
<path d="M99.3998 70.4212C100.13 71.1412 100.63 72.1012 101.06 73.0212C101.65 74.2812 102.09 75.6212 102.44 76.9712C103.15 79.6712 103.65 82.6812 103.12 85.4512C102.93 86.4412 102.6 87.4912 101.84 88.2012C101.1 88.8912 100.08 89.0012 99.1198 88.8312C97.5598 88.5512 95.7998 87.7712 94.8898 86.4212C93.8898 84.9312 93.9198 83.0112 94.2498 81.3112C95.0898 76.9512 97.5498 72.8812 100.04 69.2812C100.4 68.7512 99.5398 68.2612 99.1798 68.7812C96.7598 72.2812 94.4498 76.1712 93.4398 80.3412C92.9898 82.2012 92.7998 84.2712 93.5698 86.0812C94.3398 87.8612 95.9598 88.8812 97.7298 89.4912C98.9598 89.9212 100.37 90.1112 101.59 89.5412C102.63 89.0512 103.3 88.0812 103.7 87.0312C104.75 84.2612 104.31 80.9212 103.71 78.1012C103.35 76.4012 102.85 74.7212 102.17 73.1212C101.66 71.9112 101.04 70.6512 100.09 69.7112C99.6398 69.2612 98.9398 69.9712 99.3998 70.4212Z" fill="#E3B9BF"/>
<path d="M99.5098 68.7612C98.4698 73.5412 98.3398 78.4212 98.0098 83.2812C97.9698 83.9212 98.9598 83.9112 98.9998 83.2812C99.3298 78.5112 99.4398 73.7212 100.46 69.0312C100.6 68.4112 99.6498 68.1412 99.5098 68.7612Z" fill="#E3B9BF"/>
<path d="M100.25 67.3312C100.35 68.8112 100.98 70.2312 101.66 71.5212C102.57 73.2512 103.7 74.8611 104.95 76.3611C106.21 77.8811 107.61 79.2812 109.19 80.4712C110.52 81.4812 112.06 82.4012 113.73 82.6812C115.21 82.9312 116.67 82.6112 117.79 81.5812C119.1 80.3812 119.91 78.4412 120.07 76.6912C120.43 72.7912 116.92 70.2712 113.74 68.9112C109.89 67.2612 105.45 66.3812 101.26 66.4312C100.62 66.4412 100.62 67.4311 101.26 67.4211C104.71 67.3811 108.27 68.0312 111.53 69.1212C114.45 70.1012 118.33 71.8412 119.02 75.2212C119.35 76.8712 118.73 78.7012 117.8 80.0512C117.05 81.1512 115.92 81.8111 114.57 81.7611C113.1 81.7111 111.69 80.9711 110.49 80.1711C108.97 79.1511 107.62 77.8812 106.4 76.5212C105.05 75.0112 103.83 73.3612 102.84 71.6012C102.11 70.3112 101.35 68.8212 101.25 67.3112C101.2 66.7012 100.2 66.6912 100.25 67.3312Z" fill="#E3B9BF"/>
<path d="M100.52 67.4211C103.85 70.2811 107.18 73.1812 110.83 75.6412C111.36 76.0012 111.86 75.1412 111.33 74.7812C107.75 72.3712 104.49 69.5312 101.22 66.7212C100.74 66.3112 100.04 67.0011 100.52 67.4211Z" fill="#E3B9BF"/>
<path d="M100.36 67.5612C101.69 67.3312 102.97 66.7312 104.17 66.1312C105.82 65.3112 107.4 64.3412 108.91 63.2812C110.49 62.1712 112.02 60.9611 113.4 59.6111C114.56 58.4711 115.7 57.2012 116.44 55.7412C116.99 54.6412 117.35 53.3411 116.89 52.1411C116.36 50.7511 114.96 49.9911 113.63 49.5411C111.79 48.9211 109.8 48.6011 107.98 49.4511C106.16 50.3011 104.79 51.9412 103.72 53.5912C102.28 55.8012 101.26 58.3012 100.48 60.8112C99.8198 62.9612 99.2998 65.2112 99.2198 67.4712C99.1998 68.1112 100.19 68.1112 100.21 67.4712C100.27 65.6312 100.67 63.8111 101.15 62.0411C101.74 59.9011 102.53 57.7912 103.56 55.8212C104.47 54.0912 105.58 52.3711 107.12 51.1411C107.78 50.6111 108.54 50.1912 109.37 50.0012C110.25 49.8012 111.13 49.9512 112 50.1312C113.32 50.4112 114.98 50.8712 115.75 52.0912C116.3 52.9612 116.11 54.0311 115.72 54.9211C115.12 56.2811 114.12 57.4512 113.09 58.4912C111.85 59.7612 110.48 60.9012 109.04 61.9412C107.46 63.0912 105.8 64.1411 104.07 65.0411C102.82 65.6911 101.48 66.3411 100.08 66.5811C99.4598 66.7111 99.7298 67.6712 100.36 67.5612Z" fill="#E3B9BF"/>
<path d="M100.78 67.7212C102.94 64.5012 105.13 61.3012 107.56 58.2712C107.96 57.7812 107.26 57.0712 106.86 57.5712C104.38 60.6612 102.14 63.9312 99.9298 67.2212C99.5698 67.7512 100.43 68.2512 100.78 67.7212Z" fill="#E3B9BF"/>
<path d="M99.5098 68.5312C97.8598 66.1312 95.3398 64.4012 93.1798 62.5012C91.0498 60.6312 88.4398 58.3111 88.0398 55.3311C87.8498 53.8911 88.2498 52.1011 89.2998 51.0411C90.2398 50.0911 91.5698 50.2312 92.6698 50.8112C94.1698 51.6012 95.1998 52.9611 96.0398 54.3911C97.2398 56.4411 98.0798 58.6812 98.6198 60.9912C98.9698 62.4612 98.7498 64.0511 98.7098 65.5411C98.6898 66.3311 98.6698 67.1311 98.7498 67.9211C98.7998 68.4211 98.8698 69.0112 99.2498 69.3712C99.7098 69.8112 100.41 69.1111 99.9498 68.6711C99.6998 68.4311 99.7098 67.7012 99.6998 67.3412C99.6598 66.5412 99.6898 65.7411 99.7198 64.9511C99.7698 63.5011 99.8898 62.0412 99.5498 60.6212C98.9798 58.2412 98.0798 55.9111 96.8398 53.8011C95.9598 52.3111 94.8698 50.9211 93.3498 50.0511C92.1798 49.3811 90.7298 49.0611 89.4698 49.7011C88.0498 50.4211 87.3198 52.1411 87.0898 53.6411C86.5998 56.8211 88.6498 59.5412 90.7998 61.6512C92.1798 63.0112 93.6898 64.2211 95.1498 65.4811C96.3998 66.5611 97.7198 67.6611 98.6598 69.0411C99.0098 69.5511 99.8698 69.0612 99.5098 68.5312Z" fill="#E3B9BF"/>
<path d="M100.21 68.8111C97.2097 65.0911 95.7997 60.3911 93.1197 56.4611C92.7597 55.9411 91.8998 56.4311 92.2598 56.9611C94.9898 60.9711 96.4398 65.7211 99.4998 69.5111C99.9098 70.0111 100.61 69.3011 100.21 68.8111Z" fill="#E3B9BF"/>
<path d="M98.8698 68.8212C96.7998 71.3212 94.9898 74.0212 92.7598 76.4012C90.6298 78.6812 87.5198 81.4212 84.2598 79.4712C81.4798 77.8012 81.0598 73.5912 83.2298 71.2612C85.0498 69.2912 88.0998 68.9412 90.6298 68.7512C93.6698 68.5212 96.8698 68.7512 99.8498 67.9612C100.47 67.8012 100.21 66.8412 99.5898 67.0012C96.7298 67.7612 93.6398 67.5312 90.7098 67.7512C87.9298 67.9612 84.6598 68.3612 82.6198 70.4812C80.2998 72.8812 80.2898 77.0612 82.6498 79.4412C83.9698 80.7812 85.8498 81.3312 87.6898 81.0312C89.2698 80.7712 90.6198 79.7912 91.7898 78.7512C94.8398 76.0712 97.0098 72.6212 99.5798 69.5212C99.9698 69.0312 99.2698 68.3212 98.8698 68.8212Z" fill="#E3B9BF"/>
<path d="M100.1 67.2511C96.4197 68.7711 93.0597 70.9912 89.2997 72.3212C88.6997 72.5312 88.9597 73.4911 89.5597 73.2811C93.3297 71.9511 96.6798 69.7311 100.36 68.2111C100.94 67.9711 100.69 67.0111 100.1 67.2511Z" fill="#E3B9BF"/>
<path d="M104.45 97.0912C104.65 98.1412 104.49 99.2812 104.29 100.311C104.02 101.771 103.58 103.201 103.06 104.591C102.06 107.221 100.66 110.131 98.4198 111.931C97.6598 112.541 96.6898 113.031 95.6898 112.861C94.4198 112.641 93.4898 111.501 92.8398 110.471C91.9598 109.081 91.5598 107.601 92.1198 106.011C92.6598 104.481 93.8598 103.231 95.0798 102.201C98.0898 99.6411 101.86 97.9111 105.52 96.5111C106.11 96.2911 105.85 95.3311 105.26 95.5511C101.7 96.9111 98.1398 98.5611 95.1098 100.901C92.3798 103.011 89.7598 106.241 91.3598 109.841C92.4898 112.381 94.9898 114.841 97.8998 113.431C99.1198 112.841 100.09 111.781 100.9 110.721C101.92 109.381 102.73 107.881 103.4 106.351C104.14 104.661 104.75 102.911 105.14 101.101C105.44 99.7212 105.68 98.2312 105.4 96.8212C105.29 96.2012 104.33 96.4612 104.45 97.0912Z" fill="#E3B9BF"/>
<path d="M105.43 95.7911C101.94 99.0611 99.1398 102.931 96.1898 106.671C95.7998 107.171 96.4998 107.871 96.8898 107.371C99.8498 103.641 102.65 99.7611 106.13 96.4911C106.6 96.0611 105.89 95.3511 105.43 95.7911Z" fill="#E3B9BF"/>
<path d="M106.84 95.0411C106.18 96.1611 105.9 97.4911 105.72 98.7611C105.48 100.471 105.44 102.211 105.55 103.931C105.75 107.281 106.36 111.021 108.28 113.851C109.03 114.951 110.04 115.941 111.36 116.301C112.81 116.701 114.31 116.251 115.57 115.511C117.27 114.511 118.67 113.011 119 111.021C119.33 109.051 118.69 107.071 117.81 105.321C116.64 103.021 114.97 100.971 113.19 99.1211C111.66 97.5411 109.99 96.0512 108.16 94.8212C107.63 94.4612 107.13 95.3211 107.66 95.6811C110.85 97.8211 113.76 100.771 115.87 103.981C117.85 106.981 119.45 111.221 116.13 113.931C115.04 114.821 113.56 115.631 112.1 115.451C110.98 115.321 110.07 114.591 109.4 113.721C107.51 111.291 106.88 107.851 106.61 104.871C106.44 103.051 106.43 101.211 106.63 99.3911C106.78 98.0911 107.02 96.6811 107.69 95.5411C108.03 94.9911 107.17 94.4911 106.84 95.0411Z" fill="#E3B9BF"/>
<path d="M107.04 95.2811C108.14 99.4311 109.22 103.611 110.79 107.611C111.02 108.201 111.98 107.941 111.75 107.351C110.18 103.351 109.09 99.1711 108 95.0211C107.83 94.4011 106.88 94.6611 107.04 95.2811Z" fill="#E3B9BF"/>
<path d="M106.74 95.2212C107.9 95.7512 109.18 96.0012 110.44 96.1912C112.16 96.4412 113.9 96.5611 115.64 96.5611C119.01 96.5811 122.67 96.3411 125.8 94.9811C126.9 94.5011 128.03 93.8011 128.61 92.7111C129.21 91.5811 129 90.3111 128.45 89.2111C128.07 88.4611 127.54 87.7812 126.97 87.1612C126.28 86.4012 125.53 85.6512 124.59 85.2212C122.69 84.3512 120.47 84.6811 118.56 85.3311C115.89 86.2311 113.43 87.7511 111.2 89.4611C109.26 90.9511 107.39 92.6211 105.92 94.5911C105.54 95.1011 106.4 95.6011 106.78 95.0911C107.98 93.4711 109.51 92.0711 111.07 90.8111C112.9 89.3311 114.89 88.0111 117.02 87.0111C118.83 86.1611 120.98 85.4211 123 85.7711C124.78 86.0811 126.15 87.5011 127.13 88.9511C131.06 94.7511 119.75 95.5311 116.48 95.5811C114.67 95.6111 112.84 95.5311 111.04 95.2911C109.77 95.1211 108.38 94.9012 107.23 94.3812C106.66 94.1012 106.16 94.9612 106.74 95.2212Z" fill="#E3B9BF"/>
<path d="M107.01 95.6612C110.61 94.2412 114.22 92.8511 117.92 91.7311C118.53 91.5511 118.27 90.5911 117.66 90.7711C113.96 91.8911 110.35 93.2811 106.75 94.7011C106.16 94.9411 106.42 95.9012 107.01 95.6612Z" fill="#E3B9BF"/>
<path d="M105.6 95.5411C105.6 92.6711 104.51 89.8412 103.81 87.0812C103.12 84.3812 102.3 81.0312 103.66 78.4012C104.35 77.0712 105.81 75.7012 107.36 75.6012C108.83 75.5012 109.79 76.8212 110.24 78.0612C110.9 79.8812 110.76 81.9111 110.47 83.7911C110.3 84.8811 110.05 85.9612 109.73 87.0212C109.48 87.8612 109.23 88.7611 108.81 89.5411C108.14 90.8111 107.15 91.9212 106.32 93.0812C105.75 93.8712 104.69 95.0912 104.9 96.1612C105.03 96.7912 105.98 96.5212 105.86 95.9012C105.81 95.6812 106.19 95.0812 106.35 94.8212C106.72 94.2112 107.14 93.6312 107.56 93.0512C108.32 92.0212 109.23 90.9912 109.77 89.8212C110.69 87.8112 111.23 85.5512 111.51 83.3612C111.76 81.4312 111.83 79.4112 111.1 77.5712C110.59 76.2812 109.65 74.9912 108.22 74.6812C106.57 74.3212 104.91 75.3211 103.81 76.4811C101.63 78.7711 101.77 82.1112 102.31 85.0012C102.67 86.9012 103.22 88.7512 103.72 90.6112C104.15 92.2112 104.6 93.8612 104.6 95.5312C104.61 96.1812 105.61 96.1811 105.6 95.5411Z" fill="#E3B9BF"/>
<path d="M106.03 96.2811C105.67 91.5311 107.14 86.8911 107.16 82.1511C107.16 81.5111 106.17 81.5111 106.17 82.1511C106.15 86.8911 104.68 91.5311 105.04 96.2811C105.09 96.9111 106.08 96.9211 106.03 96.2811Z" fill="#E3B9BF"/>
<path d="M104.87 95.4511C102 96.2711 99.2098 97.3611 96.3098 98.0611C93.5798 98.7211 90.0098 99.4611 87.8498 97.1111C85.6798 94.7411 86.7298 91.0011 89.2598 89.3711C91.8298 87.7211 94.9398 88.9911 97.3598 90.3011C100.32 91.9011 103.02 94.1712 106.21 95.3112C106.81 95.5311 107.07 94.5712 106.47 94.3512C105 93.8212 103.66 92.9812 102.35 92.1612C100.87 91.2412 99.3998 90.2712 97.8598 89.4412C95.2198 88.0212 91.9198 86.7311 89.0598 88.3311C86.2298 89.9111 84.7998 93.5411 86.2598 96.5211C86.9598 97.9511 88.3298 99.0411 89.8598 99.4611C91.3198 99.8511 92.9098 99.6911 94.3798 99.4611C98.0798 98.8711 101.54 97.4312 105.13 96.4112C105.75 96.2312 105.49 95.2811 104.87 95.4511Z" fill="#E3B9BF"/>
<path d="M106.76 94.8512C102.91 94.0312 98.9498 93.9612 95.1398 92.9412C94.5198 92.7712 94.2598 93.7312 94.8798 93.9012C98.6898 94.9212 102.65 94.9912 106.5 95.8112C107.12 95.9412 107.39 94.9812 106.76 94.8512Z" fill="#E3B9BF"/>
</svg>
