<svg width="150" height="117" viewBox="0 0 150 117" fill="none" xmlns="http://www.w3.org/2000/svg">
<path d="M0.711059 103.458C6.64665 101.782 12.8096 101.488 18.8876 100.644C21.8915 100.231 24.8074 99.5982 27.7056 98.7147C30.5236 97.8604 33.3026 96.8858 36.0424 95.8309C41.522 93.711 46.8549 91.2397 52.0994 88.5876C56.9521 86.132 61.8348 83.6766 66.53 80.9394C71.6878 77.9265 76.5607 74.361 80.413 69.7561C80.8175 69.2698 80.124 68.5534 79.7194 69.0497C72.8136 77.2968 62.8506 81.9558 53.476 86.7801C48.221 89.4821 42.8773 92.0433 37.387 94.2431C31.9669 96.4136 26.3681 98.4424 20.5891 99.3895C13.8788 100.488 7.03707 100.645 0.45986 102.495C-0.151762 102.67 0.0994361 103.632 0.711059 103.458Z" fill="#D67993"/>
<path d="M80.3123 69.8352C86.1558 66.1985 91.3386 61.5558 96.0147 56.5384C100.984 51.1937 105.418 45.344 109.274 39.1491C111.132 36.166 112.85 33.0916 114.379 29.9254C115.398 27.8347 116.458 25.6943 117.079 23.4499C118.092 19.799 118.547 15.933 118.732 12.1546C118.819 10.3153 118.836 8.45536 118.623 6.63333C118.484 5.38201 118.287 3.96014 117.547 2.90332C115.543 0.0348523 112.442 4.45665 111.428 5.99742C107.798 11.4444 104.406 17.0836 101.493 22.9372C98.4058 29.1292 95.7669 35.5453 93.1183 41.9313C90.8381 47.4106 88.7071 52.9713 86.3072 58.3996C84.9387 61.5072 83.4106 64.5733 81.286 67.244C80.7903 67.8695 80.2647 68.4747 79.7294 69.0598C79.2951 69.5258 79.9885 70.2422 80.4229 69.7662C85.5139 64.2226 90.2279 58.3455 94.5743 52.205C98.9004 46.0944 102.869 39.7405 106.568 33.2441C108.683 29.5133 110.717 25.7417 112.682 21.9296C112.978 21.3623 112.122 20.8544 111.827 21.4217C108.386 28.0905 104.745 34.6574 100.787 41.0415C96.8587 47.3657 92.6324 53.4973 88.0188 59.3353C85.378 62.6813 82.6082 65.926 79.7294 69.0598C79.9572 69.2919 80.195 69.5341 80.4229 69.7662C82.5846 67.4059 84.3287 64.7817 85.7549 61.9247C87.8537 57.7037 89.5345 53.2589 91.3145 48.895C94.0357 42.2197 96.767 35.5444 99.7273 28.9712C102.208 23.4737 105.007 18.1591 108.154 13.0177C109.088 11.4962 110.042 9.98489 111.005 8.48366C111.746 7.33039 112.467 6.14694 113.317 5.06468C113.792 4.45901 114.318 3.8438 114.942 3.38949C115.335 3.10308 115.696 2.92638 116.086 2.95995C115.986 2.94903 116.196 2.99096 116.246 3.00141C116.246 3.00141 116.335 3.04223 116.425 3.10306C116.465 3.13342 116.673 3.34534 116.722 3.42579C117.028 3.85861 117.183 4.36005 117.319 4.87132C117.715 6.39501 117.78 8.01567 117.796 9.58588C117.82 13.4163 117.415 17.3027 116.63 21.0557C115.647 25.8069 113.277 30.1954 110.918 34.3939C107.441 40.6124 103.347 46.4951 98.7469 51.9432C94.2782 57.2425 89.3025 62.2072 83.7146 66.3262C82.446 67.2546 81.1478 68.1428 79.8202 68.9706C79.277 69.3157 79.7691 70.1802 80.3123 69.8352Z" fill="#D67993"/>
<path d="M60.5302 84.1746C67.9563 76.9923 72.7143 67.4055 75.8236 57.6635C78.3875 49.6067 79.985 41.151 80.3124 32.6936C80.4448 29.1647 80.5202 25.2952 79.3311 21.9142C78.8925 20.6701 78.224 19.4139 77.0299 18.763C75.5573 17.9494 73.9955 18.1351 72.8935 19.4351C71.7815 20.745 71.2458 22.4601 70.7012 24.0552C69.9409 26.2684 69.4502 28.524 69.0291 30.8202C68.0296 36.2213 67.4995 41.6966 67.0094 47.1624C66.0187 58.1538 65.325 69.4779 61.3596 79.882C60.878 81.1377 60.3568 82.3629 59.7758 83.5677C59.5821 83.9659 59.9967 84.5597 60.4495 84.2539C62.261 83.0104 63.5283 81.1219 64.536 79.1911C65.7576 76.8422 66.6707 74.3204 67.4638 71.7976C68.2365 69.3246 68.8994 66.8305 69.5723 64.3266C70.3488 61.4436 71.3446 58.6326 72.2107 55.7804C73.4482 51.6915 74.4267 47.4903 74.5259 43.211C74.5418 42.5712 73.5518 42.5621 73.5359 43.202C73.4511 47.0114 72.6468 50.7442 71.5934 54.3947C70.7465 57.327 69.6803 60.1874 68.8733 63.1301C67.5486 67.9982 66.3929 72.9878 64.2408 77.5783C63.2411 79.7192 61.9699 82.0277 59.9673 83.3994C60.1952 83.6315 60.4132 83.8535 60.641 84.0856C65.2794 74.4577 66.5084 63.6485 67.4847 53.137C67.9841 47.7413 68.3936 42.3449 69.0928 36.971C69.4368 34.3541 69.8508 31.7378 70.3845 29.1525C70.6355 27.9448 70.8571 26.6868 71.2578 25.5204C71.5043 24.8026 71.7609 24.0849 72.0075 23.3672C72.4798 22.0314 73.1078 20.0671 74.4939 19.3998C75.7294 18.811 77.1204 19.7938 77.751 20.8296C78.5492 22.117 78.8648 23.69 79.0813 25.172C79.3447 26.9845 79.3978 28.8251 79.3911 30.6551C79.3388 38.5449 78.0063 46.4631 75.8968 54.0441C73.2081 63.7198 69.0097 73.3518 62.2999 80.9407C61.5218 81.8236 60.714 82.6662 59.8666 83.4785C59.3727 83.904 60.0661 84.6204 60.5302 84.1746Z" fill="#D67993"/>
<path d="M42.0081 93.0454C50.5298 90.7233 54.5168 82.3295 56.4993 74.4173C57.5372 70.2866 58.1359 66.0619 58.6546 61.8365C59.1189 58.0906 59.6831 54.3656 60.0775 50.6091C60.5595 46.0233 60.8326 41.3156 60.1245 36.7389C59.8124 34.776 59.3007 32.7812 58.3167 31.0321C57.864 30.2279 57.3003 29.5327 56.6764 28.867C56.0227 28.181 55.289 27.4842 54.3822 27.1359C51.0137 25.865 50.391 31.6196 50.1224 33.6472C49.8428 35.7847 49.5933 37.9125 49.2637 40.0496C48.7846 43.2253 48.3954 46.4119 48.0562 49.5989C46.6467 62.6466 45.945 75.9307 42.0593 88.5457C41.6057 90.0316 41.1023 91.497 40.5489 92.952C40.3645 93.4403 41.0316 93.7565 41.3745 93.4396C46.0842 89.1225 49.0075 83.3191 50.8628 77.2858C52.8005 70.9933 53.6706 64.431 54.3604 57.907C54.7322 54.4403 55.034 50.9629 55.4457 47.5065C55.5215 46.8772 54.5315 46.8681 54.4557 47.4975C53.729 53.6911 53.292 59.9173 52.3354 66.0888C51.3477 72.39 49.8891 78.7769 46.9169 84.47C45.3085 87.5554 43.2526 90.3767 40.6909 92.7333C40.9695 92.8959 41.238 93.0583 41.5165 93.2209C45.9849 81.4013 47.1613 68.7015 48.3856 56.2222C48.6947 53.0449 49.0138 49.8677 49.3828 46.701C49.7412 43.6041 50.2493 40.5386 50.6875 37.4625C50.923 35.7646 51.0286 34.0655 51.3141 32.3681C51.5359 31.09 51.7633 29.182 52.8019 28.2515C53.9714 27.2222 55.5445 29.0766 56.2575 29.8432C57.4953 31.1746 58.2098 32.8712 58.674 34.6055C59.8151 38.8562 59.6732 43.4251 59.3434 47.7722C59.0588 51.5498 58.4546 55.2844 58.0002 59.0404C57.5239 62.9962 57.0476 66.962 56.2718 70.8651C54.7727 78.4116 52.0012 87.2966 44.5871 90.9889C43.6829 91.4406 42.7297 91.7819 41.7572 92.053C41.1353 92.2574 41.3865 93.2197 42.0081 93.0454Z" fill="#D67993"/>
<path d="M17.895 100.915C21.5025 100.118 24.7496 98.2676 27.3636 95.6514C29.9474 93.065 31.8866 89.8826 33.407 86.5764C34.958 83.2004 36.1204 79.6609 37.1033 76.0798C37.4342 74.8828 37.7953 73.676 37.9966 72.4478C38.1871 71.2995 38.2776 70.1503 38.3382 68.9908C38.4619 66.4018 38.4059 63.7812 38.0293 61.2276C37.8785 60.2262 37.6778 59.2043 37.2763 58.2706C37.0119 57.6582 36.6083 56.9644 35.9301 56.7582C35.1922 56.5315 34.498 56.9851 34.0033 57.4906C33.0644 58.4621 32.4324 59.7663 31.8713 60.9812C30.0143 65.0144 28.8549 69.314 27.8753 73.6352C25.948 82.0579 24.3975 90.8441 18.5556 97.5808C17.7875 98.4638 16.9598 99.2963 16.1025 100.088C15.7394 100.425 16.1037 101.059 16.5749 100.923C20.2147 99.8661 23.0098 97.1416 25.1874 94.1414C27.5979 90.8134 29.3525 87.0493 30.8873 83.2532C31.6547 81.3601 32.3522 79.4464 33.0498 77.5327C33.2653 76.9347 32.3077 76.6659 32.0922 77.2639C30.8304 80.7325 29.5387 84.1908 27.9282 87.5062C26.2466 90.951 24.225 94.3926 21.381 97.0067C19.9187 98.3433 18.2288 99.4179 16.3236 99.9705C16.4811 100.252 16.6386 100.523 16.796 100.805C19.9728 97.8938 22.4653 94.3565 24.2015 90.4122C25.8457 86.6871 26.852 82.7262 27.7483 78.7642C28.676 74.6526 29.5138 70.52 30.8106 66.5118C31.4592 64.4876 32.2076 62.4744 33.175 60.5832C33.6434 59.6674 34.1836 58.5523 35.0195 57.9099C35.1203 57.8309 35.2811 57.7423 35.3313 57.7228C35.4718 57.6641 35.5117 57.6744 35.5716 57.685C35.6415 57.6956 35.6814 57.706 35.7609 57.7667C35.8106 57.7972 35.9099 57.8781 35.9989 57.9889C36.4341 58.5129 36.6559 59.405 36.8194 60.1165C37.3581 62.4515 37.4355 64.9123 37.4036 67.3022C37.3748 69.362 37.2954 71.4813 36.7771 73.4767C35.8858 76.8887 34.9146 80.2899 33.6244 83.5782C31.0853 90.0253 27.0448 96.6185 20.2609 99.1965C19.4079 99.5187 18.5355 99.7707 17.6437 99.9726C17.0125 100.097 17.2638 101.049 17.895 100.915Z" fill="#D67993"/>
<path d="M16.1856 100.849C25.0675 105.051 34.1625 108.914 43.6282 111.611C48.2963 112.934 53.0571 113.967 57.8719 114.552C59.4902 114.746 61.0987 114.921 62.717 115.106C64.1956 115.27 65.6847 115.373 67.1748 115.367C69.7552 115.34 73.1078 115.071 74.8578 112.897C75.7378 111.805 76.172 110.259 75.8846 108.876C75.6167 107.564 74.6963 106.505 73.6535 105.716C71.0417 103.712 67.5487 102.93 64.3736 102.381C59.4513 101.525 54.4417 101.46 49.462 101.404C46.9722 101.371 44.4723 101.348 41.9834 101.216C39.4245 101.082 36.8972 100.769 34.3606 100.386C29.577 99.6719 24.722 99.1074 19.8782 99.493C18.6773 99.5921 17.4758 99.7411 16.2938 99.9602C15.823 100.046 15.8159 100.816 16.285 100.92C29.2712 103.579 42.1066 107.417 55.3351 108.728C58.7222 109.069 62.131 109.21 65.5326 109.051C66.1729 109.027 66.182 108.027 65.5417 108.062C52.836 108.625 40.2557 105.32 27.9811 102.487C24.179 101.613 20.3767 100.748 16.5538 99.9626C16.5508 100.283 16.5479 100.603 16.545 100.923C21.2231 100.055 26.021 100.309 30.7159 100.882C33.0535 101.164 35.3795 101.605 37.7172 101.866C40.0748 102.138 42.4438 102.26 44.8134 102.321C49.5923 102.455 54.3935 102.349 59.1602 102.733C62.9976 103.038 67.043 103.555 70.5988 105.118C72.8997 106.129 75.7025 108.015 74.7659 110.916C73.8807 113.668 70.7356 114.209 68.1942 114.346C65.4728 114.491 62.8167 114.057 60.1188 113.812C55.4725 113.39 50.8703 112.517 46.3508 111.346C37.1821 108.972 28.3643 105.421 19.7801 101.472C18.7444 100.993 17.6988 100.513 16.6732 100.024C16.1259 99.7287 15.608 100.584 16.1856 100.849Z" fill="#D67993"/>
<path d="M40.7737 93.5341C44.7776 96.4009 50.0302 97.239 54.8165 97.6629C59.9325 98.1197 65.1038 97.9971 70.2266 97.714C76.24 97.379 82.2742 96.9443 88.2141 95.8886C91.149 95.3655 94.0653 94.6922 96.8944 93.718C99.2719 92.8998 101.462 91.7698 103.565 90.399C105.869 88.89 108.055 87.1699 110.023 85.2379C111.799 83.4841 113.497 81.4995 114.568 79.2292C115.067 78.1738 115.368 77.0465 115.508 75.8977C115.605 75.1286 115.613 74.2986 115.29 73.5756C114.77 72.3908 113.523 72.1194 112.341 72.2686C110.759 72.4741 109.243 73.2002 107.836 73.9174C106.289 74.7132 104.81 75.6497 103.322 76.5662C97.74 80.0052 91.8235 82.8711 85.6823 85.155C73.5806 89.6544 60.6894 91.9064 47.7868 92.1383C46.1865 92.1636 44.5864 92.159 42.9966 92.1344C42.4567 92.1195 42.2885 93.018 42.8577 93.1032C49.1989 94.1013 55.6579 94.2304 62.0608 93.9491C68.7738 93.6505 75.471 92.8918 82.0916 91.7624C85.6173 91.1646 89.124 90.4467 92.6019 89.5985C93.2233 89.4442 92.972 88.4919 92.3507 88.6362C86.1466 90.1494 79.8462 91.2518 73.4991 92.0037C66.8916 92.7932 60.2275 93.2122 53.5788 93.0314C50.0895 92.9394 46.5918 92.6774 43.1366 92.1357C43.0937 92.4553 43.0406 92.7848 42.9977 93.1045C55.506 93.349 68.081 91.7641 80.0552 88.0936C86.0322 86.2582 91.8439 83.9114 97.4004 81.0421C99.9426 79.7253 102.416 78.2879 104.85 76.7802C106.268 75.9031 107.706 75.0562 109.202 74.3399C110.408 73.7709 111.924 73.0448 113.303 73.2074C114.622 73.3595 114.669 74.73 114.549 75.7989C114.267 78.1864 113.058 80.2455 111.572 82.0819C109.892 84.1666 107.896 85.9884 105.791 87.6192C103.806 89.1511 101.674 90.5416 99.4235 91.6411C96.9925 92.8289 94.2958 93.5542 91.67 94.1702C85.8473 95.5269 79.8619 96.0921 73.908 96.4876C68.9148 96.8219 63.9123 97.0661 58.9136 96.9004C53.9349 96.7348 48.6488 96.2863 44.0475 94.2241C43.0914 93.7954 42.1761 93.277 41.3216 92.6691C40.7549 92.3139 40.257 93.1694 40.7737 93.5341Z" fill="#D67993"/>
<path d="M62.9021 82.8763C74.4084 80.0616 85.9556 77.1372 96.8692 72.4269C107 68.0595 117.005 62.0308 124.035 53.3648C126.988 49.7217 129.961 45.1088 128.805 40.218C128.372 38.4039 127.207 36.8032 125.197 36.8148C123.256 36.827 121.406 37.9901 119.905 39.1164C117.972 40.5688 116.325 42.3738 114.62 44.0782C112.621 46.08 110.623 48.0918 108.604 50.0834C104.467 54.1757 100.26 58.1973 95.8647 61.9973C87.1554 69.5278 77.492 76.3996 66.4974 80.1291C65.1833 80.5771 63.8496 80.9749 62.4963 81.3225C62.5834 81.6433 62.6705 81.9641 62.7475 82.2849C70.1136 79.4722 77.4214 76.469 84.5329 73.064C91.5137 69.7277 98.308 66.0098 104.817 61.8192C108.569 59.4035 112.223 56.8168 115.768 54.0992C116.271 53.7138 115.578 53.0074 115.074 53.3928C108.901 58.1265 102.371 62.3969 95.5861 66.2149C88.8913 69.9837 81.9706 73.3005 74.9126 76.326C70.8063 78.0885 66.651 79.7405 62.4862 81.3324C61.9042 81.5571 62.1059 82.459 62.7374 82.2948C73.5938 79.4641 83.2893 73.4526 91.9933 66.502C100.748 59.5119 108.591 51.4934 116.504 43.5955C118.129 41.9703 119.714 40.3147 121.675 39.1026C122.953 38.3143 124.963 37.2327 126.444 38.1363C127.28 38.6439 127.651 39.6574 127.852 40.5693C128.102 41.6716 128.162 42.7622 127.972 43.8805C127.56 46.2268 126.381 48.3961 125.053 50.344C122.265 54.4487 118.623 57.9455 114.715 60.9698C110.082 64.5575 104.994 67.5411 99.7011 70.0527C89.2151 75.0269 77.9564 78.114 66.7304 80.9013C65.3672 81.2388 63.9941 81.5762 62.6309 81.9138C62.0295 82.0683 62.2807 83.0306 62.9021 82.8763Z" fill="#D67993"/>
<g opacity="0.1">
<g opacity="0.1">
<path opacity="0.1" d="M20.9175 101.773C28.9288 99.4859 37.2366 99.762 45.0142 97.8731C55.5111 94.9791 65.0109 90.6759 74.6671 85.6841C84.0125 80.7695 93.5123 76.4663 100.388 68.1989" fill="#65537A"/>
</g>
<g opacity="0.1">
<path opacity="0.1" d="M100.388 68.1989C115.273 58.9648 129.738 39.9365 136.356 23.8164C139.027 17.2306 141.12 -9.32136 131.64 5.85248C123.495 18.3884 120.912 24.185 115.106 37.9624C106.958 57.3586 105.863 62.2488 100.388 68.1989C113.671 53.7499 123.617 37.8103 132.567 20.4616L100.388 68.1989Z" fill="#65537A"/>
</g>
<g opacity="0.1">
<path opacity="0.1" d="M80.5054 82.6074C91.9769 71.572 97.7541 53.3442 99.6241 38.0606C100.038 34.3343 101.508 20.1271 97.0183 17.9359C93.2267 15.9011 92.0328 21.7905 91.0093 24.3512C86.2415 42.6483 88.8331 65.423 80.5054 82.6074C85.8888 78.9866 88.3661 66.1887 90.1816 60.1351C92.0742 54.4022 94.2104 48.2715 94.318 41.9822" fill="#65537A"/>
</g>
<g opacity="0.1">
<path opacity="0.1" d="M62.2146 91.3603C76.1393 87.6377 77.5606 67.8399 79.0266 56.2728C79.9992 49.4414 82.4135 33.6929 76.774 28.151C71.3681 22.2213 71.0799 31.849 70.5193 36.2741C67.3923 54.5062 67.9796 74.4624 61.3596 91.9025C73.229 81.1008 73.5639 60.913 75.2776 46.3181" fill="#65537A"/>
</g>
<g opacity="0.1">
<path opacity="0.1" d="M38.0914 99.2298C50.2962 96.5814 54.8814 82.9329 57.578 72.3871C59.0035 67.4299 58.4163 47.4637 52.6004 60.091C46.3946 73.8048 48.6409 88.4159 36.7715 99.2177C45.4042 96.7766 50.1336 83.7594 52.8933 76.1644" fill="#65537A"/>
</g>
<g opacity="0.1">
<path opacity="0.1" d="M36.7715 99.2177C50.5623 105.744 65.8967 111.885 81.0359 113.134C84.4516 113.625 93.2916 114.756 95.2593 110.654C97.694 105.776 91.4962 103.329 88.314 102.46C77.3804 99.5295 66.0306 101.636 55.0177 99.7148C49.1957 98.8214 42.7621 98.0925 36.7715 99.2177C54.3693 102.819 70.8922 108.03 85.8792 107.338L36.7715 99.2177Z" fill="#65537A"/>
</g>
<g opacity="0.1">
<path opacity="0.1" d="M61.3495 91.9024C68.1546 96.835 81.8988 96.4408 90.3729 96.0284C99.1478 95.5287 110.496 94.7426 118.897 91.3694C124.268 89.0685 132.616 82.7446 134.82 76.9346C137.748 67.321 128.557 72.867 124.262 75.5578C105.957 86.9407 84.5109 91.8545 63.314 91.4204C78.0532 93.7555 98.1749 91.4796 112.788 87.9133" fill="#65537A"/>
</g>
<g opacity="0.1">
<path opacity="0.1" d="M83.1085 81.1912C102.703 76.4105 123.473 71.0404 139.162 56.9935C142.915 53.4477 150.256 45.7146 148.733 39.4904C147.531 33.1991 141.526 36.9643 138.084 40.4429C122.703 55.7327 104.967 74.8911 82.9539 80.5998C102.252 73.2462 119.377 65.1127 135.763 52.5422" fill="#65537A"/>
</g>
</g>
</svg>
