<svg width="115" height="132" viewBox="0 0 115 132" fill="none" xmlns="http://www.w3.org/2000/svg">
<g clip-path="url(#clip0_626_173)">
<path d="M84.7396 114.454C77.5687 111.56 70.8111 107.699 64.6385 103.047C58.5644 98.4738 53.0464 93.1753 48.0856 87.4121C43.0377 81.5503 38.5585 75.2044 34.5552 68.6005C30.5412 61.9797 27.0061 55.0869 23.8569 48.0177C20.7611 41.0687 18.0259 33.9594 15.6031 26.7445C15.3073 25.8768 15.0199 25.0036 14.738 24.1389C14.498 23.4135 13.3658 23.7603 13.5974 24.491C15.9666 31.7521 18.6231 38.9238 21.654 45.9383C24.7461 53.1036 28.2042 60.1171 32.1413 66.8587C36.0646 73.5972 40.4584 80.0692 45.4149 86.0848C50.3089 92.0216 55.7457 97.5267 61.7632 102.326C67.7946 107.129 74.3874 111.214 81.435 114.342C82.3517 114.751 83.2744 115.133 84.1971 115.515C84.9078 115.808 85.4502 114.746 84.7396 114.454Z" fill="#D67993"/>
<path d="M19.5611 28.707C18.9028 31.9939 18.4933 35.335 18.7104 38.6896C19.0757 38.5738 19.4411 38.458 19.8065 38.3422C17.861 35.6459 15.0319 33.8498 12.4992 31.7565C11.9112 31.2665 11.1111 32.1488 11.7044 32.6471C14.1387 34.6611 16.93 36.3983 18.7967 38.9906C19.13 39.454 19.9322 39.2597 19.8928 38.6433C19.6907 35.386 20.0846 32.1501 20.7218 28.9599C20.8706 28.2107 19.7099 27.9578 19.5611 28.707Z" fill="#D67993"/>
<path d="M24.3265 38.5889C23.9389 42.4269 23.6426 46.2776 23.6402 50.1416C23.9701 49.9891 24.3031 49.8228 24.633 49.6704C20.3096 46.6947 16.2134 43.4068 11.9038 40.4341C11.2815 40.0018 10.4814 40.8841 11.109 41.3248C15.4325 44.3005 19.5286 47.5884 23.8383 50.561C24.2467 50.8454 24.8326 50.6474 24.8311 50.0899C24.8401 46.3286 25.1207 42.5831 25.4956 38.8364C25.5723 38.086 24.4062 37.8247 24.3265 38.5889Z" fill="#D67993"/>
<path d="M29.84 48.1924C29.7843 52.8988 29.6066 57.6003 29.6506 62.3139C29.8898 62.1127 30.129 61.9116 30.3683 61.7104C25.3274 60.1344 21.348 56.3436 16.5465 54.2335C15.8473 53.9219 15.3048 54.9834 16.004 55.2949C20.9047 57.4483 24.9531 61.2542 30.11 62.8627C30.4962 62.983 30.8383 62.6089 30.8277 62.2592C30.7891 57.554 30.9613 52.8441 31.0171 48.1377C31.0385 47.3752 29.8476 47.4269 29.84 48.1924Z" fill="#D67993"/>
<path d="M35.6889 58.7808C36.422 63.7532 36.935 68.9381 36.3137 73.9482C36.5962 73.8143 36.8787 73.6805 37.1611 73.5466C32.1792 71.7664 27.7422 68.7804 23.0219 66.4637C22.3341 66.1329 21.7862 67.186 22.4794 67.5252C27.2051 69.8503 31.6451 72.8224 36.6187 74.6081C36.9412 74.7218 37.4172 74.6301 37.466 74.2065C38.0976 69.0828 37.6218 63.8264 36.8714 58.7345C36.7678 57.981 35.5715 58.0243 35.6889 58.7808Z" fill="#D67993"/>
<path d="M42.0421 69.0811C42.2416 74.1109 42.6699 79.2194 44.0652 84.0755C44.2942 83.8214 44.5232 83.5674 44.7577 83.3218C40.0147 81.8396 35.5113 79.657 30.6396 78.5665C29.888 78.3955 29.6405 79.5647 30.3867 79.7273C35.2584 80.8177 39.7534 83.0057 44.5048 84.4825C44.9517 84.6233 45.3155 84.1163 45.1973 83.7287C43.8255 78.9646 43.4229 73.9702 43.2246 69.0348C43.1907 68.2603 42.0082 68.3066 42.0421 69.0811Z" fill="#D67993"/>
<path d="M48.4704 80.6642C48.7376 83.3567 49.6473 85.9576 50.7366 88.4312C51.8554 90.9691 53.17 93.4049 54.5659 95.8005C54.7763 95.499 54.9867 95.1975 55.1972 94.896C50.5895 93.2913 45.5626 93.8098 40.9549 92.2052C40.2352 91.9543 39.9877 93.1234 40.702 93.3659C45.3097 94.9705 50.3366 94.452 54.9443 96.0567C55.4681 96.2432 55.8073 95.55 55.5756 95.1521C54.2308 92.8545 52.9533 90.5136 51.8856 88.0736C50.8443 85.7118 49.9304 83.1969 49.6751 80.6155C49.5883 79.8512 48.3974 79.9029 48.4704 80.6642Z" fill="#D67993"/>
<path d="M84.9466 113.869C80.0035 112.409 75.8581 109.081 72.4075 105.355C68.6301 101.268 65.5459 96.5575 62.7963 91.7392C60.2377 87.2737 57.9759 82.6413 55.7617 77.9904C52.6638 71.4824 50.2276 64.7277 48.2716 57.7955C47.147 53.8234 46.1701 49.8039 45.2431 45.788C44.7737 43.7245 44.3042 41.661 43.857 39.5951C43.4127 37.5153 42.9823 35.4386 42.1757 33.4609C41.8998 33.6975 41.6101 33.9311 41.3342 34.1677C43.7618 35.1164 45.9187 36.6429 47.9012 38.3052C50.0946 40.1292 52.1209 42.1556 54.0799 44.2253C58.1233 48.486 62.2274 52.7671 65.7022 57.5118C69.8002 63.116 73.2684 69.2199 75.924 75.6315C77.1147 78.5035 78.1377 81.4475 79.1385 84.3939C80.1315 87.3097 81.0464 90.2519 81.7996 93.2384C83.4668 99.8689 84.3984 106.853 83.1502 113.644C83.4765 113.542 83.8028 113.439 84.1237 113.328C81.3709 110.318 79.9692 106.322 78.6137 102.546C77.1868 98.5657 75.5977 94.666 73.925 90.7844C71.3292 84.7621 68.5826 78.801 65.4358 73.0495C63.0501 68.6868 60.6392 64.3404 58.2031 60.0101C55.4091 55.0302 52.5762 50.0635 49.659 45.1508C47.4509 41.4348 45.2464 37.6688 42.7101 34.1635C42.5096 33.8882 42.3036 33.6045 42.0947 33.3347C41.6335 32.7276 40.6238 33.376 41.0934 33.9777C43.5517 37.1765 45.6103 40.7153 47.6869 44.1711C50.6023 49.0255 53.4113 53.9363 56.195 58.8634C58.7416 63.3841 61.2576 67.9127 63.7483 72.4574C64.6037 74.0116 65.4676 75.5604 66.2924 77.1224C68.3238 80.9519 70.0607 84.9706 71.8097 88.934C73.5424 92.8721 75.2776 96.8325 76.7393 100.885C78.114 104.673 79.3444 108.625 81.5888 112.009C82.1051 112.794 82.6834 113.528 83.3151 114.216C83.6202 114.543 84.2205 114.312 84.2886 113.9C85.4145 107.769 84.8287 101.49 83.5122 95.4425C82.1776 89.3115 80.1304 83.3291 77.9035 77.474C75.43 70.9573 72.1109 64.734 68.1679 58.9827C64.6525 53.86 60.4493 49.3691 56.2414 44.8337C54.0026 42.4209 51.7188 40.0489 49.2257 37.9063C47.0143 35.9987 44.5848 34.1957 41.843 33.1278C41.4159 32.9624 40.7969 33.3124 41.0015 33.8346C41.7469 35.6616 42.1744 37.5857 42.5796 39.5121C42.9753 41.3497 43.3848 43.1903 43.7973 45.017C44.6307 48.6652 45.5002 52.3139 46.4646 55.9254C48.4228 63.2128 50.8186 70.3855 54.019 77.2199C58.5951 86.9737 63.4091 96.9314 70.5251 105.125C74.3336 109.501 78.9852 113.395 84.6348 115.068C85.4278 115.248 85.6807 114.087 84.9466 113.869Z" fill="#D67993"/>
<path d="M84.3749 114.367C83.196 100.78 84.4313 86.9729 87.5242 73.7084C88.3773 70.0587 89.3825 66.4421 90.5504 62.8754C90.2241 62.978 89.8978 63.0806 89.5769 63.1916C92.6613 66.4401 94.8248 70.4938 96.2894 74.6992C97.8579 79.1588 98.695 83.886 98.7858 88.6171C98.8656 92.7016 98.4664 97.0581 96.972 100.894C95.8116 103.861 94.3964 106.802 92.5842 109.44C90.8886 111.907 87.8641 115.525 84.5465 113.579C84.651 113.798 84.7554 114.016 84.8599 114.234C86.1471 107.596 88.1197 101.1 89.6971 94.525C91.3317 87.6876 92.6977 80.6542 92.5136 73.5942C92.4169 69.8533 91.8377 66.1014 90.5362 62.5756C90.2739 61.8527 89.1388 62.2132 89.3956 62.9278C91.7304 69.284 91.6448 76.2201 90.7518 82.8427C89.8057 89.8084 87.9609 96.6145 86.1911 103.408C85.2768 106.907 84.3678 110.414 83.6884 113.964C83.6366 114.235 83.7626 114.487 84.0017 114.619C87.1132 116.447 90.1851 114.272 92.2039 111.883C94.5004 109.148 96.1741 105.851 97.5534 102.576C101.028 94.367 100.561 84.5893 98.0227 76.1769C96.49 71.0882 94.0415 66.1836 90.3717 62.301C90.0366 61.9457 89.5185 62.2308 89.3981 62.6171C85.1506 75.6011 82.9125 89.3268 82.7725 102.989C82.7323 106.794 82.8638 110.607 83.2009 114.408C83.257 115.18 84.4479 115.128 84.3749 114.367Z" fill="#D67993"/>
<path d="M93.4977 68.7789C92.5802 70.2001 92.0405 71.747 91.4395 73.3095C91.7483 73.2538 92.0572 73.198 92.3661 73.1423C90.9553 71.7783 89.877 70.1177 88.4663 68.7537C87.9096 68.2199 87.1232 69.1051 87.6716 69.6443C89.0823 71.0083 90.1606 72.669 91.5713 74.033C91.8278 74.2842 92.3643 74.213 92.4979 73.8658C93.0989 72.3033 93.6332 70.7479 94.5507 69.3268C94.7245 69.0607 94.5511 68.6611 94.2898 68.5318C93.993 68.3658 93.6715 68.5128 93.4977 68.7789Z" fill="#D67993"/>
<path d="M96.4772 73.9368C94.5606 75.0606 92.8061 76.4369 91.4606 78.228C91.2676 78.4827 91.2476 78.8402 91.5016 79.0692C91.7256 79.27 92.1498 79.2828 92.3428 79.0281C93.6288 77.3109 95.271 76.0187 97.1118 74.9435C97.7844 74.5473 97.1414 73.546 96.4772 73.9368Z" fill="#D67993"/>
<path d="M97.6993 77.8939C96.5141 78.5837 95.2478 79.1473 94.068 79.8455C92.9556 80.5005 91.9788 81.3298 91.223 82.3737C91.0355 82.6368 91.01 82.9858 91.2641 83.2149C91.4881 83.4157 91.9123 83.4285 92.1053 83.1738C92.8382 82.1684 93.7332 81.4153 94.809 80.7958C95.969 80.1222 97.1823 79.5688 98.3423 78.8952C99.0064 78.5044 98.355 77.5085 97.6993 77.8939Z" fill="#D67993"/>
<path d="M98.5852 82.364C95.8758 83.9375 92.9222 85.038 90.2074 86.6031C89.5379 86.9855 90.1947 87.9899 90.8504 87.6044C93.5598 86.0309 96.5134 84.9304 99.2282 83.3653C99.8839 82.9799 99.2409 81.9786 98.5852 82.364Z" fill="#D67993"/>
<path d="M98.5012 87.1004C95.7275 88.7033 92.6885 89.93 89.7509 91.2222C89.9444 91.2643 90.1378 91.3065 90.3313 91.3486C88.5669 89.5819 86.7273 87.8278 85.1685 85.8815C84.6959 85.2937 83.6892 85.9283 84.1672 86.5245C85.7939 88.558 87.7013 90.3992 89.5366 92.2393C89.6675 92.3691 89.9408 92.4432 90.1169 92.3658C91.3747 91.8076 92.6241 91.2548 93.8712 90.6798C95.6464 89.8725 97.4602 89.0881 99.1496 88.1101C99.7999 87.7163 99.1569 86.715 98.5012 87.1004Z" fill="#D67993"/>
<path d="M91.0281 86.7892C89.6532 84.4633 87.8349 82.446 86.4685 80.1146C86.0776 79.4505 85.0817 80.102 85.4671 80.7577C86.842 83.0836 88.6603 85.1009 90.0267 87.4322C90.4122 88.0879 91.4135 87.4449 91.0281 86.7892Z" fill="#D67993"/>
<path d="M92.1621 82.448C90.594 79.7471 89.2423 76.8834 87.1609 74.5121C86.9459 74.2699 86.5175 74.343 86.3197 74.5532C86.0823 74.8126 86.1596 75.1551 86.3608 75.3944C88.3605 77.6755 89.6437 80.4881 91.1554 83.0826C91.5516 83.7552 92.553 83.1122 92.1621 82.448Z" fill="#D67993"/>
<path d="M92.442 77.776C91.1806 75.6268 89.6915 73.4931 87.8989 71.7564C87.3421 71.2226 86.5558 72.1079 87.1041 72.6471C88.8259 74.3104 90.2387 76.3624 91.446 78.4275C91.8231 79.0886 92.819 78.4371 92.442 77.776Z" fill="#D67993"/>
<path d="M89.5424 95.1354C88.1377 93.7437 86.7276 92.3437 85.3343 90.9329C85.1926 90.7862 85.037 90.6365 84.8953 90.4898C84.8545 90.4448 84.8082 90.3913 84.759 90.3516C84.6581 90.25 84.7728 90.3546 84.8052 90.4051C84.834 90.5054 84.8712 90.6004 84.9 90.7007C84.6608 90.9019 84.4215 91.1031 84.1823 91.3042C84.097 91.2639 84.0063 91.2152 83.921 91.1749C84.1757 91.3679 84.5416 91.3825 84.7622 91.1339C84.963 90.9099 84.9674 90.4911 84.7211 90.2927C84.6226 90.2133 84.562 90.1929 84.4406 90.1519C84.0681 90.0346 83.7039 90.4112 83.7229 90.7554C83.7366 91.0913 84.1036 91.3667 84.3162 91.5867C84.6951 91.9732 85.0825 92.3543 85.4614 92.7409C86.3478 93.6215 87.2312 94.516 88.1177 95.3966C88.3248 95.6082 88.5405 95.8144 88.7476 96.026C89.2875 96.5707 90.0823 95.68 89.5424 95.1354Z" fill="#D67993"/>
<path d="M88.5094 99.0788C87.2195 97.7918 85.9295 96.5048 84.6341 95.2093C84.4485 95.0314 84.2659 94.8396 84.0804 94.6617C83.5405 94.1171 82.7457 95.0077 83.2856 95.5524C84.5756 96.8394 85.8656 98.1264 87.161 99.4218C87.3466 99.5998 87.5291 99.7915 87.7147 99.9695C88.2492 100.506 89.0493 99.6234 88.5094 99.0788Z" fill="#D67993"/>
<path d="M87.2114 101.98C86.7051 101.58 86.2072 101.175 85.7123 100.756C85.3267 100.433 84.9496 100.105 84.5838 99.7577C84.4283 99.608 84.2781 99.4667 84.1394 99.3062C84.134 99.2978 84.0439 99.213 84.0523 99.2076C84.0523 99.2076 84.1526 99.3453 84.0577 99.2161C84.0253 99.1656 83.9791 99.1121 83.9467 99.0616C83.7822 98.7869 83.3868 98.708 83.1176 98.8809C82.8399 99.0593 82.767 99.4269 82.9369 99.71C83.2713 100.268 83.8515 100.727 84.3296 101.157C84.8815 101.646 85.4449 102.116 86.0251 102.576C86.1482 102.675 86.2713 102.774 86.3945 102.873C86.6491 103.066 87.0096 103.072 87.2357 102.832C87.4617 102.592 87.4661 102.173 87.2114 101.98Z" fill="#D67993"/>
<path d="M98.4993 91.0948C95.4084 92.5924 92.1999 93.8328 88.9674 95.0173C88.2445 95.2795 88.605 96.4147 89.3196 96.1579C92.6524 94.9446 95.9451 93.6502 99.1393 92.1099C99.8304 91.7612 99.179 90.7653 98.4993 91.0948Z" fill="#D67993"/>
<path d="M98.5067 95.6774C95.2931 97.5391 91.7327 98.435 88.0793 98.9272C87.3258 99.0308 87.3637 100.219 88.131 100.118C92.0013 99.5936 95.7456 98.6509 99.1497 96.6787C99.8192 96.2963 99.1678 95.3004 98.5067 95.6774Z" fill="#D67993"/>
<path d="M97.2621 99.828C95.7152 100.584 94.0873 101.047 92.3754 101.231C90.7134 101.419 89.037 101.473 87.3876 101.736C86.6449 101.857 86.6828 103.045 87.4393 102.927C89.1777 102.655 90.94 102.604 92.6801 102.39C94.523 102.169 96.238 101.638 97.9052 100.829C98.5933 100.494 97.9419 99.4985 97.2621 99.828Z" fill="#D67993"/>
<path d="M95.8345 103.657C92.8759 105.045 89.4802 104.588 86.3788 105.403C85.6349 105.595 85.9955 106.731 86.731 106.543C88.3276 106.124 89.971 106.055 91.6077 105.884C93.2974 105.702 94.9282 105.391 96.4691 104.663C96.76 104.524 96.8035 104.092 96.6498 103.834C96.4606 103.54 96.1224 103.531 95.8345 103.657Z" fill="#D67993"/>
<path d="M93.1973 108.951C90.5813 108.801 87.9574 108.786 85.3498 108.631C85.0284 108.611 84.7729 108.954 84.7818 109.245C84.7924 109.595 85.0747 109.794 85.3961 109.813C88.0121 109.963 90.636 109.978 93.2436 110.134C93.565 110.153 93.8205 109.811 93.8117 109.519C93.801 109.169 93.5187 108.97 93.1973 108.951Z" fill="#D67993"/>
</g>
<defs>
<clipPath id="clip0_626_173">
<rect width="60.56" height="117.06" fill="white" transform="translate(0 32.7238) rotate(-32.7078)"/>
</clipPath>
</defs>
</svg>
