<svg width="246" height="136" viewBox="0 0 246 136" fill="none" xmlns="http://www.w3.org/2000/svg">
<path opacity="0.1" d="M244.788 90.9636C249.416 62.1322 229.795 35.008 200.964 30.3799C172.132 25.7518 145.008 45.3724 140.38 74.2038C135.752 103.035 155.372 130.159 184.204 134.788C213.035 139.416 240.16 119.795 244.788 90.9636Z" fill="#65537A"/>
<path d="M0.607573 103.456C6.52757 101.726 12.6875 101.376 18.7575 100.476C21.7575 100.036 24.6675 99.3765 27.5575 98.4665C30.3675 97.5865 33.1375 96.5864 35.8675 95.5064C41.3275 93.3364 46.6376 90.8165 51.8576 88.1165C56.6876 85.6165 61.5476 83.1165 66.2176 80.3365C71.3476 77.2765 76.1875 73.6665 79.9975 69.0265C80.3975 68.5365 79.6975 67.8264 79.2975 68.3264C72.4675 76.6364 62.5476 81.3865 53.2176 86.2965C47.9876 89.0465 42.6675 91.6565 37.1975 93.9065C31.7975 96.1265 26.2175 98.2064 20.4475 99.2064C13.7475 100.366 6.90756 100.586 0.347563 102.496C-0.262437 102.676 -0.00242686 103.636 0.607573 103.456Z" fill="#D67993"/>
<path d="M79.8975 69.1064C85.7075 65.4164 90.8475 60.7264 95.4775 55.6664C100.398 50.2764 104.778 44.3864 108.578 38.1564C110.408 35.1564 112.098 32.0664 113.598 28.8864C114.598 26.7864 115.637 24.6364 116.237 22.3864C117.217 18.7264 117.638 14.8564 117.788 11.0764C117.858 9.23644 117.857 7.37642 117.627 5.55642C117.477 4.30642 117.268 2.88642 116.518 1.83642C114.488 -1.01358 111.427 3.43644 110.427 4.98644C106.847 10.4664 103.508 16.1364 100.648 22.0164C97.6175 28.2364 95.0375 34.6764 92.4475 41.0864C90.2175 46.5864 88.1375 52.1664 85.7875 57.6164C84.4475 60.7364 82.9475 63.8164 80.8475 66.5064C80.3575 67.1364 79.8375 67.7464 79.3075 68.3364C78.8775 68.8064 79.5775 69.5164 80.0075 69.0364C85.0475 63.4464 89.7075 57.5264 93.9975 51.3464C98.2675 45.1964 102.178 38.8064 105.818 32.2764C107.898 28.5264 109.898 24.7364 111.828 20.9064C112.118 20.3364 111.258 19.8364 110.968 20.4064C107.588 27.1064 104.008 33.7064 100.108 40.1264C96.2375 46.4864 92.0675 52.6564 87.5075 58.5364C84.8975 61.9064 82.1575 65.1764 79.3075 68.3364C79.5375 68.5664 79.7775 68.8064 80.0075 69.0364C82.1475 66.6564 83.8675 64.0164 85.2675 61.1464C87.3275 56.9064 88.9675 52.4464 90.7075 48.0664C93.3675 41.3664 96.0375 34.6664 98.9375 28.0664C101.367 22.5464 104.118 17.2064 107.218 12.0364C108.138 10.5064 109.078 8.98643 110.028 7.47643C110.758 6.31643 111.467 5.12643 112.307 4.03643C112.777 3.42643 113.298 2.80643 113.918 2.34643C114.308 2.05643 114.667 1.87642 115.057 1.90642C114.957 1.89642 115.168 1.93643 115.218 1.94643C115.218 1.94643 115.308 1.98644 115.398 2.04644C115.438 2.07644 115.648 2.28641 115.698 2.36641C116.008 2.79641 116.167 3.29642 116.307 3.80642C116.717 5.32642 116.798 6.94644 116.828 8.51644C116.888 12.3464 116.518 16.2364 115.768 19.9964C114.828 24.7564 112.497 29.1664 110.177 33.3864C106.757 39.6364 102.718 45.5564 98.1675 51.0464C93.7475 56.3864 88.8175 61.3964 83.2675 65.5664C82.0075 66.5064 80.7175 67.4065 79.3975 68.2465C78.8575 68.5965 79.3575 69.4564 79.8975 69.1064Z" fill="#D67993"/>
<path d="M60.2476 83.6265C67.6076 76.3765 72.2776 66.7465 75.2976 56.9765C77.7876 48.8965 79.3076 40.4264 79.5576 31.9664C79.6576 28.4364 79.6976 24.5665 78.4776 21.1965C78.0276 19.9565 77.3476 18.7064 76.1476 18.0664C74.6676 17.2664 73.1076 17.4664 72.0176 18.7764C70.9176 20.0964 70.3976 21.8165 69.8676 23.4165C69.1276 25.6365 68.6576 27.8965 68.2576 30.1965C67.3076 35.6065 66.8276 41.0865 66.3876 46.5565C65.4976 57.5565 64.9076 68.8864 61.0376 79.3264C60.5676 80.5864 60.0576 81.8164 59.4876 83.0264C59.2976 83.4264 59.7176 84.0164 60.1676 83.7064C61.9676 82.4464 63.2176 80.5465 64.2076 78.6065C65.4076 76.2465 66.2976 73.7165 67.0676 71.1865C67.8176 68.7065 68.4576 66.2064 69.1076 63.6964C69.8576 60.8064 70.8276 57.9865 71.6676 55.1265C72.8676 51.0265 73.8076 46.8164 73.8676 42.5364C73.8776 41.8964 72.8876 41.8964 72.8776 42.5364C72.8276 46.3464 72.0576 50.0865 71.0376 53.7465C70.2176 56.6865 69.1776 59.5564 68.3976 62.5064C67.1176 67.3864 66.0076 72.3865 63.8976 76.9965C62.9176 79.1465 61.6676 81.4665 59.6776 82.8565C59.9076 83.0865 60.1276 83.3064 60.3576 83.5364C64.9076 73.8664 66.0376 63.0464 66.9176 52.5264C67.3676 47.1264 67.7276 41.7264 68.3776 36.3464C68.6976 33.7264 69.0876 31.1065 69.5976 28.5165C69.8376 27.3065 70.0476 26.0464 70.4376 24.8764C70.6776 24.1564 70.9276 23.4364 71.1676 22.7164C71.6276 21.3764 72.2376 19.4065 73.6176 18.7265C74.8476 18.1265 76.2476 19.0964 76.8876 20.1264C77.6976 21.4064 78.0276 22.9764 78.2576 24.4564C78.5376 26.2664 78.6076 28.1064 78.6176 29.9364C78.6376 37.8264 77.3776 45.7565 75.3376 53.3565C72.7376 63.0565 68.6276 72.7265 61.9876 80.3765C61.2176 81.2665 60.4176 82.1165 59.5776 82.9365C59.0876 83.3765 59.7876 84.0765 60.2476 83.6265Z" fill="#D67993"/>
<path d="M41.8075 92.6665C50.3075 90.2665 54.2175 81.8365 56.1275 73.9065C57.1275 69.7665 57.6876 65.5365 58.1676 61.3065C58.5976 57.5565 59.1275 53.8265 59.4875 50.0665C59.9275 45.4765 60.1576 40.7665 59.4076 36.1965C59.0776 34.2365 58.5475 32.2465 57.5475 30.5065C57.0875 29.7065 56.5175 29.0165 55.8875 28.3565C55.2275 27.6765 54.4875 26.9865 53.5775 26.6465C50.1975 25.4065 49.6275 31.1665 49.3775 33.1965C49.1175 35.3365 48.8875 37.4665 48.5775 39.6065C48.1275 42.7865 47.7675 45.9765 47.4575 49.1665C46.1675 62.2265 45.5875 75.5165 41.8175 88.1665C41.3775 89.6565 40.8876 91.1265 40.3476 92.5865C40.1676 93.0765 40.8375 93.3865 41.1775 93.0665C45.8475 88.7065 48.7175 82.8765 50.5175 76.8265C52.3975 70.5165 53.2075 63.9465 53.8375 57.4165C54.1775 53.9465 54.4475 50.4665 54.8275 47.0065C54.8975 46.3765 53.9075 46.3765 53.8375 47.0065C53.1675 53.2065 52.7875 59.4365 51.8875 65.6165C50.9575 71.9265 49.5575 78.3265 46.6375 84.0465C45.0575 87.1465 43.0275 89.9865 40.4875 92.3665C40.7675 92.5265 41.0375 92.6865 41.3175 92.8465C45.6775 80.9865 46.7376 68.2765 47.8476 55.7865C48.1276 52.6065 48.4175 49.4265 48.7575 46.2565C49.0875 43.1565 49.5676 40.0865 49.9776 37.0065C50.1976 35.3065 50.2875 33.6065 50.5575 31.9065C50.7675 30.6265 50.9775 28.7165 52.0075 27.7765C53.1675 26.7365 54.7576 28.5765 55.4776 29.3365C56.7276 30.6565 57.4575 32.3465 57.9375 34.0765C59.1175 38.3165 59.0176 42.8865 58.7276 47.2365C58.4776 51.0165 57.9075 54.7565 57.4875 58.5165C57.0475 62.4765 56.6075 66.4465 55.8675 70.3565C54.4375 77.9165 51.7475 86.8265 44.3675 90.5865C43.4675 91.0465 42.5175 91.3965 41.5475 91.6765C40.9275 91.8865 41.1875 92.8465 41.8075 92.6665Z" fill="#D67993"/>
<path d="M17.7675 100.756C21.3675 99.9264 24.5975 98.0464 27.1875 95.4064C29.7475 92.7964 31.6575 89.5964 33.1475 86.2764C34.6675 82.8864 35.7975 79.3365 36.7475 75.7465C37.0675 74.5465 37.4176 73.3365 37.6076 72.1065C37.7876 70.9565 37.8675 69.8064 37.9175 68.6464C38.0175 66.0564 37.9375 63.4364 37.5375 60.8864C37.3775 59.8864 37.1675 58.8665 36.7575 57.9365C36.4875 57.3265 36.0775 56.6365 35.3975 56.4365C34.6575 56.2165 33.9675 56.6765 33.4775 57.1865C32.5475 58.1665 31.9275 59.4764 31.3775 60.6964C29.5575 64.7464 28.4375 69.0564 27.4975 73.3864C25.6475 81.8264 24.1775 90.6264 18.3975 97.4165C17.6375 98.3064 16.8175 99.1464 15.9675 99.9464C15.6075 100.286 15.9775 100.916 16.4475 100.776C20.0775 99.6864 22.8475 96.9365 24.9975 93.9165C27.3775 90.5665 29.0975 86.7864 30.5975 82.9764C31.3475 81.0764 32.0275 79.1565 32.7075 77.2365C32.9175 76.6365 31.9575 76.3764 31.7475 76.9764C30.5175 80.4564 29.2575 83.9264 27.6775 87.2564C26.0275 90.7164 24.0375 94.1764 21.2175 96.8164C19.7675 98.1664 18.0875 99.2564 16.1875 99.8264C16.3475 100.106 16.5075 100.376 16.6675 100.656C19.8175 97.7164 22.2775 94.1564 23.9775 90.1964C25.5875 86.4564 26.5575 82.4864 27.4175 78.5164C28.3075 74.3964 29.1075 70.2565 30.3675 66.2365C30.9975 64.2065 31.7275 62.1864 32.6775 60.2864C33.1375 59.3664 33.6675 58.2464 34.4975 57.5964C34.5975 57.5164 34.7575 57.4264 34.8075 57.4064C34.9475 57.3464 34.9875 57.3565 35.0475 57.3665C35.1175 57.3765 35.1575 57.3864 35.2375 57.4464C35.2875 57.4764 35.3875 57.5565 35.4775 57.6665C35.9175 58.1865 36.1475 59.0764 36.3175 59.7864C36.8775 62.1164 36.9775 64.5764 36.9675 66.9664C36.9575 69.0264 36.8975 71.1464 36.3975 73.1464C35.5375 76.5664 34.5975 79.9764 33.3375 83.2764C30.8575 89.7464 26.8775 96.3764 20.1175 99.0164C19.2675 99.3464 18.3975 99.6064 17.5075 99.8164C16.8775 99.9464 17.1375 100.906 17.7675 100.756Z" fill="#D67993"/>
<path d="M16.0575 100.706C24.9775 104.826 34.1075 108.606 43.5975 111.216C48.2775 112.496 53.0475 113.486 57.8675 114.026C59.4875 114.206 61.0975 114.366 62.7175 114.536C64.1975 114.686 65.6875 114.776 67.1775 114.756C69.7575 114.706 73.1075 114.406 74.8375 112.216C75.7075 111.116 76.1275 109.566 75.8275 108.186C75.5475 106.876 74.6175 105.826 73.5675 105.046C70.9375 103.066 67.4375 102.316 64.2575 101.796C59.3275 100.986 54.3175 100.966 49.3375 100.956C46.8475 100.946 44.3475 100.946 41.8575 100.836C39.2975 100.726 36.7675 100.436 34.2275 100.076C29.4375 99.4064 24.5775 98.8864 19.7375 99.3164C18.5375 99.4264 17.3375 99.5864 16.1575 99.8164C15.6875 99.9064 15.6875 100.676 16.1575 100.776C29.1675 103.316 42.0375 107.036 55.2775 108.226C58.6675 108.536 62.0775 108.646 65.4775 108.456C66.1175 108.426 66.1175 107.426 65.4775 107.466C52.7775 108.146 40.1675 104.956 27.8675 102.236C24.0575 101.396 20.2475 100.566 16.4175 99.8164C16.4175 100.136 16.4175 100.456 16.4175 100.776C21.0875 99.8664 25.8875 100.076 30.5875 100.606C32.9275 100.866 35.2575 101.286 37.5975 101.526C39.9575 101.776 42.3275 101.876 44.6975 101.916C49.4775 102.006 54.2775 101.856 59.0475 102.196C62.8875 102.466 66.9375 102.946 70.5075 104.476C72.8175 105.466 75.6375 107.326 74.7275 110.236C73.8675 112.996 70.7275 113.566 68.1875 113.726C65.4675 113.896 62.8075 113.486 60.1075 113.266C55.4575 112.886 50.8475 112.056 46.3175 110.926C37.1275 108.636 28.2775 105.166 19.6575 101.296C18.6175 100.826 17.5675 100.356 16.5375 99.8764C15.9875 99.5864 15.4775 100.446 16.0575 100.706Z" fill="#D67993"/>
<path d="M40.5776 93.1665C44.6076 95.9965 49.8676 96.7865 54.6576 97.1665C59.7776 97.5765 64.9476 97.4064 70.0676 97.0764C76.0776 96.6864 82.1076 96.1964 88.0376 95.0864C90.9676 94.5364 93.8776 93.8364 96.6976 92.8364C99.0676 91.9964 101.248 90.8464 103.338 89.4564C105.628 87.9264 107.798 86.1865 109.748 84.2365C111.508 82.4665 113.188 80.4665 114.238 78.1865C114.728 77.1265 115.018 75.9965 115.148 74.8465C115.238 74.0765 115.238 73.2464 114.908 72.5264C114.378 71.3464 113.128 71.0865 111.948 71.2465C110.368 71.4665 108.858 72.2065 107.458 72.9365C105.918 73.7465 104.448 74.6965 102.968 75.6265C97.4176 79.1165 91.5276 82.0365 85.4076 84.3765C73.3476 88.9865 60.4776 91.3564 47.5776 91.7064C45.9776 91.7464 44.3776 91.7565 42.7876 91.7465C42.2476 91.7365 42.0876 92.6364 42.6576 92.7164C49.0076 93.6565 55.4676 93.7264 61.8676 93.3864C68.5776 93.0264 75.2676 92.2064 81.8776 91.0164C85.3976 90.3864 88.8976 89.6364 92.3676 88.7564C92.9876 88.5964 92.7276 87.6465 92.1076 87.7965C85.9176 89.3665 79.6276 90.5264 73.2876 91.3364C66.6876 92.1864 60.0276 92.6665 53.3776 92.5465C49.8876 92.4865 46.3876 92.2565 42.9276 91.7465C42.8876 92.0665 42.8376 92.3965 42.7976 92.7164C55.3076 92.8464 67.8676 91.1465 79.8076 87.3665C85.7676 85.4765 91.5576 83.0765 97.0876 80.1565C99.6176 78.8165 102.078 77.3564 104.498 75.8264C105.908 74.9364 107.338 74.0765 108.828 73.3465C110.028 72.7665 111.538 72.0265 112.918 72.1765C114.238 72.3165 114.298 73.6864 114.188 74.7564C113.928 77.1464 112.738 79.2164 111.268 81.0664C109.608 83.1664 107.628 85.0065 105.538 86.6565C103.568 88.2065 101.448 89.6165 99.2076 90.7365C96.7876 91.9465 94.0976 92.6964 91.4776 93.3364C85.6676 94.7464 79.6876 95.3664 73.7376 95.8164C68.7476 96.1964 63.7476 96.4865 58.7476 96.3665C53.7676 96.2465 48.4776 95.8464 43.8576 93.8264C42.8976 93.4064 41.9776 92.8965 41.1176 92.2965C40.5476 91.9465 40.0576 92.8065 40.5776 93.1665Z" fill="#D67993"/>
<path d="M62.6075 82.3065C74.0875 79.3865 85.6075 76.3565 96.4775 71.5465C106.568 67.0865 116.517 60.9665 123.467 52.2365C126.387 48.5665 129.317 43.9265 128.117 39.0465C127.667 37.2365 126.488 35.6464 124.478 35.6764C122.538 35.7064 120.697 36.8864 119.207 38.0264C117.287 39.4964 115.657 41.3165 113.967 43.0365C111.987 45.0565 110.007 47.0865 108.007 49.0965C103.907 53.2265 99.7375 57.2865 95.3775 61.1265C86.7375 68.7365 77.1375 75.6964 66.1775 79.5265C64.8675 79.9865 63.5375 80.3964 62.1875 80.7564C62.2775 81.0764 62.3675 81.3965 62.4475 81.7165C69.7875 78.8365 77.0675 75.7665 84.1475 72.2965C91.0975 68.8965 97.8575 65.1165 104.327 60.8665C108.057 58.4165 111.687 55.7965 115.217 53.0465C115.717 52.6565 115.017 51.9565 114.517 52.3465C108.387 57.1365 101.897 61.4665 95.1475 65.3465C88.4875 69.1765 81.5975 72.5564 74.5675 75.6464C70.4775 77.4464 66.3375 79.1364 62.1875 80.7664C61.6075 80.9964 61.8175 81.8965 62.4475 81.7265C73.2775 78.7965 82.9175 72.6965 91.5575 65.6665C100.247 58.5965 108.018 50.5065 115.858 42.5365C117.468 40.8965 119.037 39.2265 120.987 37.9965C122.257 37.1965 124.257 36.0965 125.747 36.9865C126.587 37.4865 126.967 38.4965 127.177 39.4065C127.437 40.5065 127.517 41.5965 127.327 42.7165C126.937 45.0665 125.777 47.2464 124.467 49.2064C121.717 53.3364 118.108 56.8665 114.228 59.9265C109.628 63.5565 104.567 66.5864 99.2974 69.1464C88.8574 74.2164 77.6275 77.4065 66.4275 80.2965C65.0675 80.6465 63.6975 80.9965 62.3375 81.3465C61.7275 81.5065 61.9875 82.4665 62.6075 82.3065Z" fill="#D67993"/>
<g opacity="0.1">
<g opacity="0.1">
<path opacity="0.1" d="M20.7975 101.586C28.7875 99.2265 37.0975 99.4265 44.8575 97.4665C55.3275 94.4765 64.7875 90.0965 74.3975 85.0065C83.6975 80.0065 93.1575 75.6165 99.9575 67.2865" fill="#65537A"/>
</g>
<g opacity="0.1">
<path opacity="0.1" d="M99.9575 67.2865C114.758 57.9165 129.048 38.7565 135.518 22.5765C138.128 15.9665 139.978 -10.6035 130.638 4.65646C122.608 17.2665 120.078 23.0865 114.408 36.9165C106.428 56.3865 105.378 61.2865 99.9575 67.2865C113.108 52.7165 122.908 36.6865 131.698 19.2565L99.9575 67.2865Z" fill="#65537A"/>
</g>
<g opacity="0.1">
<path opacity="0.1" d="M80.2075 81.8765C91.5775 70.7365 97.1875 52.4565 98.9175 37.1565C99.2975 33.4265 100.638 19.2064 96.1275 17.0564C92.3175 15.0564 91.1775 20.9565 90.1775 23.5265C85.5775 41.8665 88.3775 64.6165 80.2075 81.8765C85.5575 78.2065 87.9175 65.3864 89.6775 59.3164C91.5175 53.5664 93.5975 47.4165 93.6475 41.1265" fill="#65537A"/>
</g>
<g opacity="0.1">
<path opacity="0.1" d="M61.9974 90.7965C75.8874 86.9465 77.1274 67.1365 78.4874 55.5565C79.3974 48.7165 81.6675 32.9464 75.9775 27.4564C70.5175 21.5764 70.3174 31.2065 69.7974 35.6365C66.8374 53.8965 67.6075 73.8464 61.1475 91.3464C72.9175 80.4364 73.0675 60.2464 74.6475 45.6364" fill="#65537A"/>
</g>
<g opacity="0.1">
<path opacity="0.1" d="M37.9474 98.8864C50.1274 96.1264 54.5874 82.4365 57.1874 71.8665C58.5674 66.8965 57.7975 46.9365 52.0975 59.6165C46.0175 73.3865 48.3974 87.9764 36.6274 98.8864C45.2374 96.3664 49.8475 83.3065 52.5375 75.6865" fill="#65537A"/>
</g>
<g opacity="0.1">
<path opacity="0.1" d="M36.6274 98.8865C50.4774 105.286 65.8675 111.287 81.0175 112.397C84.4375 112.857 93.2875 113.907 95.2175 109.787C97.6075 104.887 91.3874 102.497 88.1974 101.657C77.2374 98.8265 65.9074 101.037 54.8774 99.2165C49.0474 98.3765 42.6074 97.7065 36.6274 98.8865C54.2574 102.326 70.8274 107.387 85.8074 106.557L36.6274 98.8865Z" fill="#65537A"/>
</g>
<g opacity="0.1">
<path opacity="0.1" d="M61.1375 91.3464C67.9875 96.2164 81.7274 95.6964 90.1974 95.2064C98.9674 94.6264 110.307 93.7364 118.677 90.2864C124.027 87.9364 132.317 81.5364 134.467 75.7064C137.307 66.0664 128.167 71.6964 123.897 74.4264C105.687 85.9864 84.2875 91.0864 63.0875 90.8564C77.8475 93.0564 97.9475 90.5964 112.527 86.8964" fill="#65537A"/>
</g>
<g opacity="0.1">
<path opacity="0.1" d="M82.7974 80.4365C102.347 75.4765 123.067 69.9165 138.627 55.7265C142.347 52.1465 149.617 44.3465 148.037 38.1365C146.777 31.8565 140.807 35.6765 137.397 39.1865C122.157 54.6165 104.597 73.9365 82.6375 79.8465C101.867 72.3165 118.917 64.0265 135.187 51.3065" fill="#65537A"/>
</g>
</g>
</svg>
