<svg width="346" height="182" viewBox="0 0 346 182" fill="none" xmlns="http://www.w3.org/2000/svg">
<path d="M279.394 -115.639C279.548 -99.5384 275.379 -83.6811 269.368 -68.8434C263.126 -53.4566 254.855 -38.9554 245.682 -25.1326C235.746 -10.1767 224.849 4.18607 212.468 17.2092C197.975 32.4492 181.752 45.9708 164.611 58.1282C156.084 64.173 147.428 70.1025 138.202 75.0304C129.006 79.9476 119.17 83.0784 109.491 86.8619C107.196 87.7605 104.923 88.7187 102.695 89.7679C102.121 90.0405 102.495 90.9546 103.083 90.6836C112.491 86.2619 122.602 83.5631 132.036 79.2088C141.531 74.8332 150.39 69.1633 158.986 63.255C176.475 51.232 193.144 38.0206 208.172 23.0089C221.427 9.77056 233.048 -4.8682 243.619 -20.3101C252.972 -33.9689 261.499 -48.2896 268.163 -63.4617C274.649 -78.2137 279.487 -94.0118 280.276 -110.191C280.365 -112.053 280.39 -113.916 280.379 -115.777C280.371 -116.419 279.392 -116.273 279.394 -115.639Z" fill="#D67993"/>
<path d="M102.884 90.2678C100.946 95.0055 98.0574 99.294 94.7091 103.143C91.072 107.319 86.8555 110.985 82.3528 114.189C77.6472 117.539 72.5869 120.405 67.2989 122.737C62.1676 125.011 56.8096 126.801 51.311 127.926C46.2427 128.967 41.0202 129.456 35.8453 129.018C35.246 128.967 34.6484 128.902 34.0447 128.829C34.1816 129.052 34.3107 129.281 34.4476 129.505C37.0579 124.392 40.4982 119.721 44.3358 115.476C48.4292 110.941 53.0324 106.845 57.9605 103.244C62.6543 99.8138 67.6955 96.8103 73.0503 94.5141C77.571 92.5804 82.3828 91.2444 87.1989 90.2864C90.0591 89.7194 92.9867 89.303 95.9056 89.3129C98.3185 89.3259 100.929 89.5906 103.049 90.8503C103.594 91.1724 104.189 90.3752 103.644 90.0531C101.749 88.9344 99.5506 88.4986 97.3714 88.3784C94.7615 88.2277 92.1401 88.4674 89.5642 88.8621C84.6139 89.633 79.5904 90.8936 74.9008 92.6931C69.4056 94.7943 64.2122 97.701 59.3663 101.034C54.2562 104.549 49.5021 108.599 45.2155 113.082C40.6277 117.878 36.5441 123.219 33.5216 129.151C33.3721 129.446 33.6297 129.791 33.9245 129.826C39.0521 130.48 44.2869 130.185 49.3709 129.309C54.9711 128.345 60.4498 126.677 65.6973 124.503C71.0937 122.276 76.2718 119.495 81.1234 116.234C85.8507 113.057 90.2734 109.395 94.1588 105.227C97.7176 101.404 100.826 97.1207 103.043 92.3809C103.304 91.807 103.566 91.2331 103.801 90.6418C104.05 90.0522 103.126 89.6844 102.884 90.2678Z" fill="#D67993"/>
<path d="M130.038 89.5232C133.477 84.8666 137.08 80.3223 140.139 75.392C140.467 74.8546 139.677 74.2539 139.341 74.7974C136.283 79.7277 132.688 84.2658 129.241 88.9286C128.873 89.4469 129.67 90.0415 130.038 89.5232Z" fill="#D67993"/>
<path d="M139.93 74.6403C136.39 72.8677 132.297 72.3815 128.4 72.147C123.903 71.8757 119.399 72.0167 114.903 72.0374C112.58 72.0425 110.261 72.0194 107.947 71.8402C107.312 71.7921 107.193 72.775 107.828 72.823C116.359 73.4878 125.012 72.2514 133.498 73.7014C135.592 74.0535 137.655 74.6083 139.562 75.5646C140.133 75.8542 140.494 74.922 139.93 74.6403Z" fill="#D67993"/>
<path d="M128.549 89.764C130.399 91.7318 131.414 94.2401 131.316 96.9489C131.221 99.7437 130.148 102.442 128.789 104.856C125.656 110.405 120.88 115.107 115.792 118.859C113.547 120.519 111.135 122.094 108.518 123.068C108.746 123.245 108.976 123.408 109.204 123.585C109.467 118.268 110.831 112.977 112.765 108.039C114.776 102.876 117.561 97.6772 121.705 93.9033C123.784 92.0172 126.244 90.5188 129.012 89.9479C129.633 89.8162 129.501 88.8388 128.874 88.9627C123.579 90.0552 119.52 94.0673 116.589 98.4148C113.274 103.343 111.026 108.998 109.592 114.75C108.884 117.607 108.362 120.521 108.221 123.467C108.203 123.849 108.541 124.118 108.906 123.984C111.307 123.091 113.527 121.692 115.605 120.226C118.284 118.326 120.794 116.179 123.085 113.834C125.423 111.452 127.581 108.856 129.288 105.978C130.789 103.452 132.009 100.651 132.266 97.6902C132.543 94.5114 131.512 91.4813 129.328 89.1527C128.9 88.688 128.121 89.2993 128.549 89.764Z" fill="#D67993"/>
<path d="M106.64 72.6371C103.072 76.3024 98.3432 78.2467 93.2646 78.5464C88.3516 78.8304 83.4017 77.7068 78.8229 75.987C76.3498 75.0551 73.9425 73.9317 71.6415 72.6359C71.6453 72.8999 71.6491 73.1639 71.6529 73.4278C79.3949 67.5164 90.4958 63.5195 100.004 67.4216C102.699 68.5227 105.081 70.2628 107.037 72.4144C107.465 72.8791 108.25 72.2757 107.816 71.8031C104.245 67.8686 99.4207 65.464 94.1273 65.0041C88.8839 64.5432 83.5824 65.8059 78.8269 67.9749C76.0758 69.2316 73.4639 70.8114 71.0557 72.6507C70.8276 72.8298 70.7875 73.2808 71.0671 73.4427C75.4221 75.8976 80.1053 77.8152 85.0092 78.8477C89.9209 79.8741 95.1645 79.979 99.9271 78.2239C102.707 77.1986 105.2 75.5475 107.264 73.4316C107.69 72.9702 107.086 72.1852 106.64 72.6371Z" fill="#D67993"/>
<path d="M102.146 90.072C93.2675 94.8922 84.3477 99.6432 75.4986 104.517C66.6793 109.38 57.9307 114.365 49.3774 119.68C44.5816 122.656 39.8582 125.741 35.2258 128.957C34.6976 129.321 35.3089 130.1 35.837 129.736C44.0755 124.02 52.5973 118.729 61.2667 113.692C69.9378 108.64 78.7504 103.833 87.5798 99.0641C92.5619 96.374 97.5423 93.6979 102.518 91C103.083 90.6835 102.703 89.7617 102.146 90.072Z" fill="#D67993"/>
<path d="M87.776 111.089C90.058 106.514 90.1118 101.221 92.0591 96.5272C92.3083 95.9375 91.384 95.5698 91.1349 96.1594C89.1875 100.853 89.1337 106.146 86.8517 110.721C86.5621 111.291 87.4864 111.659 87.776 111.089Z" fill="#D67993"/>
<path d="M78.116 117.845C80.2894 112.694 80.9303 107.08 82.4168 101.718C82.5896 101.112 81.6591 100.737 81.4925 101.35C80.0077 106.698 79.3651 112.326 77.1917 117.477C76.9426 118.066 77.8669 118.434 78.116 117.845Z" fill="#D67993"/>
<path d="M67.6698 123.501C70.2667 118.323 70.7634 112.429 73.0475 107.127C73.3027 106.546 72.3784 106.178 72.1231 106.759C69.839 112.061 69.3424 117.955 66.7455 123.134C66.4621 123.712 67.3882 124.066 67.6698 123.501Z" fill="#D67993"/>
<path d="M54.0064 127.781C56.1541 123.552 58.3332 119.299 59.8244 114.786C60.0252 114.183 59.1009 113.815 58.9001 114.418C57.4089 118.932 55.2298 123.185 53.0822 127.413C52.7926 127.983 53.7186 128.337 54.0064 127.781Z" fill="#D67993"/>
<path d="M59.4294 114.104C56.7589 113.569 53.9085 113.759 51.2152 114.004C48.4939 114.246 45.7152 114.609 43.1149 115.443C42.5071 115.64 42.8952 116.556 43.503 116.358C46.0219 115.551 48.7332 115.215 51.3608 114.983C53.9743 114.75 56.731 114.569 59.3171 115.095C59.936 115.219 60.0482 114.228 59.4294 114.104Z" fill="#D67993"/>
<path d="M72.7753 106.489C70.1963 105.195 67.312 104.485 64.4787 104.001C61.7156 103.525 58.849 103.258 56.0541 103.52C55.4132 103.578 55.5509 104.563 56.1917 104.505C58.9069 104.255 61.6797 104.532 64.3664 104.991C67.1233 105.459 69.9015 106.164 72.4137 107.421C72.9797 107.689 73.3396 106.771 72.7753 106.489Z" fill="#D67993"/>
<path d="M82.2442 101.142C79.9894 99.5809 77.3107 98.7596 74.6645 98.1415C72.0323 97.5252 69.354 97.174 66.6885 96.7744C66.0584 96.6842 65.94 97.6671 66.5701 97.7573C69.103 98.1337 71.6471 98.4759 74.158 99.0349C76.7593 99.6119 79.4414 100.405 81.6574 101.933C82.1818 102.309 82.7765 101.512 82.2442 101.142Z" fill="#D67993"/>
<path d="M91.8864 95.9507C90.2065 94.8793 88.4951 93.8327 86.6977 92.968C84.9609 92.1319 83.0825 91.407 81.1376 91.2937C80.5007 91.2597 80.3822 92.2425 81.0191 92.2765C82.886 92.3876 84.6678 93.0866 86.3299 93.8923C88.0526 94.7266 89.6849 95.721 91.298 96.7558C91.8275 97.0903 92.4283 96.3009 91.8864 95.9507Z" fill="#D67993"/>
<path d="M110.124 122.977C115.424 114.342 120.093 105.325 125.393 96.691C126.882 94.2637 128.424 91.8712 130.045 89.5311C130.407 89.005 129.61 88.4103 129.247 88.9364C123.49 97.2949 118.712 106.27 113.663 115.063C112.249 117.521 110.815 119.969 109.333 122.39C108.997 122.933 109.788 123.52 110.124 122.977Z" fill="#D67993"/>
<path d="M115.671 119.678C115.837 117.832 116.02 115.959 115.707 114.12C115.66 113.865 115.415 113.65 115.146 113.696C113.253 114.038 111.544 114.922 109.926 115.937C109.695 116.08 109.687 116.443 109.841 116.639C110.02 116.867 110.312 116.867 110.543 116.724C112.007 115.804 113.572 114.995 115.283 114.681C115.094 114.537 114.911 114.401 114.722 114.258C115.017 116.01 114.844 117.798 114.688 119.56C114.626 120.193 115.609 120.312 115.671 119.678Z" fill="#D67993"/>
<path d="M120.503 116.165C120.297 114.687 120.098 113.203 119.746 111.751C119.537 110.885 119.282 109.992 118.773 109.247C117.944 108.029 116.556 107.962 115.221 108.171C114.06 108.345 112.914 108.634 111.769 108.859C111.141 108.983 111.279 109.968 111.907 109.844C112.863 109.653 113.822 109.434 114.784 109.251C115.418 109.135 116.089 109.002 116.735 109.08C118.013 109.234 118.445 110.611 118.739 111.779C119.115 113.263 119.323 114.791 119.524 116.311C119.598 116.939 120.583 116.802 120.503 116.165Z" fill="#D67993"/>
<path d="M126.436 109.843C125.599 106.445 123.978 103.23 123.428 99.7589C123.388 99.4977 123.135 99.2892 122.866 99.3351C119.916 99.82 117.573 101.774 114.781 102.72C114.179 102.925 114.561 103.833 115.169 103.635C117.864 102.728 120.156 100.789 123.004 100.32C122.815 100.176 122.632 100.04 122.442 99.8965C122.999 103.375 124.614 106.582 125.451 109.981C125.604 110.598 126.582 110.466 126.436 109.843Z" fill="#D67993"/>
<path d="M130.107 104.317C129.458 100.607 128.863 96.8528 127.708 93.2593C127.655 93.1104 127.473 92.9604 127.309 92.962C125.899 92.963 124.539 93.1409 123.192 93.5626C121.843 93.9983 120.577 94.6363 119.323 95.29C118.761 95.5784 119.141 96.5003 119.711 96.2057C122.096 94.969 124.448 93.9491 127.191 93.9448C127.061 93.8437 126.923 93.7486 126.792 93.6475C127.922 97.1595 128.491 100.832 129.122 104.455C129.232 105.081 130.209 104.949 130.107 104.317Z" fill="#D67993"/>
<path d="M107.91 71.793C105.806 70.749 103.382 70.4782 101.066 70.4271C98.4302 70.3729 95.7869 70.617 93.1683 70.8926C90.903 71.1325 88.6355 71.4503 86.3596 71.4823C83.8339 71.5198 81.3059 71.4573 78.7907 71.5246C76.2835 71.5857 73.5235 71.6163 71.1657 72.5643C70.5747 72.7994 70.9551 73.7212 71.554 73.48C73.5589 72.6818 75.8943 72.6285 78.0269 72.5436C80.5595 72.45 83.097 72.4922 85.6335 72.4845C90.366 72.4565 95.0322 71.5018 99.7653 71.4098C102.385 71.3623 105.179 71.521 107.564 72.7129C108.12 73.0007 108.48 72.0826 107.91 71.793Z" fill="#D67993"/>
<path d="M78.0889 75.813C78.8793 74.2773 79.9112 72.9843 81.2024 71.8436C81.6733 71.4232 81.0699 70.6383 80.5912 71.0649C79.9062 71.6661 79.26 72.3004 78.6896 73.0151C78.086 73.7685 77.602 74.5934 77.1646 75.4452C77.0437 75.6799 77.2126 75.9923 77.4428 76.0912C77.7135 76.2093 77.9663 76.0617 78.0889 75.813Z" fill="#D67993"/>
<path d="M81.6257 77.9058C82.5062 77.1002 83.3867 76.2947 84.1835 75.415C84.9473 74.574 85.6133 73.6571 86.2467 72.715C86.6093 72.1889 85.812 71.5943 85.4495 72.1204C84.8335 73.0361 84.1848 73.9266 83.4447 74.749C82.6889 75.5838 81.8415 76.3507 81.0161 77.113C80.5497 77.5553 81.161 78.3341 81.6257 77.9058Z" fill="#D67993"/>
<path d="M86.4376 78.4002C88.5847 76.4225 90.2546 74.0313 92.1586 71.8249C92.5801 71.3415 91.775 70.7531 91.3614 71.2303C89.5158 73.3653 87.9105 75.6932 85.8281 77.6074C85.3538 78.0559 85.9651 78.8347 86.4376 78.4002Z" fill="#D67993"/>
<path d="M91.2437 79.3568C93.3843 76.9012 95.7377 74.5709 97.5807 71.8658C97.9433 71.3397 97.146 70.7451 96.7835 71.2711C94.9404 73.9763 92.5871 76.3066 90.4465 78.7622C90.025 79.2456 90.8301 79.834 91.2437 79.3568Z" fill="#D67993"/>
<path d="M99.5643 77.9237C101.341 76.0082 102.858 73.8764 104.563 71.9025C104.985 71.4191 104.18 70.8306 103.766 71.3078C102.061 73.2818 100.537 75.4057 98.7671 77.3291C98.3254 77.8029 99.1305 78.3914 99.5643 77.9237Z" fill="#D67993"/>
<path d="M104.025 70.812C103.251 69.6148 101.909 68.748 100.758 67.9611C99.5271 67.122 98.2222 66.3664 97.0168 65.4947C96.5064 65.1198 95.9118 65.9171 96.4221 66.292C97.5933 67.1524 98.8578 67.8888 100.064 68.6965C101.177 69.4503 102.495 70.2715 103.246 71.4233C103.594 71.9638 104.375 71.3385 104.025 70.812Z" fill="#D67993"/>
<path d="M97.9199 70.8241C97.0754 69.2623 95.4785 68.3291 93.9299 67.587C92.4076 66.8622 90.7723 66.3661 89.2674 65.6149C88.6969 65.3254 88.3353 66.2575 88.8996 66.5392C90.2894 67.2409 91.786 67.7061 93.2044 68.3471C94.6026 68.9786 96.2411 69.8028 97.0042 71.2123C97.3084 71.7618 98.2224 71.3876 97.9199 70.8241Z" fill="#D67993"/>
<path d="M92.1454 71.2251C91.2317 69.8829 89.6853 69.0626 88.2658 68.3716C86.8463 67.6807 85.3065 67.1604 83.9966 66.2689C83.4705 65.9064 82.8759 66.7037 83.402 67.0662C84.6714 67.9385 86.1517 68.4801 87.5403 69.1318C88.929 69.7834 90.4698 70.5318 91.3588 71.8425C91.7225 72.3707 92.5012 71.7594 92.1454 71.2251Z" fill="#D67993"/>
<path d="M86.6578 71.6677C86.0281 70.6873 85.0242 69.9752 84.0332 69.3928C82.9894 68.7756 81.8821 68.2718 80.8017 67.7214C80.2312 67.4319 79.8696 68.3641 80.4339 68.6457C81.4413 69.1517 82.4677 69.6173 83.4386 70.1901C84.3628 70.736 85.283 71.3739 85.8712 72.2852C86.227 72.8195 86.9996 72.2003 86.6578 71.6677Z" fill="#D67993"/>
<path d="M81.3577 71.2641C80.9856 70.6281 80.4051 70.2448 79.7155 69.9979C79.1489 69.7943 78.5344 69.6917 77.9903 69.4196C77.7556 69.2987 77.4292 69.4659 77.3443 69.6979C77.2543 69.9719 77.3738 70.2213 77.6226 70.3439C78.1262 70.5969 78.6907 70.7005 79.2247 70.8789C79.3617 70.9239 79.5049 70.9767 79.6403 71.0358C79.7009 71.0644 79.7756 71.0948 79.8363 71.1235C79.8626 71.1409 79.8828 71.1504 79.9171 71.1617C79.83 71.1156 79.9171 71.1617 79.9373 71.1713C80.0569 71.2427 80.1669 71.3343 80.277 71.4259C80.3219 71.4669 80.2276 71.3629 80.2893 71.4416C80.314 71.4731 80.3325 71.4967 80.3572 71.5281C80.3819 71.5596 80.4005 71.5832 80.4252 71.6147C80.4375 71.6304 80.502 71.745 80.4498 71.6461C80.5789 71.8754 80.8366 72.0417 81.1018 71.9099C81.3057 71.8134 81.4991 71.5091 81.3577 71.2641Z" fill="#D67993"/>
<path d="M175.872 50.383C172.368 56.7055 169.834 63.4868 167.421 70.2755C165.015 77.0579 162.709 83.9022 159.577 90.3906C157.82 94.032 155.787 97.5476 153.366 100.796C152.983 101.312 153.782 101.893 154.163 101.39C158.43 95.6511 161.466 89.1368 164.046 82.4965C166.669 75.7473 168.847 68.8378 171.51 62.1077C173.023 58.3015 174.685 54.5561 176.671 50.9636C176.971 50.4229 176.182 49.8221 175.872 50.383Z" fill="#D67993"/>
<path d="M154.073 101.486C155.372 100.517 156.516 99.3019 157.637 98.155C159.515 96.2233 161.303 94.2095 163 92.1278C164.881 89.8119 166.673 87.414 168.227 84.8592C169.594 82.6166 170.858 80.2263 171.488 77.6598C171.952 75.7572 172.017 73.6212 170.852 71.9424C169.668 70.24 167.215 69.2036 165.169 69.3346C162.814 69.4924 161.049 71.3736 159.867 73.268C158.216 75.9109 157.223 78.9535 156.42 81.9478C154.861 87.7995 154.049 93.8268 153.403 99.8385C153.362 100.239 153.314 100.633 153.273 101.034C153.203 101.673 154.186 101.792 154.256 101.152C154.845 95.8458 155.471 90.5368 156.62 85.3123C157.304 82.1825 158.151 79.0511 159.473 76.1194C160.395 74.0866 161.682 71.6778 163.809 70.6948C165.619 69.8589 167.94 70.5161 169.396 71.7884C170.763 72.9786 170.968 74.8266 170.707 76.5187C170.336 78.8814 169.232 81.1342 168.065 83.1943C166.649 85.666 164.985 88.0011 163.234 90.2401C160.465 93.7738 157.46 97.3147 154.032 100.235C153.849 100.391 153.658 100.553 153.456 100.699C152.946 101.087 153.557 101.866 154.073 101.486Z" fill="#D67993"/>
<path d="M161.726 93.42C162.098 92.2256 162.409 91.0025 162.565 89.7607C162.715 88.5752 162.757 87.3479 162.397 86.1935C162.315 85.9273 161.983 85.8446 161.745 85.9298C159.535 86.6606 157.567 87.9761 155.363 88.7147C154.755 88.9121 155.143 89.8278 155.751 89.6304C157.961 88.8997 159.929 87.5841 162.133 86.8455C161.915 86.7623 161.699 86.665 161.481 86.5818C161.794 87.5952 161.715 88.7252 161.569 89.7546C161.42 90.8762 161.144 91.9825 160.808 93.0601C160.615 93.6565 161.531 94.0305 161.726 93.42Z" fill="#D67993"/>
<path d="M165.661 87.8904C166.008 84.72 165.888 81.4578 165.414 78.2954C165.356 77.8966 164.929 77.774 164.613 77.971C162.28 79.4846 159.682 80.5319 157.261 81.8854C156.712 82.1895 157.092 83.1114 157.65 82.8011C160.154 81.4077 162.82 80.3189 165.238 78.7514C164.974 78.6412 164.702 78.5372 164.437 78.4269C164.893 81.5017 165.024 84.6655 164.686 87.7657C164.608 88.4116 165.599 88.5239 165.661 87.8904Z" fill="#D67993"/>
<path d="M170.774 79.7461C169.94 77.2098 168.623 74.9002 167.571 72.4587C167.51 72.316 167.344 72.1536 167.172 72.1614C165.668 72.1724 164.381 72.6868 163.126 73.4686C161.809 74.2857 160.604 75.2444 159.169 75.862C158.577 76.1111 158.965 77.0268 159.558 76.7777C160.886 76.2184 162.049 75.3687 163.242 74.5723C164.396 73.8067 165.635 73.1514 167.054 73.1442C166.923 73.0431 166.785 72.948 166.655 72.8469C167.715 75.2822 169.024 77.598 169.858 80.1343C170.055 80.7421 170.971 80.3539 170.774 79.7461Z" fill="#D67993"/>
<path d="M175.283 49.7138C167.258 50.4062 159.22 50.919 151.174 51.1957C143.25 51.4659 135.331 51.5158 127.408 51.3658C122.775 51.2775 118.148 51.1331 113.507 50.937C112.876 50.9109 112.75 51.8999 113.388 51.9199C121.524 52.2593 129.676 52.4582 137.814 52.4275C145.709 52.396 153.593 52.1568 161.475 51.7036C166.123 51.4374 170.772 51.0932 175.414 50.6912C176.047 50.6393 175.91 49.654 175.283 49.7138Z" fill="#D67993"/>
<path d="M146.796 51.708C144.697 56.0632 139.757 57.284 135.289 57.2441C129.974 57.1948 124.654 55.7773 119.721 53.8652C117.4 52.966 115.103 51.9342 112.964 50.6509C112.968 50.9148 112.972 51.1788 112.976 51.4428C117.297 47.619 123.165 45.4415 128.858 44.8243C130.215 44.6745 131.653 44.5629 133.023 44.7209C133.916 44.8213 134.807 44.9857 135.683 45.1625C137.928 45.6253 140.187 46.2679 142.223 47.3394C144.246 48.3952 146.233 50.116 145.982 52.6141C145.919 53.2476 146.902 53.3661 146.964 52.7325C147.453 47.6706 141.26 45.5141 137.368 44.5394C135.073 43.9636 132.802 43.5974 130.424 43.7097C127.331 43.8497 124.251 44.5255 121.335 45.5558C118.083 46.7095 114.949 48.3687 112.365 50.664C112.149 50.8588 112.084 51.2784 112.376 51.456C116.692 54.0558 121.57 55.8331 126.454 57.0341C131.442 58.2548 137.233 59.0738 142.158 57.1532C144.602 56.2013 146.578 54.4594 147.718 52.0898C147.997 51.4896 147.079 51.1297 146.796 51.708Z" fill="#D67993"/>
<path d="M135.581 58.2479C137.827 56.04 140.439 54.2822 142.884 52.312C143.382 51.909 142.77 51.1302 142.273 51.5332C139.834 53.5113 137.222 55.2691 134.97 57.4691C134.517 57.9132 135.129 58.6919 135.581 58.2479Z" fill="#D67993"/>
<path d="M129.693 57.5811C132.528 55.8644 135.116 53.769 137.951 52.0523C138.496 51.7263 137.879 50.9396 137.34 51.2735C134.505 52.9902 131.916 55.0856 129.081 56.8023C128.535 57.1424 129.154 57.915 129.693 57.5811Z" fill="#D67993"/>
<path d="M122.429 55.7441C124.684 54.5843 127.128 53.8604 129.377 52.6928C129.939 52.4043 129.559 51.4825 128.989 51.7771C126.74 52.9448 124.295 53.6686 122.04 54.8284C121.479 55.1169 121.859 56.0387 122.429 55.7441Z" fill="#D67993"/>
<path d="M118.592 54.014C120.039 53.5261 121.21 52.4422 122.48 51.7121C122.763 51.5539 122.887 51.227 122.679 50.9455C121.762 49.6954 120.937 48.3852 119.911 47.2075C119.492 46.7225 118.705 47.34 119.132 47.8187C120.158 48.9965 120.975 50.3128 121.901 51.5568C121.967 51.3012 122.033 51.0457 122.1 50.7902C120.792 51.5371 119.651 52.6105 118.211 53.0922C117.959 53.1758 117.848 53.5043 117.948 53.7441C118.044 54.0121 118.332 54.1038 118.592 54.014Z" fill="#D67993"/>
<path d="M129.97 51.1475C128.526 49.1787 127.577 46.885 126.134 44.9162C125.754 44.4004 124.976 45.0117 125.355 45.5275C126.799 47.4962 127.747 49.79 129.191 51.7587C129.562 52.2807 130.349 51.6633 129.97 51.1475Z" fill="#D67993"/>
<path d="M138.034 51.3643C136.267 48.9506 135.389 45.8892 133.177 43.7992C132.717 43.3592 132.129 44.1644 132.582 44.5965C133.643 45.6075 134.375 46.9777 135.069 48.2508C135.765 49.5098 136.398 50.8182 137.248 51.9818C137.635 52.4914 138.408 51.8723 138.034 51.3643Z" fill="#D67993"/>
<path d="M143.033 51.7247C142.39 50.3225 141.563 48.9763 140.659 47.7278C139.76 46.5013 138.716 45.236 137.336 44.5141C136.773 44.2184 136.405 45.1427 136.968 45.4384C138.2 46.0855 139.146 47.339 139.946 48.4397C140.776 49.5937 141.527 50.8095 142.111 52.105C142.382 52.6932 143.298 52.305 143.033 51.7247Z" fill="#D67993"/>
<path d="M205.046 25.1322C200.154 31.6292 199.659 40.1661 197.827 47.8082C197.68 48.4316 198.665 48.5359 198.809 47.9266C200.6 40.4575 201.07 32.0671 205.837 25.7189C206.226 25.2102 205.435 24.6235 205.046 25.1322Z" fill="#D67993"/>
<path d="M198.442 48.4948C200.865 49.2498 203.139 50.5921 204.457 52.8377C205.65 54.876 205.919 57.3087 205.776 59.6204C205.422 65.0975 203.124 70.3972 200.728 75.265C199.558 77.6453 198.289 79.9638 197.006 82.2805C197.289 82.2363 197.578 82.1999 197.861 82.1557C194.621 78.838 193.293 73.842 192.691 69.3822C192.01 64.3359 192.225 58.8918 194.07 54.1002C194.967 51.7939 196.306 49.612 198.309 48.1156C198.819 47.7283 198.208 46.9496 197.698 47.3369C193.776 50.2757 192.183 55.4539 191.614 60.1216C190.961 65.4772 191.482 71.1451 193.296 76.2425C194.136 78.6086 195.312 80.9654 197.074 82.7731C197.353 83.0631 197.731 82.9947 197.93 82.6483C200.505 78.0086 203.022 73.3122 204.801 68.3059C206.472 63.6001 208.009 57.6389 205.61 52.8984C204.23 50.1681 201.664 48.47 198.81 47.5705C198.199 47.3759 197.831 48.3002 198.442 48.4948Z" fill="#D67993"/>
<path d="M197.968 82.3894C197.702 73.0771 197.665 63.7496 198.413 54.4669C198.601 52.0822 198.852 49.6981 199.132 47.3174C199.208 46.6856 198.225 46.5671 198.149 47.199C197.106 55.976 196.749 64.786 196.817 73.6186C196.837 76.5909 196.9 79.5542 196.983 82.5271C196.999 83.1629 197.978 83.0174 197.968 82.3894Z" fill="#D67993"/>
<path d="M200.968 76.5261C200.855 75.6363 200.305 74.8222 199.815 74.1008C199.271 73.2946 198.662 72.5517 198.087 71.7702C197.934 71.5595 197.591 71.511 197.385 71.6856C195.887 73.0008 194.423 74.3413 193.233 75.9358C192.851 76.4524 193.656 77.0408 194.031 76.5305C195.169 75.0011 196.57 73.724 197.996 72.4644C197.758 72.4356 197.533 72.4086 197.294 72.3798C197.84 73.108 198.416 73.8255 198.931 74.5784C199.355 75.1992 199.877 75.9459 199.975 76.6699C200.071 77.294 201.056 77.1563 200.968 76.5261Z" fill="#D67993"/>
<path d="M203.083 71.9165C201.349 69.286 199.406 66.794 197.666 64.1556C197.527 63.9466 197.15 63.8869 196.964 64.071C195.272 65.7546 193.966 67.7838 192.275 69.4673C191.829 69.9192 192.44 70.698 192.886 70.2461C194.578 68.5625 195.883 66.5334 197.575 64.8498C197.336 64.8211 197.111 64.794 196.873 64.7652C198.607 67.3958 200.55 69.8876 202.291 72.526C202.66 73.0621 203.433 72.4429 203.083 71.9165Z" fill="#D67993"/>
<path d="M205.105 65.6006C202.707 62.8686 200.394 60.0686 197.771 57.5517C197.611 57.3971 197.328 57.4414 197.171 57.5649C195.167 59.0612 193.469 60.915 191.767 62.7468C191.333 63.2144 192.138 63.8029 192.564 63.3415C194.208 61.5809 195.847 59.7985 197.78 58.3577C197.58 58.3621 197.38 58.3665 197.18 58.3709C199.741 60.8232 201.988 63.5725 204.323 66.2399C204.739 66.6888 205.524 66.0855 205.105 65.6006Z" fill="#D67993"/>
<path d="M205.878 56.8834C204.758 56.1858 203.666 55.4417 202.573 54.6975C201.862 54.213 201.125 53.7111 200.335 53.3523C198.882 52.7001 197.495 53.0386 196.15 53.8024C194.844 54.5352 193.645 55.4377 192.44 56.3324C191.925 56.7118 192.536 57.4906 193.052 57.1112C194.091 56.3462 195.132 55.5671 196.24 54.8886C196.862 54.5149 197.563 54.1294 198.261 54.014C198.821 53.9177 199.303 53.9971 199.838 54.2254C200.536 54.5162 201.174 54.9563 201.8 55.3806C202.959 56.1613 204.103 56.9544 205.289 57.6885C205.827 58.0168 206.413 57.2257 205.878 56.8834Z" fill="#D67993"/>
<path d="M205.1 24.5047C196.051 27.4382 186.526 28.5837 177.071 29.2035C167.918 29.8027 158.735 29.9425 149.57 30.4619C144.701 30.7369 139.685 30.9871 134.886 29.9103C134.263 29.764 134.151 30.7546 134.768 30.8931C138.998 31.8444 143.403 31.7556 147.715 31.5489C152.214 31.336 156.701 31.0934 161.195 30.9226C170.791 30.5478 180.417 30.2763 189.932 28.9229C195.193 28.1752 200.412 27.0663 205.481 25.4266C206.09 25.2151 205.708 24.3073 205.1 24.5047Z" fill="#D67993"/>
<path d="M167.246 31.3599C166.401 33.523 164.925 35.3679 162.861 36.4795C160.843 37.5681 158.531 37.9589 156.25 37.969C151.12 37.9917 145.964 36.3306 141.401 34.0642C139.17 32.955 136.999 31.6463 135.118 29.9953C135.147 30.2267 135.19 30.4598 135.219 30.6912C136.494 29.3349 138.334 28.4883 140.021 27.7871C142.412 26.8003 144.917 26.1051 147.453 25.6272C150.179 25.1153 152.971 24.8179 155.745 24.903C158.187 24.9693 160.697 25.3003 162.959 26.2708C165.134 27.1953 166.885 28.7952 167.553 31.1191C167.728 31.7314 168.644 31.3432 168.468 30.7309C167.069 25.8545 161.587 24.2965 157.095 23.9831C151.509 23.5877 145.658 24.5704 140.432 26.5617C138.289 27.379 136.022 28.4091 134.428 30.1045C134.233 30.3088 134.35 30.6363 134.53 30.8004C138.246 34.0615 143.08 36.2679 147.785 37.6469C152.525 39.0371 158.202 39.8566 162.824 37.6145C165.328 36.3992 167.147 34.3108 168.162 31.7339C168.399 31.1285 167.481 30.7686 167.246 31.3599Z" fill="#D67993"/>
<path d="M158.914 38.4466C160.634 35.8122 162.229 33.0985 164.173 30.6192C164.35 30.3912 164.264 30.1031 164.072 29.9233C160.964 27.1629 156.766 26.1869 153.276 24.057C152.739 23.7287 152.138 24.5181 152.681 24.8542C156.171 26.9841 160.384 27.9618 163.477 30.7205C163.448 30.4891 163.405 30.256 163.376 30.0246C161.432 32.5039 159.837 35.2176 158.116 37.852C157.774 38.3876 158.571 38.9823 158.914 38.4466Z" fill="#D67993"/>
<path d="M149.824 37.8641C152.729 36.1058 155.653 34.0011 157.557 31.1466C157.696 30.9355 157.687 30.5996 157.455 30.4507C153.977 28.2865 150.197 26.6772 146.553 24.8207C145.983 24.5312 145.621 25.4634 146.185 25.745C149.756 27.557 153.463 29.122 156.861 31.2479C156.832 31.0165 156.789 30.7834 156.76 30.5519C154.9 33.3335 152.034 35.3669 149.207 37.0774C148.668 37.4114 149.294 38.1918 149.824 37.8641Z" fill="#D67993"/>
<path d="M143.434 35.926C144.562 35.4351 145.641 34.8173 146.61 34.0438C147.548 33.295 148.371 32.4327 149.182 31.5547C149.377 31.3504 149.26 31.0228 149.08 30.8587C146.998 29.048 144.944 27.2407 142.476 25.9746C141.905 25.6851 141.545 26.6032 142.108 26.8989C144.489 28.1189 146.487 29.9195 148.492 31.6639C148.463 31.4325 148.42 31.1994 148.391 30.9679C147.638 31.7747 146.872 32.5797 145.999 33.2651C145.1 33.983 144.106 34.5469 143.054 35.0041C142.474 35.2689 142.856 36.1767 143.434 35.926Z" fill="#D67993"/>
<path d="M139.501 33.5218C140.678 32.8518 141.648 31.8362 142.272 30.6222C142.345 30.4886 142.309 30.2493 142.203 30.1296C141.237 29.1586 140.129 28.2487 138.907 27.6314C138.672 27.5105 138.36 27.6794 138.261 27.9096C138.157 28.182 138.298 28.427 138.539 28.5557C138.734 28.6575 138.973 28.8002 139.21 28.9571C139.494 29.1409 139.769 29.3449 140.036 29.5551C140.296 29.7574 140.563 29.9676 140.808 30.1823C141.034 30.3734 141.258 30.5784 141.422 30.7549C141.399 30.5954 141.369 30.428 141.353 30.2623C140.878 31.195 140.045 32.0775 139.126 32.6078C138.897 32.7369 138.753 32.9901 138.863 33.2597C138.95 33.4839 139.271 33.6509 139.501 33.5218Z" fill="#D67993"/>
<path d="M228.913 46.1129C232.035 32.145 234.105 17.858 234.817 3.55696C235.008 -0.33017 235.085 -4.21678 235.005 -8.10798C235.003 -8.386 234.689 -8.55914 234.444 -8.53174C230.239 -8.15529 226.444 -5.79936 222.71 -4.01292C220.693 -3.05238 218.628 -2.34686 216.517 -1.61832C213.984 -0.74846 211.425 0.0399498 208.846 0.754768C198.279 3.68357 187.413 5.25865 176.603 7.01852C173.53 7.52415 170.448 8.03594 167.377 8.57752C164.801 9.03623 162.034 8.94499 159.584 9.95306C158.993 10.1881 159.373 11.1099 159.972 10.8687C162.167 9.97229 164.604 10.0808 166.903 9.6742C169.618 9.19646 172.322 8.73894 175.041 8.28312C180.49 7.3872 185.951 6.52108 191.391 5.58134C196.687 4.66681 201.944 3.59102 207.137 2.22262C209.667 1.55889 212.176 0.835607 214.673 0.0325654C216.904 -0.688608 219.181 -1.38277 221.336 -2.29831C223.597 -3.27221 225.769 -4.45623 228.009 -5.48968C230.09 -6.44963 232.27 -7.33371 234.574 -7.54037C234.384 -7.68425 234.201 -7.82025 234.012 -7.96413C234.3 6.315 232.655 20.6746 230.179 34.7204C229.51 38.5 228.764 42.2633 227.928 46.0085C227.791 46.6117 228.774 46.7301 228.913 46.1129Z" fill="#D67993"/>
<path d="M232.27 23.2777C235.434 24.6205 235.634 28.1629 235.099 31.1254C234.423 34.8472 232.765 38.4364 230.858 41.6751C230.017 43.0979 229.106 44.5123 228.029 45.7643C228.31 45.7981 228.605 45.8336 228.885 45.8675C227.444 43.1725 227.138 39.9164 227.272 36.9127C227.419 33.5687 228.135 30.1722 229.649 27.1782C230.414 25.675 231.424 24.2725 232.761 23.2229C233.264 22.8277 232.653 22.049 232.15 22.4441C229.546 24.4878 228.07 27.693 227.216 30.8165C226.293 34.2236 225.991 37.8551 226.48 41.3612C226.717 43.0564 227.154 44.7472 227.962 46.2618C228.141 46.604 228.561 46.6688 228.818 46.3651C231.12 43.6939 232.864 40.3927 234.237 37.1538C235.63 33.8744 237.018 29.7969 236.026 26.2159C235.534 24.4402 234.33 23.0844 232.63 22.3595C232.048 22.1042 231.68 23.0286 232.27 23.2777Z" fill="#D67993"/>
<path d="M235.884 31.0561C235.398 30.4206 234.741 29.957 234.082 29.5214C233.448 29.1032 232.799 28.6973 232.338 28.0933C231.951 27.5837 231.172 28.1949 231.559 28.7046C232.045 29.34 232.701 29.8037 233.361 30.2394C233.995 30.6575 234.644 31.0633 235.097 31.6735C235.492 32.177 236.271 31.5657 235.884 31.0561Z" fill="#D67993"/>
<path d="M233.902 36.7431C233.211 35.3279 232.528 33.9066 231.759 32.5392C231.63 32.31 231.377 32.1655 231.107 32.2754C230.882 32.3764 230.708 32.6903 230.844 32.9274C231.612 34.2948 232.295 35.7162 232.987 37.1313C233.1 37.3729 233.383 37.5067 233.638 37.3951C233.872 37.2879 234.016 36.9847 233.902 36.7431Z" fill="#D67993"/>
<path d="M230.586 33.053C229.255 34.9367 227.946 36.8799 226.303 38.5123C226.109 38.7026 226.048 38.9801 226.219 39.2144C226.367 39.4031 226.727 39.4893 226.921 39.299C228.628 37.6031 230.014 35.6121 231.398 33.6493C231.752 33.1294 230.955 32.5347 230.586 33.053Z" fill="#D67993"/>
<path d="M231.554 28.0985C230.113 29.6485 228.582 31.0665 226.952 32.4227C226.461 32.8336 227.072 33.6124 227.563 33.2015C229.25 31.7881 230.84 30.2988 232.345 28.6853C232.525 28.4933 232.439 28.1411 232.244 27.9894C232.008 27.8185 231.727 27.8987 231.554 28.0985Z" fill="#D67993"/>
<path d="M193.289 5.43962C193.111 7.91812 192.323 10.38 190.424 12.0741C188.676 13.6369 186.365 14.3698 184.077 14.6781C178.596 15.4207 172.842 14.1788 167.593 12.6418C164.999 11.8806 162.443 10.9885 159.957 9.92681C160.027 10.1773 160.103 10.4358 160.172 10.6863C163.492 6.54239 167.891 3.0769 172.607 0.646727C176.966 -1.60558 182.502 -3.39559 187.297 -1.40043C190.098 -0.229658 192.054 2.14993 193.31 4.851C193.583 5.42515 194.497 5.051 194.226 4.46281C193.027 1.88252 191.241 -0.440853 188.708 -1.82155C186.497 -3.03527 183.947 -3.38532 181.451 -3.18045C175.774 -2.70364 170.381 0.321542 165.953 3.73363C163.535 5.59319 161.287 7.70108 159.375 10.0917C159.166 10.3443 159.305 10.7313 159.59 10.8511C164.571 12.9542 169.847 14.5587 175.197 15.3814C180.175 16.1522 186.427 16.521 190.624 13.188C192.98 11.3138 194.062 8.48138 194.265 5.5502C194.32 4.92286 193.331 4.79655 193.289 5.43962Z" fill="#D67993"/>
<path d="M186.899 14.7902C188.373 11.8911 190.081 9.12691 190.988 5.97423C191.161 5.36829 190.244 4.99429 190.064 5.60641C189.171 8.76078 187.463 11.525 185.974 14.4224C185.685 14.9929 186.617 15.3545 186.899 14.7902Z" fill="#D67993"/>
<path d="M181.152 15.3726C182.509 12.6802 183.258 9.71496 184.623 7.01633C184.913 6.44583 183.981 6.08423 183.699 6.64855C182.342 9.34101 181.593 12.3062 180.228 15.0048C179.938 15.5753 180.87 15.937 181.152 15.3726Z" fill="#D67993"/>
<path d="M174.915 14.9415C176.067 12.6517 176.785 10.1812 177.943 7.89926C178.233 7.32876 177.301 6.96716 177.019 7.53149C175.867 9.82134 175.149 12.2917 173.991 14.5737C173.707 15.1521 174.626 15.512 174.915 14.9415Z" fill="#D67993"/>
<path d="M169.142 12.9638C169.748 11.7762 170.347 10.5948 170.953 9.40715C171.073 9.17244 170.905 8.86008 170.674 8.76111C170.402 8.65707 170.157 8.79849 170.028 9.03938C169.422 10.227 168.824 11.4084 168.218 12.596C168.097 12.8307 168.266 13.1431 168.496 13.242C168.769 13.3461 169.021 13.1985 169.142 12.9638Z" fill="#D67993"/>
<path d="M170.637 8.35783C168.995 7.15562 167.068 6.53176 165.262 5.62322C165.027 5.50235 164.715 5.67125 164.616 5.90148C164.512 6.17383 164.66 6.42665 164.894 6.54752C166.62 7.41783 168.465 8.00347 170.043 9.15509C170.559 9.53784 171.154 8.74057 170.637 8.35783Z" fill="#D67993"/>
<path d="M176.852 6.84898C174.39 5.23467 171.789 3.88146 169.165 2.54677C168.595 2.25723 168.235 3.17536 168.798 3.47107C171.341 4.76752 173.868 6.07633 176.257 7.64623C176.793 7.98855 177.387 7.19129 176.852 6.84898Z" fill="#D67993"/>
<path d="M184.452 6.42594C181.31 3.6043 177.423 1.81119 174.11 -0.774649C173.609 -1.16974 173.014 -0.372478 173.515 0.0226165C176.829 2.60846 180.715 4.40151 183.858 7.22316C184.333 7.65082 184.928 6.8536 184.452 6.42594Z" fill="#D67993"/>
<path d="M191.057 4.92851C187.63 2.45719 184.269 -0.091588 180.668 -2.29902C180.13 -2.62729 179.53 -1.83789 180.073 -1.50175C183.675 0.705678 187.042 3.26231 190.462 5.72577C190.981 6.09447 191.575 5.29722 191.057 4.92851Z" fill="#D67993"/>
<g opacity="0.1">
<g opacity="0.1">
<g opacity="0.1">
<path opacity="0.1" d="M270.956 -122.923C271.104 -106.831 266.941 -90.9655 260.923 -76.1357C254.682 -60.7489 246.41 -46.2477 237.238 -32.4249C227.302 -17.469 216.405 -3.10622 204.024 9.91688C189.531 25.1569 173.308 38.6785 156.167 50.8359C147.64 56.8807 138.984 62.8103 129.758 67.7381C120.562 72.6553 110.726 75.7861 101.047 79.5696C98.7521 80.4682 96.4785 81.4264 94.251 82.4756C93.669 82.7544 94.0573 83.6701 94.6314 83.3975C104.039 78.9758 114.15 76.277 123.584 71.9227C133.079 67.5471 141.938 61.8771 150.534 55.9689C168.023 43.9459 184.692 30.7345 199.72 15.7228C212.975 2.4845 224.596 -12.1543 235.167 -27.5962C244.52 -41.255 253.047 -55.5757 259.719 -70.754C266.205 -85.506 271.043 -101.304 271.832 -117.483C271.921 -119.346 271.946 -121.209 271.935 -123.069C271.947 -123.701 270.954 -123.557 270.956 -122.923Z" fill="#65537A"/>
</g>
</g>
<g opacity="0.1">
<path opacity="0.1" d="M94.9146 83.1752C85.452 106.379 50.1975 125.228 25.5536 122.044C33.5651 106.272 51.8109 91.0359 68.1394 85.3258C75.1371 83.0496 88.6523 79.4078 94.9146 83.1752Z" fill="#65537A"/>
</g>
<g opacity="0.1">
<g opacity="0.1">
<path opacity="0.1" d="M121.614 82.2405C125.053 77.5838 128.656 73.0396 131.715 68.1092C132.051 67.5657 131.247 66.9632 130.909 67.5208C127.851 72.4512 124.256 76.9892 120.809 81.652C120.427 82.1686 121.238 82.7649 121.614 82.2405Z" fill="#65537A"/>
</g>
</g>
<g opacity="0.1">
<g opacity="0.1">
<path opacity="0.1" d="M131.492 67.3559C127.952 65.5833 123.858 65.0971 119.962 64.8626C115.465 64.5913 110.961 64.7323 106.465 64.7531C104.142 64.7581 101.823 64.735 99.5087 64.5558C98.8735 64.5077 98.7472 65.4968 99.3886 65.5527C107.919 66.2175 116.572 64.9811 125.058 66.431C127.144 66.7893 129.215 67.338 131.122 68.2943C131.701 68.5777 132.062 67.6455 131.492 67.3559Z" fill="#65537A"/>
</g>
</g>
<g opacity="0.1">
<path opacity="0.1" d="M120.511 82.1787C131.136 93.416 109.603 112.822 100.28 116.249C100.82 104.855 108.168 84.6584 120.511 82.1787Z" fill="#65537A"/>
</g>
<g opacity="0.1">
<path opacity="0.1" d="M98.5106 65.746C88.6737 75.9205 72.8806 71.3964 62.914 65.7439C73.4311 57.667 89.2795 54.0499 98.9863 64.8133" fill="#65537A"/>
</g>
<g opacity="0.1">
<path opacity="0.1" d="M93.9018 83.2454C71.3278 95.5102 48.1445 107.452 27.1043 122.06L93.9018 83.2454Z" fill="#65537A"/>
</g>
<g opacity="0.1">
<path opacity="0.1" d="M78.8819 103.628C81.0773 99.299 81.2774 93.5613 83.1572 89.0729L78.8819 103.628Z" fill="#65537A"/>
</g>
<g opacity="0.1">
<path opacity="0.1" d="M69.222 110.384C71.2671 105.588 72.0948 99.3703 73.5228 94.2577L69.222 110.384Z" fill="#65537A"/>
</g>
<g opacity="0.1">
<path opacity="0.1" d="M58.7758 116.041C61.4469 110.779 61.7918 105.08 64.1534 99.6669L58.7758 116.041Z" fill="#65537A"/>
</g>
<g opacity="0.1">
<path opacity="0.1" d="M45.1142 120.306C47.1584 116.286 49.5191 111.649 50.9321 107.311L45.1142 120.306Z" fill="#65537A"/>
</g>
<g opacity="0.1">
<path opacity="0.1" d="M50.9384 107.319C47.0678 106.518 38.5993 107.406 34.871 108.616L50.9384 107.319Z" fill="#65537A"/>
</g>
<g opacity="0.1">
<path opacity="0.1" d="M64.1612 99.6607C59.832 97.4652 52.1901 96.2808 47.6865 96.7138L64.1612 99.6607Z" fill="#65537A"/>
</g>
<g opacity="0.1">
<path opacity="0.1" d="M73.515 94.2639C69.4961 91.4435 62.5269 90.6464 58.1896 89.9955L73.515 94.2639Z" fill="#65537A"/>
</g>
<g opacity="0.1">
<path opacity="0.1" d="M83.1652 89.0666C80.2292 87.1886 76.059 84.6776 72.6482 84.4945L83.1652 89.0666Z" fill="#65537A"/>
</g>
<g opacity="0.1">
<path opacity="0.1" d="M101.294 115.403C108.037 104.428 113.848 92.6076 121.208 81.9493L101.294 115.403Z" fill="#65537A"/>
</g>
<g opacity="0.1">
<path opacity="0.1" d="M106.742 112.334C106.909 110.474 107.076 108.614 106.777 106.904C105.067 107.204 103.515 107.964 101.797 109.046" fill="#65537A"/>
</g>
<g opacity="0.1">
<path opacity="0.1" d="M111.573 108.949C110.329 99.7686 109.455 100.874 103.392 102.073L111.573 108.949Z" fill="#65537A"/>
</g>
<g opacity="0.1">
<path opacity="0.1" d="M117.512 102.636C116.761 99.5253 114.946 95.4962 114.503 92.5512C111.55 93.0002 109.346 94.9851 106.543 95.9009" fill="#65537A"/>
</g>
<g opacity="0.1">
<path opacity="0.1" d="M121.183 97.1095C120.584 93.6898 119.884 89.4461 118.818 86.1768C115.715 86.1589 113.735 87.1027 111.091 88.4791" fill="#65537A"/>
</g>
<g opacity="0.1">
<path opacity="0.1" d="M99.294 64.9786C94.032 62.3076 84.412 64.4174 78.8167 64.6904C74.4784 64.8157 66.3004 64.3572 62.9061 65.7501" fill="#65537A"/>
</g>
<g opacity="0.1">
<path opacity="0.1" d="M69.1949 68.3525C70.1382 66.4934 71.0588 65.4149 72.468 64.1816L69.1949 68.3525Z" fill="#65537A"/>
</g>
<g opacity="0.1">
<path opacity="0.1" d="M72.893 70.2297C75.0715 68.2274 75.8548 67.46 77.4303 65.1428L72.893 70.2297Z" fill="#65537A"/>
</g>
<g opacity="0.1">
<path opacity="0.1" d="M77.6971 70.7303C79.8835 68.7218 81.4511 66.4108 83.3281 64.2511L77.6971 70.7303Z" fill="#65537A"/>
</g>
<g opacity="0.1">
<path opacity="0.1" d="M82.4134 71.783C84.2904 69.6232 87.1889 66.6108 88.7504 64.292L82.4134 71.783Z" fill="#65537A"/>
</g>
<g opacity="0.1">
<path opacity="0.1" d="M90.7339 70.3499C92.4456 68.4978 93.8619 66.4962 95.7328 64.3286L90.7339 70.3499Z" fill="#65537A"/>
</g>
<g opacity="0.1">
<path opacity="0.1" d="M95.208 63.8381C94.1321 62.1273 89.9894 59.8617 88.2955 58.6106L95.208 63.8381Z" fill="#65537A"/>
</g>
<g opacity="0.1">
<path opacity="0.1" d="M89.0302 63.7418C87.6538 61.0974 82.8124 59.9015 80.6517 58.8007L89.0302 63.7418Z" fill="#65537A"/>
</g>
<g opacity="0.1">
<path opacity="0.1" d="M83.3202 64.2573C81.7864 61.9144 77.2707 60.7933 75.2674 59.391L83.3202 64.2573Z" fill="#65537A"/>
</g>
<g opacity="0.1">
<path opacity="0.1" d="M77.8326 64.6999C76.7568 62.9892 74.0451 61.8505 72.186 60.9071L77.8326 64.6999Z" fill="#65537A"/>
</g>
<g opacity="0.1">
<path opacity="0.1" d="M72.4679 64.1816C71.8518 63.0888 70.3072 63.0807 69.3746 62.6051L72.4679 64.1816Z" fill="#65537A"/>
</g>
<g opacity="0.1">
<g opacity="0.1">
<path opacity="0.1" d="M167.434 43.0986C163.93 49.4211 161.396 56.2024 158.983 62.9911C156.577 69.7735 154.271 76.6179 151.139 83.1063C149.382 86.7477 147.349 90.2632 144.928 93.5112C144.545 94.0277 145.342 94.6224 145.733 94.0996C150 88.3605 153.035 81.8463 155.616 75.206C158.239 68.4568 160.417 61.5472 163.08 54.8171C164.593 51.011 166.255 47.2656 168.241 43.6731C168.547 43.1402 167.751 42.5315 167.434 43.0986Z" fill="#65537A"/>
</g>
</g>
<g opacity="0.1">
<path opacity="0.1" d="M145.332 93.8163C149.071 91.0475 172.504 66.3868 158.403 62.7217C148.501 60.0185 145.985 87.9265 145.332 93.8163Z" fill="#65537A"/>
</g>
<g opacity="0.1">
<path opacity="0.1" d="M152.826 85.9518C153.46 83.9414 154.11 80.9644 153.495 79.0955C151.634 79.7045 148.974 81.2713 147.113 81.8803" fill="#65537A"/>
</g>
<g opacity="0.1">
<path opacity="0.1" d="M156.746 80.5484C157.079 77.6043 156.947 74.0344 156.498 71.0816C154.155 72.6154 151.201 73.8406 149.024 75.0667" fill="#65537A"/>
</g>
<g opacity="0.1">
<path opacity="0.1" d="M161.884 72.6637C160.974 69.869 159.742 67.8616 158.681 65.3763C155.578 65.3584 153.886 67.8182 150.932 69.0434" fill="#65537A"/>
</g>
<g opacity="0.1">
<g opacity="0.1">
<path opacity="0.1" d="M166.845 42.4293C158.82 43.1217 150.782 43.6345 142.736 43.9113C134.812 44.1814 126.893 44.2313 118.97 44.0813C114.337 43.9931 109.71 43.8486 105.069 43.6525C104.424 43.6247 104.304 44.6216 104.949 44.6495C113.084 44.9888 121.236 45.1878 129.374 45.157C137.269 45.1256 145.154 44.8864 153.036 44.4332C157.683 44.167 162.332 43.8228 166.975 43.4207C167.63 43.3643 167.486 42.3712 166.845 42.4293Z" fill="#65537A"/>
</g>
</g>
<g opacity="0.1">
<path opacity="0.1" d="M138.828 44.6013C133.638 55.578 112.284 48.6173 104.245 43.7527C109.234 39.2901 117.634 36.5489 124.457 36.9011C128.493 37.3946 138.711 39.4806 138.052 45.3625" fill="#65537A"/>
</g>
<g opacity="0.1">
<path opacity="0.1" d="M126.84 50.5781C129.184 48.2681 131.492 46.787 134.144 44.6423L126.84 50.5781Z" fill="#65537A"/>
</g>
<g opacity="0.1">
<path opacity="0.1" d="M120.952 49.9113C123.756 48.2193 126.401 46.0667 129.211 44.3826L120.952 49.9113Z" fill="#65537A"/>
</g>
<g opacity="0.1">
<path opacity="0.1" d="M113.803 48.0098C116.447 46.6334 118.107 46.3348 120.751 44.9584L113.803 48.0098Z" fill="#65537A"/>
</g>
<g opacity="0.1">
<path opacity="0.1" d="M109.966 46.2797C111.366 45.8289 112.769 44.5877 113.854 43.9777C112.936 42.7276 112.312 41.6411 111.085 40.2397" fill="#65537A"/>
</g>
<g opacity="0.1">
<path opacity="0.1" d="M121.144 44.1796C119.761 42.3036 118.686 39.8166 117.309 37.9484L121.144 44.1796Z" fill="#65537A"/>
</g>
<g opacity="0.1">
<path opacity="0.1" d="M129.211 44.3826C127.827 42.5065 126.301 38.6191 124.449 36.9073L129.211 44.3826Z" fill="#65537A"/>
</g>
<g opacity="0.1">
<path opacity="0.1" d="M134.138 44.6344C133.221 42.608 130.794 38.7544 128.714 37.6918L134.138 44.6344Z" fill="#65537A"/>
</g>
<g opacity="0.1">
<g opacity="0.1">
<path opacity="0.1" d="M196.608 17.8477C191.716 24.3447 191.221 32.8817 189.389 40.5238C189.242 41.1471 190.233 41.2594 190.385 40.6439C192.176 33.1747 192.638 24.7906 197.413 18.4361C197.802 17.9275 196.997 17.339 196.608 17.8477Z" fill="#65537A"/>
</g>
</g>
<g opacity="0.1">
<path opacity="0.1" d="M190.196 40.742C205.676 45.4992 193.752 66.6682 189.045 75.1676C182.107 68.1423 180.858 46.8886 189.578 40.4255" fill="#65537A"/>
</g>
<g opacity="0.1">
<path opacity="0.1" d="M189.038 75.1737C188.627 60.9653 188.884 50.9753 190.203 39.9736L189.038 75.1737Z" fill="#65537A"/>
</g>
<g opacity="0.1">
<path opacity="0.1" d="M192.037 69.3105C191.888 68.0675 190.175 66.0307 189.257 64.7805C187.856 66.0076 186.447 67.2408 185.196 68.9347" fill="#65537A"/>
</g>
<g opacity="0.1">
<path opacity="0.1" d="M194.266 64.9425C192.724 62.6058 190.382 59.5245 188.848 57.1816C187.288 58.7243 185.72 61.0353 184.16 62.578" fill="#65537A"/>
</g>
<g opacity="0.1">
<path opacity="0.1" d="M196.288 58.6266C193.827 55.8159 191.675 53.1705 189.049 50.6676C187.173 52.0511 185.461 53.9032 183.744 55.7474" fill="#65537A"/>
</g>
<g opacity="0.1">
<path opacity="0.1" d="M197.149 50.0056C190.352 45.7678 191.169 44.3636 184.319 49.4353L197.149 50.0056Z" fill="#65537A"/>
</g>
<g opacity="0.1">
<g opacity="0.1">
<path opacity="0.1" d="M196.662 17.2204C187.613 20.1539 178.102 21.3011 168.633 21.9192C159.48 22.5184 150.297 22.6582 141.132 23.1776C136.263 23.4526 131.247 23.7028 126.448 22.626C125.817 22.4858 125.705 23.4765 126.328 23.6228C130.558 24.5742 134.963 24.4854 139.276 24.2786C143.774 24.0657 148.262 23.8231 152.755 23.6524C162.351 23.2775 171.978 23.006 181.492 21.6527C186.761 20.8988 191.972 19.7961 197.041 18.1563C197.665 17.9466 197.278 17.0168 196.662 17.2204Z" fill="#65537A"/>
</g>
</g>
<g opacity="0.1">
<path opacity="0.1" d="M159.276 24.2672C154.386 36.9537 133.65 29.5334 126.403 23.119C131.558 17.5724 156.559 12.7721 159.586 23.6422" fill="#65537A"/>
</g>
<g opacity="0.1">
<path opacity="0.1" d="M150.083 30.8727C151.81 28.2461 153.157 25.816 155.342 23.0453C152.415 20.385 148.1 19.3735 144.547 17.179" fill="#65537A"/>
</g>
<g opacity="0.1">
<path opacity="0.1" d="M141.092 30.1881C143.895 28.4961 147.008 26.1932 148.734 23.5666C145.491 21.5234 141.34 19.7341 137.945 18.0002" fill="#65537A"/>
</g>
<g opacity="0.1">
<path opacity="0.1" d="M134.816 28.1855C137.309 27.1184 138.64 25.8329 140.351 23.9808C138.192 22.1038 136.33 20.4123 133.854 19.1524" fill="#65537A"/>
</g>
<g opacity="0.1">
<path opacity="0.1" d="M130.883 25.7812C131.975 25.1651 132.91 24.0883 133.378 23.1618C132.61 22.3784 131.218 21.2847 130.291 20.817" fill="#65537A"/>
</g>
<g opacity="0.1">
<g opacity="0.1">
<path opacity="0.1" d="M220.489 38.8302C223.611 24.8622 225.681 10.5753 226.393 -3.72578C226.584 -7.61291 226.661 -11.4995 226.581 -15.3907C226.579 -15.6687 226.265 -15.8419 226.02 -15.8145C221.815 -15.438 218.02 -13.0821 214.286 -11.2957C212.269 -10.3351 210.204 -9.6296 208.093 -8.90106C205.56 -8.0312 203.001 -7.24279 200.422 -6.52797C189.855 -3.59917 178.989 -2.02415 168.179 -0.264281C165.106 0.241354 162.024 0.753188 158.953 1.29477C156.377 1.75348 153.61 1.66224 151.16 2.67031C150.561 2.91153 150.955 3.83505 151.54 3.59214C153.735 2.69572 156.172 2.80423 158.472 2.39762C161.186 1.91989 163.89 1.46237 166.609 1.00655C172.059 0.110627 177.519 -0.755542 182.96 -1.69528C188.255 -2.60981 193.512 -3.68554 198.706 -5.05395C201.236 -5.71768 203.744 -6.44096 206.241 -7.244C208.472 -7.96518 210.749 -8.65934 212.904 -9.57488C215.165 -10.5488 217.337 -11.7328 219.577 -12.7663C221.659 -13.7262 223.838 -14.6103 226.142 -14.8169C225.953 -14.9608 225.763 -15.1047 225.58 -15.2407C225.868 -0.961575 224.223 13.398 221.747 27.4438C221.078 31.2234 220.332 34.9867 219.496 38.732C219.352 39.3413 220.342 39.4536 220.489 38.8302Z" fill="#65537A"/>
</g>
</g>
<g opacity="0.1">
<path opacity="0.1" d="M224.016 15.5311C232.064 18.8371 223.737 34.4497 219.983 38.7692C216.765 32.8545 218.251 19.9928 224.016 15.5311Z" fill="#65537A"/>
</g>
<g opacity="0.1">
<path opacity="0.1" d="M227.066 24.0822C226.141 22.8382 224.44 22.3555 223.514 21.1115L227.066 24.0822Z" fill="#65537A"/>
</g>
<g opacity="0.1">
<path opacity="0.1" d="M225.006 29.6528C224.24 28.0933 223.48 26.5416 222.864 25.4489L225.006 29.6528Z" fill="#65537A"/>
</g>
<g opacity="0.1">
<path opacity="0.1" d="M222.553 26.0737C221.143 28.0832 219.733 30.0926 218.18 31.6291L222.553 26.0737Z" fill="#65537A"/>
</g>
<g opacity="0.1">
<path opacity="0.1" d="M223.514 21.1115C221.796 22.9556 220.85 23.8387 218.822 25.5316L223.514 21.1115Z" fill="#65537A"/>
</g>
<g opacity="0.1">
<path opacity="0.1" d="M185.356 -1.78397C184.319 14.0306 160.638 7.05309 151.356 3.11404C158.865 -6.30117 178.305 -17.861 185.35 -2.61805" fill="#65537A"/>
</g>
<g opacity="0.1">
<path opacity="0.1" d="M178.012 7.32355C179.589 4.23018 181.142 1.91746 182.102 -1.49243L178.012 7.32355Z" fill="#65537A"/>
</g>
<g opacity="0.1">
<path opacity="0.1" d="M172.26 7.89801C173.52 5.42173 174.471 2.01802 175.731 -0.458252L172.26 7.89801Z" fill="#65537A"/>
</g>
<g opacity="0.1">
<path opacity="0.1" d="M166.021 7.48105C167.281 5.00478 167.797 2.90894 169.049 0.438843L166.021 7.48105Z" fill="#65537A"/>
</g>
<g opacity="0.1">
<path opacity="0.1" d="M160.256 5.49717C161.04 3.95358 161.433 3.17475 162.066 1.94055L160.256 5.49717Z" fill="#65537A"/>
</g>
<g opacity="0.1">
<path opacity="0.1" d="M161.908 1.47992C160.208 0.220962 158.19 -0.406844 156.646 -1.19113L161.908 1.47992Z" fill="#65537A"/>
</g>
<g opacity="0.1">
<path opacity="0.1" d="M168.123 -0.0289383C165.496 -1.75566 163.026 -3.00772 160.55 -4.26763L168.123 -0.0289383Z" fill="#65537A"/>
</g>
<g opacity="0.1">
<path opacity="0.1" d="M175.723 -0.452054C172.796 -3.1124 168.157 -5.45907 165.381 -7.65261L175.723 -0.452054Z" fill="#65537A"/>
</g>
<g opacity="0.1">
<path opacity="0.1" d="M182.33 -1.96351C178.626 -4.62481 175.795 -6.83914 171.94 -9.19104L182.33 -1.96351Z" fill="#65537A"/>
</g>
</g>
</svg>
